<?xml version="1.0" encoding="UTF-8"?>
<svg width="779px" height="511px" viewBox="0 0 779 511" version="1.1" xmlns="http://www.w3.org/2000/svg" xmlns:xlink="http://www.w3.org/1999/xlink">
    <!-- Generator: Sketch 47 (45396) - http://www.bohemiancoding.com/sketch -->
    <title>Angular</title>
    <desc>Created with Sketch.</desc>
    <defs>
        <linearGradient x1="50.0146035%" y1="100.139571%" x2="50.0146035%" y2="0.153067485%" id="linearGradient-1">
            <stop stop-color="#FCFCFE" offset="0%"></stop>
            <stop stop-color="#EDEDFA" offset="100%"></stop>
        </linearGradient>
        <linearGradient x1="-0.00279792746%" y1="49.988049%" x2="100.038964%" y2="49.988049%" id="linearGradient-2">
            <stop stop-color="#FCFCFE" offset="0%"></stop>
            <stop stop-color="#C6C6EF" offset="96.99%"></stop>
        </linearGradient>
        <linearGradient x1="50.0050235%" y1="100.096905%" x2="50.0050235%" y2="0.0326190476%" id="linearGradient-3">
            <stop stop-color="#FCFCFE" offset="0%"></stop>
            <stop stop-color="#EDEDFA" offset="100%"></stop>
        </linearGradient>
        <linearGradient x1="0.0335403727%" y1="50.0758621%" x2="99.9717391%" y2="50.0758621%" id="linearGradient-4">
            <stop stop-color="#FCFCFE" offset="0%"></stop>
            <stop stop-color="#C6C6EF" offset="96.99%"></stop>
        </linearGradient>
        <linearGradient x1="49.9965302%" y1="100.006167%" x2="49.9965302%" y2="0%" id="linearGradient-5">
            <stop stop-color="#FCFCFE" offset="0%"></stop>
            <stop stop-color="#EDEDFA" offset="100%"></stop>
        </linearGradient>
        <linearGradient x1="0.0132713755%" y1="49.9981284%" x2="99.9925651%" y2="49.9981284%" id="linearGradient-6">
            <stop stop-color="#FCFCFE" offset="0%"></stop>
            <stop stop-color="#C6C6EF" offset="96.99%"></stop>
        </linearGradient>
        <linearGradient x1="50%" y1="0%" x2="50%" y2="100%" id="linearGradient-7">
            <stop stop-color="#F89BA3" offset="0%"></stop>
            <stop stop-color="#E42642" offset="100%"></stop>
        </linearGradient>
        <linearGradient x1="100%" y1="0%" x2="0%" y2="113.571442%" id="linearGradient-8">
            <stop stop-color="#DD0031" offset="0%"></stop>
            <stop stop-color="#CC0030" offset="65.6988836%"></stop>
            <stop stop-color="#CC0030" offset="65.6988836%"></stop>
            <stop stop-color="#C3002F" offset="100%"></stop>
        </linearGradient>
        <linearGradient x1="50%" y1="-34.2892483%" x2="50%" y2="100%" id="linearGradient-9">
            <stop stop-color="#F89BA3" offset="0%"></stop>
            <stop stop-color="#E42642" offset="100%"></stop>
        </linearGradient>
        <linearGradient x1="0.0198770492%" y1="50.0224932%" x2="99.9040984%" y2="50.0224932%" id="linearGradient-10">
            <stop stop-color="#3D386B" offset="0%"></stop>
            <stop stop-color="#211E39" offset="100%"></stop>
        </linearGradient>
        <linearGradient x1="100%" y1="3.46068469%" x2="0%" y2="100%" id="linearGradient-11">
            <stop stop-color="#DD0031" offset="0%"></stop>
            <stop stop-color="#C3002F" offset="100%"></stop>
        </linearGradient>
        <linearGradient x1="50%" y1="-40.3387611%" x2="50%" y2="100%" id="linearGradient-12">
            <stop stop-color="#F89BA3" offset="0%"></stop>
            <stop stop-color="#E42642" offset="100%"></stop>
        </linearGradient>
        <linearGradient x1="0.0661218425%" y1="50.0076175%" x2="99.9783061%" y2="50.0076175%" id="linearGradient-13">
            <stop stop-color="#3D386B" offset="0%"></stop>
            <stop stop-color="#211E39" offset="100%"></stop>
        </linearGradient>
        <linearGradient x1="50%" y1="0%" x2="36.5052627%" y2="133.970519%" id="linearGradient-14">
            <stop stop-color="#F89BA3" offset="0%"></stop>
            <stop stop-color="#E42642" offset="100%"></stop>
        </linearGradient>
        <linearGradient x1="83.2699697%" y1="-10.2880349%" x2="12.7542849%" y2="161.49113%" id="linearGradient-15">
            <stop stop-color="#DD0031" offset="0%"></stop>
            <stop stop-color="#C3002F" offset="100%"></stop>
        </linearGradient>
        <linearGradient x1="100%" y1="2.34044246%" x2="4.10804429%" y2="95.0607044%" id="linearGradient-16">
            <stop stop-color="#DD0031" offset="0%"></stop>
            <stop stop-color="#C3002F" offset="100%"></stop>
        </linearGradient>
        <linearGradient x1="50%" y1="-65.7961756%" x2="50%" y2="100%" id="linearGradient-17">
            <stop stop-color="#F89BA3" offset="0%"></stop>
            <stop stop-color="#E42642" offset="100%"></stop>
        </linearGradient>
        <linearGradient x1="49.9971028%" y1="-0.870235335%" x2="19.7518958%" y2="122.117363%" id="linearGradient-18">
            <stop stop-color="#DD0031" offset="0%"></stop>
            <stop stop-color="#CC0030" offset="66.6279426%"></stop>
            <stop stop-color="#CC0030" offset="66.6279426%"></stop>
            <stop stop-color="#C3002F" offset="100%"></stop>
        </linearGradient>
        <linearGradient x1="50%" y1="0%" x2="44.4103569%" y2="146.229199%" id="linearGradient-19">
            <stop stop-color="#F89BA3" offset="0%"></stop>
            <stop stop-color="#E42642" offset="100%"></stop>
        </linearGradient>
        <linearGradient x1="90.773847%" y1="-20.3651147%" x2="10.0871926%" y2="163.915216%" id="linearGradient-20">
            <stop stop-color="#DD0031" offset="0%"></stop>
            <stop stop-color="#C3002F" offset="100%"></stop>
        </linearGradient>
        <linearGradient x1="49.9971028%" y1="-0.870235335%" x2="24.8725813%" y2="122.030417%" id="linearGradient-21">
            <stop stop-color="#DD0031" offset="0%"></stop>
            <stop stop-color="#C3002F" offset="100%"></stop>
        </linearGradient>
        <linearGradient x1="50%" y1="0%" x2="46.561939%" y2="118.072953%" id="linearGradient-22">
            <stop stop-color="#F89BA3" offset="0%"></stop>
            <stop stop-color="#E42642" offset="100%"></stop>
        </linearGradient>
        <linearGradient x1="77.000442%" y1="-21.5651404%" x2="7.57727918%" y2="110.636716%" id="linearGradient-23">
            <stop stop-color="#DD0031" offset="0%"></stop>
            <stop stop-color="#C3002F" offset="100%"></stop>
        </linearGradient>
        <linearGradient x1="57.4927923%" y1="-35.6412399%" x2="24.6566895%" y2="116.678875%" id="linearGradient-24">
            <stop stop-color="#E20031" offset="0%"></stop>
            <stop stop-color="#E20031" offset="0%"></stop>
            <stop stop-color="#DD0031" offset="0%"></stop>
            <stop stop-color="#DD0031" offset="0.197097294%"></stop>
            <stop stop-color="#DD0031" offset="0.400493759%"></stop>
            <stop stop-color="#C3002F" offset="100%"></stop>
        </linearGradient>
        <linearGradient x1="49.9971028%" y1="-0.870235335%" x2="49.9971028%" y2="232.445261%" id="linearGradient-25">
            <stop stop-color="#DD0031" offset="0%"></stop>
            <stop stop-color="#C3002F" offset="100%"></stop>
        </linearGradient>
        <linearGradient x1="0.0538216561%" y1="50.2950495%" x2="100.054777%" y2="50.2950495%" id="linearGradient-26">
            <stop stop-color="#FCFCFE" offset="0%"></stop>
            <stop stop-color="#EDEDFA" offset="100%"></stop>
        </linearGradient>
        <linearGradient x1="50.0765101%" y1="100.07395%" x2="50.0765101%" y2="0.163865546%" id="linearGradient-27">
            <stop stop-color="#FCFCFE" offset="0%"></stop>
            <stop stop-color="#C6C6EF" offset="96.99%"></stop>
        </linearGradient>
        <linearGradient x1="0.228125%" y1="49.1047619%" x2="100.676563%" y2="49.1047619%" id="linearGradient-28">
            <stop stop-color="#FCFCFE" offset="0%"></stop>
            <stop stop-color="#EDEDFA" offset="100%"></stop>
        </linearGradient>
        <linearGradient x1="50.7229167%" y1="100.947368%" x2="50.7229167%" y2="-0.128947368%" id="linearGradient-29">
            <stop stop-color="#FCFCFE" offset="0%"></stop>
            <stop stop-color="#C6C6EF" offset="96.99%"></stop>
        </linearGradient>
        <linearGradient x1="60.8699811%" y1="-24.8799336%" x2="60.8699799%" y2="162.225256%" id="linearGradient-30">
            <stop stop-color="#F89BA3" offset="0%"></stop>
            <stop stop-color="#E42642" offset="100%"></stop>
        </linearGradient>
        <linearGradient x1="91.3046775%" y1="0%" x2="4.90714161%" y2="100%" id="linearGradient-31">
            <stop stop-color="#DD0031" offset="0%"></stop>
            <stop stop-color="#C3002F" offset="100%"></stop>
        </linearGradient>
        <linearGradient x1="50%" y1="-46.9020573%" x2="50%" y2="100%" id="linearGradient-32">
            <stop stop-color="#F89BA3" offset="0%"></stop>
            <stop stop-color="#E42642" offset="100%"></stop>
        </linearGradient>
        <linearGradient x1="94.6244518%" y1="4.00150736%" x2="5.02566486%" y2="100%" id="linearGradient-33">
            <stop stop-color="#DD0031" offset="0%"></stop>
            <stop stop-color="#C3002F" offset="100%"></stop>
        </linearGradient>
        <linearGradient x1="50%" y1="-44.5461963%" x2="50%" y2="100%" id="linearGradient-34">
            <stop stop-color="#F89BA3" offset="0%"></stop>
            <stop stop-color="#E42642" offset="100%"></stop>
        </linearGradient>
    </defs>
    <g id="Work-space" stroke="none" stroke-width="1" fill="none" fill-rule="evenodd">
        <g id="Angular" fill-rule="nonzero">
            <g id="server-side-rendering" transform="translate(175.000000, 33.000000)">
                <g id="Group">
                    <g transform="translate(0.000000, 240.361991)" id="Shape">
                        <polygon fill="#15117C" opacity="0.1" points="357.090273 63.0784231 0 176.088398 33.5975601 185.782556 388.695883 70.7806306"></polygon>
                        <g transform="translate(126.156846, 0.000000)">
                            <g>
                                <polygon fill="url(#linearGradient-1)" points="128.81278 0.663983401 0.663983401 41.2997676 9.82695434 43.9557012 137.975751 3.45271369"></polygon>
                                <polygon fill="url(#linearGradient-2)" points="9.82695434 133.460664 137.975751 92.8248795 137.975751 3.45271369 9.82695434 43.9557012"></polygon>
                                <polygon fill="#D7D7F4" points="9.82695434 142.490838 0.663983401 139.834904 0.663983401 41.2997676 9.82695434 43.9557012"></polygon>
                            </g>
                            <g transform="translate(9.295768, 91.629709)">
                                <polygon fill="url(#linearGradient-3)" points="128.547187 0.796780082 0.265593361 41.2997676 41.1669709 56.5713858 169.448564 16.0683983"></polygon>
                                <polygon fill="url(#linearGradient-4)" points="41.1669709 66.1327468 169.448564 25.6297593 169.448564 16.0683983 41.1669709 56.5713858"></polygon>
                                <polygon fill="#D7D7F4" points="41.1669709 66.1327468 0.265593361 50.8611286 0.265593361 41.2997676 41.1669709 56.5713858"></polygon>
                            </g>
                        </g>
                        <polygon fill="#15117C" opacity="0.2" points="273.295568 95.8792032 145.013975 136.382191 168.651784 145.013975 294.80863 103.581411"></polygon>
                    </g>
                    <g id="Shape">
                        <polygon fill="url(#linearGradient-5)" points="357.090273 0 0 112.877178 25.4969626 120.579386 382.720033 7.70220746"></polygon>
                        <polygon fill="url(#linearGradient-6)" points="25.4969626 369.573161 382.720033 256.695983 382.720033 7.70220746 25.4969626 120.579386"></polygon>
                        <polygon fill="#D7D7F4" points="25.4969626 369.573161 0 361.870954 0 112.877178 25.4969626 120.579386"></polygon>
                    </g>
                </g>
                <polygon id="Shape" fill="#15117C" opacity="0.1" points="247.001825 296.136597 311.806605 275.287518 311.806605 198.132647 247.001825 219.114522"></polygon>
                <polygon id="Shape" fill="#15117C" opacity="0.1" points="169.050174 320.172796 233.854954 299.190921 233.854954 222.168846 169.050174 243.017925"></polygon>
                <polygon id="Shape" fill="#15117C" opacity="0.1" points="67.0623235 330.132547 156.434489 301.714058 156.434489 166.261444 67.0623235 194.679933"></polygon>
                <polygon id="Shape" fill="#15117C" opacity="0.1" points="67.4607136 177.549162 311.142622 101.058274 311.142622 48.8691783 67.4607136 125.360066"></polygon>
                <polygon id="Shape" fill="#15117C" opacity="0.1" points="247.001825 209.818755 311.806605 188.836879 311.806605 111.814805 247.001825 132.663884"></polygon>
                <polygon id="Shape" fill="#15117C" opacity="0.1" points="169.050174 233.722157 233.854954 212.873079 233.854954 135.851004 169.050174 156.700083"></polygon>
                <g id="Group" transform="translate(269.577261, 205.834854)">
                    <g id="Shape">
                        <polygon fill="url(#linearGradient-7)" points="65.20317 0.265593361 0.531186721 21.2474688 6.7726307 22.9738257 71.444614 2.12474688"></polygon>
                        <polygon fill="url(#linearGradient-8)" points="6.7726307 99.9959003 71.444614 79.1468215 71.444614 2.12474688 6.7726307 22.9738257"></polygon>
                        <polygon fill="url(#linearGradient-9)" points="6.7726307 99.9959003 0.531186721 98.2695434 0.531186721 21.2474688 6.7726307 22.9738257"></polygon>
                    </g>
                    <g opacity="0.8" transform="translate(13.279668, 5.311867)" id="Shape">
                        <g>
                            <polygon fill="#605E8C" points="65.0703733 0 0.398390041 20.8490788 6.50703733 22.7082323 71.3118173 1.72635684"></polygon>
                            <polygon fill="url(#linearGradient-10)" points="6.50703733 99.7303069 71.3118173 78.8812281 71.3118173 1.72635684 6.50703733 22.7082323"></polygon>
                            <polygon fill="#2C294F" points="6.50703733 99.7303069 0.398390041 97.8711534 0.398390041 20.8490788 6.50703733 22.7082323"></polygon>
                        </g>
                    </g>
                </g>
                <g id="Group" transform="translate(191.227220, 229.738257)">
                    <polygon id="Shape" fill="url(#linearGradient-7)" points="65.7343567 0.398390041 0.929576762 21.2474688 7.17102074 23.1066224 71.843004 2.25754357"></polygon>
                    <polygon id="Shape" fill="url(#linearGradient-11)" points="7.17102074 100.128697 71.843004 79.2796181 71.843004 2.25754357 7.17102074 23.1066224"></polygon>
                    <polygon id="Shape" fill="url(#linearGradient-12)" points="7.17102074 100.128697 0.929576762 98.4023401 0.929576762 21.2474688 7.17102074 23.1066224"></polygon>
                </g>
                <g id="Group" transform="translate(79.678008, 170.979751)">
                    <polygon id="Shape" fill="url(#linearGradient-13)" points="16.599585 168.846954 105.971751 140.428465 105.971751 4.97585061 10.3691285 31.6589211"></polygon>
                    <polygon id="Shape" fill="#605E8C" points="89.9033526 0.195170123 0.531186721 28.6136597 16.599585 33.3943402 105.971751 4.97585061"></polygon>
                    <polygon id="Shape" fill="#2C294F" points="16.599585 168.846954 0.531186721 164.066274 0.531186721 28.6136597 16.599585 33.3943402"></polygon>
                </g>
                <g id="Group" transform="translate(130.140747, 199.195020)">
                    <polygon id="Shape" fill="url(#linearGradient-14)" points="43.8229045 0.13279668 0.398390041 13.9436514 4.38229045 15.2716182 47.8068049 1.3279668"></polygon>
                    <polygon id="Shape" fill="url(#linearGradient-15)" points="4.38229045 20.8490788 47.8068049 6.90542738 47.8068049 1.3279668 4.38229045 15.2716182"></polygon>
                    <polygon id="Shape" fill="url(#linearGradient-7)" points="4.38229045 20.8490788 0.398390041 19.6539087 0.398390041 13.9436514 4.38229045 15.2716182"></polygon>
                </g>
                <g id="Group" transform="translate(79.678008, 53.118672)">
                    <polygon id="Shape" fill="url(#linearGradient-16)" points="16.9979751 134.257444 260.679883 57.6337592 260.679883 5.44466389 9.36912846 80.0199998"></polygon>
                    <polygon id="Shape" fill="url(#linearGradient-7)" points="244.611485 0.929576762 0.929576762 77.4204646 16.9979751 81.9355517 260.679883 5.44466389"></polygon>
                    <g transform="translate(23.903402, 86.317842)" id="Shape" fill="#FFFFFF">
                        <path d="M13.8108548,28.4184896 C10.3581411,29.480863 6.90542738,29.2152697 4.24949377,27.3561161 C-0.929576762,23.7706058 -0.929576762,15.1388216 4.24949377,8.36619086 C9.4285643,1.59356016 18.0603485,-1.06237344 23.2394191,2.52313693 L23.2394191,2.52313693 C28.4184896,6.10864729 28.4184896,14.7404315 23.2394191,21.5130622 C20.7162821,24.9657759 17.2635684,27.3561161 13.8108548,28.4184896 Z M13.8108548,6.63983401 C11.6861079,7.30381742 9.56136098,8.7645809 7.96780082,10.8893278 C4.78068049,15.1388216 4.78068049,20.4506888 7.96780082,22.7082323 C11.1549211,24.9657759 16.4667884,23.3722157 19.7867054,19.122722 C22.9738257,14.8732282 22.9738257,9.56136098 19.7867054,7.30381742 C18.0603485,6.10864729 15.9356016,5.97585061 13.8108548,6.63983401 Z"></path>
                        <path d="M28.4184896,27.6217095 C27.7545062,27.8873029 27.0905228,27.7545062 26.5593361,27.4889128 L20.4506888,23.2394191 C19.521112,22.5754357 19.521112,20.9818755 20.4506888,19.6539087 C21.3802655,18.3259419 23.1066224,17.9275518 24.0361991,18.5915352 L30.1448464,22.841029 C31.0744232,23.5050124 31.0744232,25.0985726 30.1448464,26.4265394 C29.6136597,26.9577261 29.082473,27.3561161 28.4184896,27.6217095 Z"></path>
                    </g>
                    <polygon id="Shape" fill="url(#linearGradient-17)" points="16.9979751 134.257444 0.929576762 129.742357 0.929576762 77.4204646 16.9979751 81.9355517"></polygon>
                </g>
                <g id="Group" transform="translate(107.565311, 207.162821)">
                    <polygon id="Shape" fill="url(#linearGradient-7)" points="15.1388216 0.929576762 0.531186721 5.44466389 4.51508713 6.63983401 18.9899253 2.12474688"></polygon>
                    <polygon id="Shape" fill="url(#linearGradient-18)" points="4.51508713 25.4969626 18.9899253 20.8490788 18.9899253 2.12474688 4.51508713 6.63983401"></polygon>
                    <polygon id="Shape" fill="url(#linearGradient-7)" points="4.51508713 25.4969626 0.531186721 24.3017925 0.531186721 5.44466389 4.51508713 6.63983401"></polygon>
                    <path d="M7.30381742,14.4748382 C7.70220746,13.8108548 8.63178422,13.4124647 9.03017426,13.8108548 L10.7565311,15.0060249 L14.8732282,9.82695434 C15.4044149,9.16297094 16.201195,9.03017426 16.599585,9.4285643 C16.9979751,9.82695434 16.8651784,10.4909377 16.4667884,11.0221245 L11.8189045,16.9979751 C11.2877178,17.7947552 10.2253444,18.0603485 9.69415766,17.6619585 L7.4366141,16.0683983 C7.17102074,15.6700083 7.03822406,15.0060249 7.30381742,14.4748382 Z" id="Shape" fill="#FFFFFF"></path>
                </g>
                <g id="Group" transform="translate(130.140747, 232.394191)">
                    <polygon id="Shape" fill="url(#linearGradient-19)" points="20.8490788 0.265593361 0.398390041 7.03822406 4.38229045 8.23339418 24.8329792 1.46076348"></polygon>
                    <polygon id="Shape" fill="url(#linearGradient-20)" points="4.38229045 13.8108548 24.8329792 7.03822406 24.8329792 1.46076348 4.38229045 8.23339418"></polygon>
                    <polygon id="Shape" fill="url(#linearGradient-7)" points="4.38229045 13.8108548 0.398390041 12.6156846 0.398390041 7.03822406 4.38229045 8.23339418"></polygon>
                </g>
                <g id="Group" transform="translate(107.565311, 233.722157)">
                    <polygon id="Shape" fill="url(#linearGradient-7)" points="15.1388216 0.531186721 0.531186721 5.17907053 4.51508713 6.37424065 18.9899253 1.72635684"></polygon>
                    <polygon id="Shape" fill="url(#linearGradient-21)" points="4.51508713 25.0985726 18.9899253 20.5834854 18.9899253 1.72635684 4.51508713 6.37424065"></polygon>
                    <polygon id="Shape" fill="url(#linearGradient-7)" points="4.51508713 25.0985726 0.531186721 23.9034025 0.531186721 5.17907053 4.51508713 6.37424065"></polygon>
                    <path d="M7.30381742,14.0764481 C7.70220746,13.4124647 8.63178422,13.0140747 9.03017426,13.4124647 L10.7565311,14.6076348 L14.8732282,9.4285643 C15.4044149,8.7645809 16.201195,8.63178422 16.599585,9.03017426 C16.9979751,9.4285643 16.8651784,10.0925477 16.4667884,10.6237344 L11.8189045,16.599585 C11.2877178,17.3963651 10.2253444,17.6619585 9.69415766,17.2635684 L7.4366141,15.6700083 C7.17102074,15.2716182 7.03822406,14.6076348 7.30381742,14.0764481 Z" id="Shape" fill="#FFFFFF"></path>
                </g>
                <g id="Group" transform="translate(130.140747, 254.969626)">
                    <polygon id="Shape" fill="url(#linearGradient-22)" points="31.6056099 0.531186721 0.398390041 10.7565311 4.38229045 11.9517012 35.5895103 1.72635684"></polygon>
                    <polygon id="Shape" fill="url(#linearGradient-23)" points="4.38229045 17.5291618 35.5895103 7.4366141 35.5895103 1.72635684 4.38229045 11.9517012"></polygon>
                    <polygon id="Shape" fill="url(#linearGradient-7)" points="4.38229045 17.5291618 0.398390041 16.3339917 0.398390041 10.7565311 4.38229045 11.9517012"></polygon>
                </g>
                <g id="Group" transform="translate(107.565311, 260.281493)">
                    <polygon id="Shape" fill="url(#linearGradient-7)" points="15.1388216 0.265593361 0.531186721 4.78068049 4.51508713 6.10864729 18.9899253 1.46076348"></polygon>
                    <polygon id="Shape" fill="url(#linearGradient-24)" points="4.51508713 24.8329792 18.9899253 20.1850954 18.9899253 1.46076348 4.51508713 6.10864729"></polygon>
                    <polygon id="Shape" fill="url(#linearGradient-7)" points="4.51508713 24.8329792 0.531186721 23.6378091 0.531186721 4.78068049 4.51508713 6.10864729"></polygon>
                    <path d="M7.30381742,13.8108548 C7.70220746,13.1468713 8.63178422,12.7484813 9.03017426,13.1468713 L10.7565311,14.3420415 L14.8732282,9.16297094 C15.4044149,8.49898754 16.201195,8.36619086 16.599585,8.7645809 C16.9979751,9.16297094 16.8651784,9.82695434 16.4667884,10.3581411 L11.8189045,16.3339917 C11.2877178,17.1307718 10.2253444,17.3963651 9.69415766,16.9979751 L7.4366141,15.4044149 C7.17102074,15.0060249 7.03822406,14.3420415 7.30381742,13.8108548 Z" id="Shape" fill="#FFFFFF"></path>
                </g>
                <g id="Group" transform="translate(107.565311, 276.217095)">
                    <g transform="translate(57.102573, 0.000000)" id="Shape">
                        <g fill="url(#linearGradient-7)">
                            <path d="M0.398390041,10.4909377 C0.398390041,14.4748382 3.18712033,16.599585 6.63983401,15.2716182 C10.0925477,13.9436514 12.881278,9.69415766 12.881278,5.84305393 C12.881278,1.85915352 10.0925477,-0.265593361 6.63983401,1.06237344 C3.18712033,2.25754357 0.398390041,6.50703733 0.398390041,10.4909377 Z"></path>
                            <path d="M1.46076348,10.8893278 C1.46076348,14.8732282 4.24949377,16.9979751 7.70220746,15.6700083 C11.1549211,14.3420415 13.9436514,10.0925477 13.9436514,6.24144397 C13.9436514,2.25754357 11.1549211,0.13279668 7.70220746,1.46076348 C4.24949377,2.78873029 1.46076348,7.03822406 1.46076348,10.8893278 Z"></path>
                            <path d="M2.52313693,11.4205145 C2.52313693,15.4044149 5.31186721,17.5291618 8.7645809,16.201195 C12.2172946,14.8732282 15.0060249,10.6237344 15.0060249,6.7726307 C15.0060249,2.92152697 12.2172946,0.663983401 8.7645809,1.9919502 C5.31186721,3.18712033 2.52313693,7.4366141 2.52313693,11.4205145 Z"></path>
                            <path d="M3.45271369,11.8189045 C3.45271369,15.802805 6.24144397,17.9275518 9.69415766,16.599585 C13.1468713,15.2716182 15.9356016,11.0221245 15.9356016,7.17102074 C15.9356016,3.18712033 13.1468713,1.06237344 9.69415766,2.39034025 C6.24144397,3.71830705 3.45271369,7.83500414 3.45271369,11.8189045 Z"></path>
                        </g>
                        <path d="M3.45271369,11.8189045 C3.45271369,15.802805 6.24144397,17.9275518 9.69415766,16.599585 C13.1468713,15.2716182 15.9356016,11.0221245 15.9356016,7.17102074 C15.9356016,3.18712033 13.1468713,1.06237344 9.69415766,2.39034025 C6.24144397,3.71830705 3.45271369,7.83500414 3.45271369,11.8189045 Z" fill="url(#linearGradient-25)"></path>
                    </g>
                    <g transform="translate(18.263568, 9.295768)" id="Shape">
                        <polygon fill="url(#linearGradient-26)" points="39.7685809 0 0.195170123 12.7484813 2.31991701 13.4124647 41.8933277 0.663983401"></polygon>
                        <polygon fill="url(#linearGradient-27)" points="2.31991701 16.4667884 41.8933277 3.71830705 41.8933277 0.663983401 2.31991701 13.4124647"></polygon>
                        <polygon fill="#4DBA87" points="2.31991701 16.4667884 0.195170123 15.802805 0.195170123 12.7484813 2.31991701 13.4124647"></polygon>
                    </g>
                    <g transform="translate(6.639834, 18.263568)" id="Shape">
                        <g transform="translate(0.000000, 0.000000)" fill="url(#linearGradient-7)">
                            <path d="M0.265593361,9.88932778 C0.265593361,13.8732282 3.05432365,15.9979751 6.50703733,14.6700083 C9.95975102,13.3420415 12.7484813,9.0925477 12.7484813,5.24144397 C12.7484813,1.39034025 9.95975102,-0.86720332 6.50703733,0.460763483 C3.05432365,1.65593361 0.265593361,5.90542738 0.265593361,9.88932778 Z"></path>
                            <path d="M1.3279668,10.2877178 C1.3279668,14.2716182 4.11669709,16.3963651 7.56941078,15.0683983 C11.0221245,13.7404315 13.8108548,9.49093774 13.8108548,5.63983401 C13.8108548,1.65593361 11.0221245,-0.468813279 7.56941078,0.859153524 C4.11669709,2.05432365 1.3279668,6.30381742 1.3279668,10.2877178 Z"></path>
                            <path d="M2.25754357,10.6861079 C2.25754357,14.6700083 5.04627385,16.7947552 8.49898754,15.4667884 C11.9517012,14.1388216 14.7404315,9.88932778 14.7404315,6.03822406 C14.7404315,2.18712033 11.9517012,-0.0704232379 8.49898754,1.25754357 C5.04627385,2.58551037 2.25754357,6.83500414 2.25754357,10.6861079 Z"></path>
                            <path d="M3.31991701,11.2172946 C3.31991701,15.201195 6.10864729,17.3259419 9.56136098,15.9979751 C13.0140747,14.6700083 15.802805,10.4205145 15.802805,6.56941078 C15.802805,2.71830705 13.0140747,0.460763483 9.56136098,1.78873029 C6.10864729,2.98390041 3.31991701,7.23339418 3.31991701,11.2172946 Z"></path>
                        </g>
                        <path d="M3.31991701,11.2172946 C3.31991701,15.201195 6.10864729,17.3259419 9.56136098,15.9979751 C13.0140747,14.6700083 15.802805,10.4205145 15.802805,6.56941078 C15.802805,2.71830705 13.0140747,0.460763483 9.56136098,1.78873029 C6.10864729,2.98390041 3.31991701,7.23339418 3.31991701,11.2172946 Z" fill="url(#linearGradient-25)"></path>
                    </g>
                    <g transform="translate(0.000000, 26.559336)" id="Shape">
                        <polygon fill="url(#linearGradient-28)" points="6.90542738 0.663983401 0.531186721 2.78873029 2.65593361 3.45271369 9.03017426 1.3279668"></polygon>
                        <polygon fill="url(#linearGradient-29)" points="2.65593361 6.37424065 9.03017426 4.38229045 9.03017426 1.3279668 2.65593361 3.45271369"></polygon>
                        <polygon fill="#D7D7F4" points="2.65593361 6.37424065 0.531186721 5.71025725 0.531186721 2.78873029 2.65593361 3.45271369"></polygon>
                    </g>
                </g>
                <g id="Group" transform="translate(269.577261, 119.517012)">
                    <polygon id="Shape" fill="url(#linearGradient-30)" points="65.20317 0.265593361 0.531186721 21.1146722 6.7726307 22.9738257 71.444614 1.9919502"></polygon>
                    <polygon id="Shape" fill="url(#linearGradient-31)" points="6.7726307 99.9959003 71.444614 79.1468215 71.444614 1.9919502 6.7726307 22.9738257"></polygon>
                    <polygon id="Shape" fill="url(#linearGradient-32)" points="6.7726307 99.9959003 0.531186721 98.1367467 0.531186721 21.1146722 6.7726307 22.9738257"></polygon>
                </g>
                <g id="Group" transform="translate(191.227220, 143.420415)">
                    <polygon id="Shape" fill="url(#linearGradient-7)" points="65.7343567 0.398390041 0.929576762 21.2474688 7.17102074 22.9738257 71.843004 2.12474688"></polygon>
                    <polygon id="Shape" fill="url(#linearGradient-33)" points="7.17102074 100.128697 71.843004 79.1468215 71.843004 2.12474688 7.17102074 22.9738257"></polygon>
                    <polygon id="Shape" fill="url(#linearGradient-34)" points="7.17102074 100.128697 0.929576762 98.2695434 0.929576762 21.2474688 7.17102074 22.9738257"></polygon>
                </g>
            </g>
        </g>
    </g>
</svg>