<?xml version="1.0" encoding="UTF-8"?>
<svg width="502px" height="314px" viewBox="0 0 502 314" version="1.1" xmlns="http://www.w3.org/2000/svg" xmlns:xlink="http://www.w3.org/1999/xlink">
    <defs>
        <circle id="path-1" cx="8" cy="9" r="8"></circle>
        <circle id="path-2" cx="8" cy="9" r="8"></circle>
        <circle id="path-3" cx="8" cy="9" r="8"></circle>
        <linearGradient x1="49.9971028%" y1="-0.870235335%" x2="21.1547852%" y2="119.165039%" id="linearGradient-4">
            <stop stop-color="#DD0031" offset="0%"></stop>
            <stop stop-color="#C3002F" offset="100%"></stop>
        </linearGradient>
        <rect id="path-5" x="0" y="0" width="81" height="27" rx="4"></rect>
        <filter x="-2.5%" y="-3.7%" width="104.9%" height="114.8%" filterUnits="objectBoundingBox" id="filter-6">
            <feOffset dx="0" dy="1" in="SourceAlpha" result="shadowOffsetOuter1"></feOffset>
            <feGaussianBlur stdDeviation="0.5" in="shadowOffsetOuter1" result="shadowBlurOuter1"></feGaussianBlur>
            <feComposite in="shadowBlurOuter1" in2="SourceAlpha" operator="out" result="shadowBlurOuter1"></feComposite>
            <feColorMatrix values="0 0 0 0 0.333333333   0 0 0 0 0.376470588   0 0 0 0 0.431372549  0 0 0 0.2 0" type="matrix" in="shadowBlurOuter1"></feColorMatrix>
        </filter>
        <rect id="path-7" x="0" y="1" width="16" height="16" rx="3.2"></rect>
        <rect id="path-8" x="0" y="1" width="16" height="16" rx="3.2"></rect>
        <rect id="path-9" x="0" y="1" width="16" height="16" rx="3.2"></rect>
        <linearGradient x1="79.309082%" y1="0%" x2="7.99560547%" y2="123.431396%" id="linearGradient-10">
            <stop stop-color="#DD0031" offset="0%"></stop>
            <stop stop-color="#C3002F" offset="100%"></stop>
        </linearGradient>
        <linearGradient x1="49.9971028%" y1="-0.870235335%" x2="49.9971028%" y2="232.445261%" id="linearGradient-11">
            <stop stop-color="#DD0031" offset="0%"></stop>
            <stop stop-color="#C3002F" offset="100%"></stop>
        </linearGradient>
        <linearGradient x1="0%" y1="8.49920288%" x2="100%" y2="8.49920288%" id="linearGradient-12">
            <stop stop-color="#201C38" offset="0%"></stop>
            <stop stop-color="#3E396B" offset="100%"></stop>
        </linearGradient>
        <circle id="path-13" cx="51" cy="12" r="9"></circle>
        <filter x="-11.1%" y="-5.6%" width="122.2%" height="122.2%" filterUnits="objectBoundingBox" id="filter-14">
            <feOffset dx="0" dy="1" in="SourceAlpha" result="shadowOffsetOuter1"></feOffset>
            <feGaussianBlur stdDeviation="0.5" in="shadowOffsetOuter1" result="shadowBlurOuter1"></feGaussianBlur>
            <feComposite in="shadowBlurOuter1" in2="SourceAlpha" operator="out" result="shadowBlurOuter1"></feComposite>
            <feColorMatrix values="0 0 0 0 0.333333333   0 0 0 0 0.376470588   0 0 0 0 0.431372549  0 0 0 0.2 0" type="matrix" in="shadowBlurOuter1"></feColorMatrix>
        </filter>
        <circle id="path-15" cx="251" cy="12" r="12"></circle>
        <filter x="-8.3%" y="-4.2%" width="116.7%" height="116.7%" filterUnits="objectBoundingBox" id="filter-16">
            <feOffset dx="0" dy="1" in="SourceAlpha" result="shadowOffsetOuter1"></feOffset>
            <feGaussianBlur stdDeviation="0.5" in="shadowOffsetOuter1" result="shadowBlurOuter1"></feGaussianBlur>
            <feComposite in="shadowBlurOuter1" in2="SourceAlpha" operator="out" result="shadowBlurOuter1"></feComposite>
            <feColorMatrix values="0 0 0 0 0.333333333   0 0 0 0 0.376470588   0 0 0 0 0.431372549  0 0 0 0.2 0" type="matrix" in="shadowBlurOuter1"></feColorMatrix>
        </filter>
    </defs>
    <g id="Work-space" stroke="none" stroke-width="1" fill="none" fill-rule="evenodd">
        <g id="Artboard-9">
            <g id="Group-2" transform="translate(36.000000, 15.000000)">
                <g id="CurrentRefinements" transform="translate(96.000000, 0.000000)">
                    <rect id="Rectangle-2" fill="#C3002F" x="0" y="0" width="100" height="22" rx="4"></rect>
                    <text id="Color:-Black" font-family="OpenSans-SemiBold, Open Sans" font-size="12" font-weight="500" fill="#FFFFFF">
                        <tspan x="8" y="15">Color: Black</tspan>
                    </text>
                    <path d="M88.4711985,10.6463652 L90.9445319,8.17303188 C91.1749485,7.94261521 91.5430319,7.94436521 91.7705319,8.17186521 C91.9997819,8.40111521 91.9980319,8.76919855 91.7705319,8.99728188 L89.2954485,11.4711985 L91.7687819,13.9445319 C91.9991985,14.1749485 91.9974485,14.5430319 91.7699485,14.7705319 C91.5406985,14.9997819 91.1726152,14.9980319 90.9445319,14.7705319 L88.4711985,12.2954485 L85.9978652,14.7687819 C85.7674485,14.9991985 85.3993652,14.9974485 85.1718652,14.7699485 C84.9426152,14.5406985 84.9443652,14.1726152 85.1718652,13.9445319 L87.6469485,11.4711985 L85.1736152,8.99786521 C84.9420319,8.76686521 84.9431985,8.39878188 85.1706985,8.17128188 C85.3999485,7.94203188 85.7680319,7.94378188 85.9961152,8.17128188 L88.4711985,10.6469485 L88.4711985,10.6463652 Z" id="Shape" fill="#FFFFFF"></path>
                </g>
                <g id="ClearAll">
                    <rect id="Rectangle-2" fill="#C3002F" x="0" y="0" width="64" height="22" rx="4"></rect>
                    <text id="Clear-All" font-family="OpenSans-SemiBold, Open Sans" font-size="12" font-weight="500" fill="#FFFFFF">
                        <tspan x="8" y="15">Clear All</tspan>
                    </text>
                </g>
                <g id="Stats" transform="translate(239.000000, 0.000000)" font-size="14" font-family="OpenSans-SemiBold, Open Sans" fill="#697782" opacity="0.600000024" font-weight="500">
                    <text id="Matching-10,000-hits">
                        <tspan x="0.0927734375" y="15">Matching 10,000 hits in 1 ms</tspan>
                    </text>
                </g>
                <g id="MultiRange" transform="translate(0.000000, 54.000000)">
                    <g id="Group-23">
                        <g id="Oval">
                            <use fill="#FFFFFF" fill-rule="evenodd" xlink:href="#path-1"></use>
                            <circle stroke="#D4D8E3" stroke-width="1" cx="8" cy="9" r="7.5"></circle>
                        </g>
                        <text id="&lt;-$10" font-family="OpenSans-SemiBold, Open Sans" font-size="14" font-weight="500" fill="#55606E">
                            <tspan x="24" y="15">&lt; $10</tspan>
                        </text>
                    </g>
                    <g id="Group-20" transform="translate(0.000000, 31.000000)">
                        <g id="Oval-Copy">
                            <use fill="#FFFFFF" fill-rule="evenodd" xlink:href="#path-2"></use>
                            <circle stroke="#D4D8E3" stroke-width="2" cx="8" cy="9" r="7"></circle>
                        </g>
                        <text id="$10---$100" font-family="OpenSans-SemiBold, Open Sans" font-size="14" font-weight="500" fill="#55606E">
                            <tspan x="24" y="15">$10 - $100</tspan>
                        </text>
                    </g>
                    <g id="Group-22" transform="translate(0.000000, 93.000000)">
                        <g id="Oval-Copy-3">
                            <use fill="#FFFFFF" fill-rule="evenodd" xlink:href="#path-3"></use>
                            <circle stroke="#D4D8E3" stroke-width="1" cx="8" cy="9" r="7.5"></circle>
                        </g>
                        <text id="&gt;-$500" font-family="OpenSans-SemiBold, Open Sans" font-size="14" font-weight="500" fill="#55606E">
                            <tspan x="24" y="15">&gt; $500</tspan>
                        </text>
                    </g>
                    <g id="Group-21" transform="translate(0.000000, 62.000000)">
                        <g id="Group-14" transform="translate(0.000000, 1.000000)">
                            <circle id="Oval-Copy-2" fill="url(#linearGradient-4)" cx="8" cy="8" r="8"></circle>
                            <polyline id="Path-4" stroke="#FFFFFF" stroke-width="1.6" stroke-linecap="round" stroke-linejoin="round" points="4 9.44267137 6.36426678 12 12 6"></polyline>
                        </g>
                        <text id="$100---$500" font-family="OpenSans-SemiBold, Open Sans" font-size="14" font-weight="500" fill="#3E396B">
                            <tspan x="24" y="15">$100 - $500</tspan>
                        </text>
                    </g>
                    <g id="Group-24" transform="translate(0.000000, 128.000000)">
                        <g id="Rectangle-12">
                            <use fill="black" fill-opacity="1" filter="url(#filter-6)" xlink:href="#path-5"></use>
                            <use fill="#FFFFFF" fill-rule="evenodd" xlink:href="#path-5"></use>
                            <rect stroke="#D4D8E3" stroke-width="1" x="0.5" y="0.5" width="80" height="26" rx="4"></rect>
                        </g>
                        <text id="Show-More" font-family="OpenSans-SemiBold, Open Sans" font-size="12" font-weight="500" fill="#697782">
                            <tspan x="8.26171875" y="18">Show More</tspan>
                        </text>
                    </g>
                </g>
                <g id="RefinementList" transform="translate(143.000000, 54.000000)">
                    <g id="Group-15">
                        <g id="Rectangle-5">
                            <use fill="#FFFFFF" fill-rule="evenodd" xlink:href="#path-7"></use>
                            <rect stroke="#D4D8E3" stroke-width="1" x="0.5" y="1.5" width="15" height="15" rx="3.2"></rect>
                        </g>
                        <text id="White" font-family="OpenSans-SemiBold, Open Sans" font-size="14" font-weight="500" fill="#55606E">
                            <tspan x="24" y="15">White</tspan>
                        </text>
                    </g>
                    <g id="Group-17" transform="translate(0.000000, 31.000000)">
                        <g id="Rectangle-5-Copy">
                            <use fill="#FFFFFF" fill-rule="evenodd" xlink:href="#path-8"></use>
                            <rect stroke="#D4D8E3" stroke-width="2" x="1" y="2" width="14" height="14" rx="3.2"></rect>
                        </g>
                        <text id="Black" font-family="OpenSans-SemiBold, Open Sans" font-size="14" font-weight="500" fill="#55606E">
                            <tspan x="24" y="15">Black</tspan>
                        </text>
                    </g>
                    <g id="Group-19" transform="translate(0.000000, 93.000000)">
                        <g id="Rectangle-5-Copy-3">
                            <use fill="#FFFFFF" fill-rule="evenodd" xlink:href="#path-9"></use>
                            <rect stroke="#D4D8E3" stroke-width="1" x="0.5" y="1.5" width="15" height="15" rx="3.2"></rect>
                        </g>
                        <text id="Gray" font-family="OpenSans-SemiBold, Open Sans" font-size="14" font-weight="500" fill="#55606E">
                            <tspan x="24" y="15">Gray</tspan>
                        </text>
                    </g>
                    <g id="Group-18" transform="translate(0.000000, 62.000000)">
                        <g id="Group-6" transform="translate(0.000000, 1.000000)">
                            <rect id="Rectangle-5-Copy-2" fill="url(#linearGradient-10)" x="0" y="0" width="16" height="16" rx="3.2"></rect>
                            <polyline id="Path-4" stroke="#FFFFFF" stroke-width="1.6" stroke-linecap="round" stroke-linejoin="round" points="4 8.87899076 6.3778368 11.3147321 12.0459171 5.6"></polyline>
                        </g>
                        <text id="Pink" font-family="OpenSans-SemiBold, Open Sans" font-size="14" font-weight="500" fill="#3E396B">
                            <tspan x="24" y="15">Pink</tspan>
                        </text>
                    </g>
                </g>
                <g id="RangeRatings" transform="translate(243.000000, 54.000000)">
                    <g id="Group-13" transform="translate(0.000000, 32.000000)">
                        <g id="Group-8" transform="translate(0.000000, 1.000000)">
                            <polygon id="Shape-Copy-10" fill="url(#linearGradient-11)" points="79.8421053 6.09684211 73.7873684 5.57473684 71.4210526 0 69.0547368 5.58315789 63 6.09684211 67.5978947 10.08 66.2168421 16 71.4210526 12.8589474 76.6252632 16 75.2526316 10.08"></polygon>
                            <polygon id="Shape-Copy-10" fill="url(#linearGradient-11)" points="58.8421053 6.09684211 52.7873684 5.57473684 50.4210526 0 48.0547368 5.58315789 42 6.09684211 46.5978947 10.08 45.2168421 16 50.4210526 12.8589474 55.6252632 16 54.2526316 10.08"></polygon>
                            <polygon id="Shape-Copy-10" fill="url(#linearGradient-11)" points="37.8421053 6.09684211 31.7873684 5.57473684 29.4210526 0 27.0547368 5.58315789 21 6.09684211 25.5978947 10.08 24.2168421 16 29.4210526 12.8589474 34.6252632 16 33.2526316 10.08"></polygon>
                            <polygon id="Shape-Copy-10" fill="url(#linearGradient-11)" points="10.7873684 5.57473684 8.42105263 0 6.05473684 5.58315789 0 6.09684211 4.59789474 10.08 3.21684211 16 8.42105263 12.8589474 13.6252632 16 12.2526316 10.08 16.8421053 6.09684211"></polygon>
                            <polygon id="Shape-Copy-10" fill="#BFC7D8" opacity="0.5" points="99.8421053 6.09684211 93.7873684 5.57473684 91.4210526 0 89.0547368 5.58315789 83 6.09684211 87.5978947 10.08 86.2168421 16 91.4210526 12.8589474 96.6252632 16 95.2526316 10.08"></polygon>
                        </g>
                        <text id="&amp;-Up" font-family="OpenSans-SemiBold, Open Sans" font-size="14" font-weight="500" fill="#55606E">
                            <tspan x="104" y="15">&amp; Up</tspan>
                        </text>
                        <text id="(1-250)" opacity="0.400000006" font-family="OpenSans-SemiBold, Open Sans" font-size="14" font-weight="500" fill="#55606E">
                            <tspan x="142" y="15">(1 250)</tspan>
                        </text>
                    </g>
                    <g id="Group-13-Copy">
                        <g id="Group-8" transform="translate(0.000000, 1.000000)" fill="url(#linearGradient-11)">
                            <polygon id="Shape-Copy-10" points="79.8421053 6.09684211 73.7873684 5.57473684 71.4210526 0 69.0547368 5.58315789 63 6.09684211 67.5978947 10.08 66.2168421 16 71.4210526 12.8589474 76.6252632 16 75.2526316 10.08"></polygon>
                            <polygon id="Shape-Copy-10-Copy-7" points="99.8421053 6.09684211 93.7873684 5.57473684 91.4210526 0 89.0547368 5.58315789 83 6.09684211 87.5978947 10.08 86.2168421 16 91.4210526 12.8589474 96.6252632 16 95.2526316 10.08"></polygon>
                            <polygon id="Shape-Copy-10" points="58.8421053 6.09684211 52.7873684 5.57473684 50.4210526 0 48.0547368 5.58315789 42 6.09684211 46.5978947 10.08 45.2168421 16 50.4210526 12.8589474 55.6252632 16 54.2526316 10.08"></polygon>
                            <polygon id="Shape-Copy-10" points="37.8421053 6.09684211 31.7873684 5.57473684 29.4210526 0 27.0547368 5.58315789 21 6.09684211 25.5978947 10.08 24.2168421 16 29.4210526 12.8589474 34.6252632 16 33.2526316 10.08"></polygon>
                            <polygon id="Shape-Copy-10" points="16.8421053 6.09684211 10.7873684 5.57473684 8.42105263 0 6.05473684 5.58315789 0 6.09684211 4.59789474 10.08 3.21684211 16 8.42105263 12.8589474 13.6252632 16 12.2526316 10.08"></polygon>
                        </g>
                        <text id="(345)" opacity="0.400000006" font-family="OpenSans-SemiBold, Open Sans" font-size="14" font-weight="500" fill="#55606E">
                            <tspan x="104" y="15">(345)</tspan>
                        </text>
                    </g>
                    <g id="Group-12" transform="translate(0.000000, 64.000000)">
                        <g id="Group-8-Copy" transform="translate(0.000000, 1.000000)">
                            <polygon id="Shape-Copy-10" fill="url(#linearGradient-11)" points="58.8421053 6.09684211 52.7873684 5.57473684 50.4210526 0 48.0547368 5.58315789 42 6.09684211 46.5978947 10.08 45.2168421 16 50.4210526 12.8589474 55.6252632 16 54.2526316 10.08"></polygon>
                            <polygon id="Shape-Copy-10" fill="url(#linearGradient-11)" points="37.8421053 6.09684211 31.7873684 5.57473684 29.4210526 0 27.0547368 5.58315789 21 6.09684211 25.5978947 10.08 24.2168421 16 29.4210526 12.8589474 34.6252632 16 33.2526316 10.08"></polygon>
                            <polygon id="Shape-Copy-10" fill="url(#linearGradient-11)" points="16.8421053 6.09684211 10.7873684 5.57473684 8.42105263 0 6.05473684 5.58315789 0 6.09684211 4.59789474 10.08 3.21684211 16 8.42105263 12.8589474 13.6252632 16 12.2526316 10.08"></polygon>
                            <polygon id="Shape-Copy-10" fill="#BFC7D8" opacity="0.5" points="99.8421053 6.09684211 93.7873684 5.57473684 91.4210526 0 89.0547368 5.58315789 83 6.09684211 87.5978947 10.08 86.2168421 16 91.4210526 12.8589474 96.6252632 16 95.2526316 10.08"></polygon>
                            <polygon id="Shape-Copy-10-Copy-6" fill="#BFC7D8" opacity="0.5" points="79.8421053 6.09684211 73.7873684 5.57473684 71.4210526 0 69.0547368 5.58315789 63 6.09684211 67.5978947 10.08 66.2168421 16 71.4210526 12.8589474 76.6252632 16 75.2526316 10.08"></polygon>
                        </g>
                        <text id="&amp;-Up" font-family="OpenSans-SemiBold, Open Sans" font-size="14" font-weight="500" fill="#55606E">
                            <tspan x="104" y="15">&amp; Up</tspan>
                        </text>
                        <text id="(3-761)" opacity="0.400000006" font-family="OpenSans-SemiBold, Open Sans" font-size="14" font-weight="500" fill="#55606E">
                            <tspan x="142" y="15">(3 761)</tspan>
                        </text>
                    </g>
                    <g id="Group-11" transform="translate(0.000000, 96.000000)">
                        <g id="Group-8-Copy-2" transform="translate(0.000000, 1.000000)">
                            <polygon id="Shape-Copy-10" fill="url(#linearGradient-11)" points="37.8421053 6.09684211 31.7873684 5.57473684 29.4210526 0 27.0547368 5.58315789 21 6.09684211 25.5978947 10.08 24.2168421 16 29.4210526 12.8589474 34.6252632 16 33.2526316 10.08"></polygon>
                            <polygon id="Shape-Copy-10" fill="url(#linearGradient-11)" points="16.8421053 6.09684211 10.7873684 5.57473684 8.42105263 0 6.05473684 5.58315789 0 6.09684211 4.59789474 10.08 3.21684211 16 8.42105263 12.8589474 13.6252632 16 12.2526316 10.08"></polygon>
                            <polygon id="Shape-Copy-10" fill="#BFC7D8" opacity="0.5" points="99.8421053 6.09684211 93.7873684 5.57473684 91.4210526 0 89.0547368 5.58315789 83 6.09684211 87.5978947 10.08 86.2168421 16 91.4210526 12.8589474 96.6252632 16 95.2526316 10.08"></polygon>
                            <polygon id="Shape-Copy-10-Copy-4" fill="#BFC7D8" opacity="0.5" points="79.8421053 6.09684211 73.7873684 5.57473684 71.4210526 0 69.0547368 5.58315789 63 6.09684211 67.5978947 10.08 66.2168421 16 71.4210526 12.8589474 76.6252632 16 75.2526316 10.08"></polygon>
                            <polygon id="Shape-Copy-10-Copy-5" fill="#BFC7D8" opacity="0.5" points="58.8421053 6.09684211 52.7873684 5.57473684 50.4210526 0 48.0547368 5.58315789 42 6.09684211 46.5978947 10.08 45.2168421 16 50.4210526 12.8589474 55.6252632 16 54.2526316 10.08"></polygon>
                        </g>
                        <text id="&amp;-Up" font-family="OpenSans-SemiBold, Open Sans" font-size="14" font-weight="500" fill="#55606E">
                            <tspan x="104" y="15">&amp; Up</tspan>
                        </text>
                        <text id="(4-956)" opacity="0.400000006" font-family="OpenSans-SemiBold, Open Sans" font-size="14" font-weight="500" fill="#55606E">
                            <tspan x="142" y="15">(4 956)</tspan>
                        </text>
                    </g>
                    <g id="Group-10" transform="translate(0.000000, 128.000000)">
                        <g id="Group-8-Copy-3" transform="translate(0.000000, 1.000000)">
                            <polygon id="Shape-Copy-10" fill="url(#linearGradient-11)" points="16.8421053 6.09684211 10.7873684 5.57473684 8.42105263 0 6.05473684 5.58315789 0 6.09684211 4.59789474 10.08 3.21684211 16 8.42105263 12.8589474 13.6252632 16 12.2526316 10.08"></polygon>
                            <polygon id="Shape-Copy-10" fill="#BFC7D8" opacity="0.5" points="99.8421053 6.09684211 93.7873684 5.57473684 91.4210526 0 89.0547368 5.58315789 83 6.09684211 87.5978947 10.08 86.2168421 16 91.4210526 12.8589474 96.6252632 16 95.2526316 10.08"></polygon>
                            <polygon id="Shape-Copy-10-Copy" fill="#BFC7D8" opacity="0.5" points="79.8421053 6.09684211 73.7873684 5.57473684 71.4210526 0 69.0547368 5.58315789 63 6.09684211 67.5978947 10.08 66.2168421 16 71.4210526 12.8589474 76.6252632 16 75.2526316 10.08"></polygon>
                            <polygon id="Shape-Copy-10-Copy-2" fill="#BFC7D8" opacity="0.5" points="58.8421053 6.09684211 52.7873684 5.57473684 50.4210526 0 48.0547368 5.58315789 42 6.09684211 46.5978947 10.08 45.2168421 16 50.4210526 12.8589474 55.6252632 16 54.2526316 10.08"></polygon>
                            <polygon id="Shape-Copy-10-Copy-3" fill="#BFC7D8" opacity="0.5" points="37.8421053 6.09684211 31.7873684 5.57473684 29.4210526 0 27.0547368 5.58315789 21 6.09684211 25.5978947 10.08 24.2168421 16 29.4210526 12.8589474 34.6252632 16 33.2526316 10.08"></polygon>
                        </g>
                        <text id="&amp;-Up" font-family="OpenSans-SemiBold, Open Sans" font-size="14" font-weight="500" fill="#3E396B">
                            <tspan x="104" y="15">&amp; Up</tspan>
                        </text>
                        <text id="(6-168)" opacity="0.400000006" font-family="OpenSans-SemiBold, Open Sans" font-size="14" font-weight="500" fill="#DD0031">
                            <tspan x="142" y="15">(6 168)</tspan>
                        </text>
                    </g>
                </g>
                <g id="RangeSlider" transform="translate(0.000000, 232.000000)">
                    <rect id="Rectangle-6" fill="#D4D8E3" x="0" y="11" width="430" height="2"></rect>
                    <rect id="Rectangle-6-Copy" fill="url(#linearGradient-12)" x="50" y="10" width="207" height="4"></rect>
                    <g id="Oval-5">
                        <use fill="black" fill-opacity="1" filter="url(#filter-14)" xlink:href="#path-13"></use>
                        <use fill="#FFFFFF" fill-rule="evenodd" xlink:href="#path-13"></use>
                        <circle stroke="#D4D8E3" stroke-width="0.75" cx="51" cy="12" r="8.625"></circle>
                    </g>
                    <text id="10" font-family="OpenSans-SemiBold, Open Sans" font-size="14" font-weight="500" fill="#697782">
                        <tspan x="42.5087891" y="45">10</tspan>
                    </text>
                    <text id="100" font-family="OpenSans-SemiBold, Open Sans" font-size="14" font-weight="500" fill="#3E396B">
                        <tspan x="238" y="45">100</tspan>
                    </text>
                    <g id="Oval-5-Copy">
                        <use fill="black" fill-opacity="1" filter="url(#filter-16)" xlink:href="#path-15"></use>
                        <use fill="#FFFFFF" fill-rule="evenodd" xlink:href="#path-15"></use>
                        <circle stroke="#D4D8E3" stroke-width="1" cx="251" cy="12" r="11.5"></circle>
                    </g>
                </g>
            </g>
        </g>
    </g>
</svg>