<?xml version="1.0" encoding="UTF-8"?>
<svg width="492px" height="499px" viewBox="0 0 492 499" version="1.1" xmlns="http://www.w3.org/2000/svg" xmlns:xlink="http://www.w3.org/1999/xlink">
    <!-- Generator: Sketch 48.2 (47327) - http://www.bohemiancoding.com/sketch -->
    <title>InstantSearch-Angular-medal-2d2758706487e9c4e862977a7aa1e9d1</title>
    <desc>Created with Sketch.</desc>
    <defs>
        <rect id="path-1" x="0" y="0" width="375.790951" height="369.872984" rx="56.2206935"></rect>
        <filter x="-25.4%" y="-22.0%" width="150.8%" height="151.6%" filterUnits="objectBoundingBox" id="filter-2">
            <feOffset dx="0" dy="14" in="SourceAlpha" result="shadowOffsetOuter1"></feOffset>
            <feGaussianBlur stdDeviation="29.5" in="shadowOffsetOuter1" result="shadowBlurOuter1"></feGaussianBlur>
            <feColorMatrix values="0 0 0 0 0.440703533   0 0 0 0 0.503310129   0 0 0 0 0.68486926  0 0 0 0.384454257 0" type="matrix" in="shadowBlurOuter1"></feColorMatrix>
        </filter>
        <filter x="-17.6%" y="-14.1%" width="135.1%" height="135.7%" filterUnits="objectBoundingBox" id="filter-3">
            <feOffset dx="0" dy="-14" in="SourceAlpha" result="shadowOffsetInner1"></feOffset>
            <feComposite in="shadowOffsetInner1" in2="SourceAlpha" operator="arithmetic" k2="-1" k3="1" result="shadowInnerInner1"></feComposite>
            <feColorMatrix values="0 0 0 0 0.403921569   0 0 0 0 0.458823529   0 0 0 0 0.631372549  0 0 0 0.06 0" type="matrix" in="shadowInnerInner1"></feColorMatrix>
        </filter>
        <linearGradient x1="50%" y1="0%" x2="50%" y2="100%" id="linearGradient-4">
            <stop stop-color="#E3005C" offset="0%"></stop>
            <stop stop-color="#C3002F" offset="100%"></stop>
        </linearGradient>
        <linearGradient x1="42.3814108%" y1="121.561%" x2="57.5841626%" y2="8.499%" id="linearGradient-5">
            <stop stop-color="#201C38" offset="0%"></stop>
            <stop stop-color="#3E396B" offset="100%"></stop>
        </linearGradient>
    </defs>
    <g id="OG-Image-Angular" stroke="none" stroke-width="1" fill="none" fill-rule="evenodd" transform="translate(-356.000000, -62.000000)">
        <g id="InstantSearch-Angular-medal-2d2758706487e9c4e862977a7aa1e9d1" transform="translate(414.000000, 62.000000)">
            <g id="b-link" transform="translate(0.000000, 56.220694)" fill-rule="nonzero">
                <g id="b">
                    <use fill="black" fill-opacity="1" filter="url(#filter-2)" xlink:href="#path-1"></use>
                    <use fill="#FFFFFF" fill-rule="evenodd" xlink:href="#path-1"></use>
                    <use fill="black" fill-opacity="1" filter="url(#filter-3)" xlink:href="#path-1"></use>
                </g>
            </g>
            <circle id="Oval" fill="#3E396B" fill-rule="nonzero" cx="375.790951" cy="54.7412016" r="51.7822177"></circle>
            <path d="M376.530697,110.961895 C407.170975,110.961895 432.011645,86.1212255 432.011645,55.4809476 C432.011645,24.8406696 407.170975,0 376.530697,0 C345.890419,0 321.04975,24.8406696 321.04975,55.4809476 C321.04975,86.1212255 345.890419,110.961895 376.530697,110.961895 Z" id="Shape" fill="url(#linearGradient-4)" fill-rule="nonzero"></path>
            <path d="M187.007781,185.528289 C189.966764,185.528289 192.777799,184.936492 195.588834,184.048797 L200.323208,192.186002 L203.57809,197.808072 C204.465785,199.435513 206.093227,200.323208 207.868617,200.323208 C208.756312,200.323208 209.496058,200.175259 210.383753,199.731411 C212.75094,198.399868 213.490686,195.292935 212.159143,192.925748 L208.904261,187.303679 L204.169887,179.018524 C209.644007,174.28415 213.194788,167.182589 213.194788,159.341281 C213.194788,144.99021 201.506802,133.302223 187.15573,133.302223 C172.804658,133.302223 160.968722,144.99021 160.968722,159.489231 C160.968722,173.988252 172.656709,185.528289 187.007781,185.528289 Z M187.007781,143.214819 C195.884732,143.214819 203.134243,150.46433 203.134243,159.341281 C203.134243,168.218233 195.884732,175.467743 187.007781,175.467743 C178.130829,175.467743 170.881318,168.218233 170.881318,159.341281 C170.881318,150.46433 178.130829,143.214819 187.007781,143.214819 Z" id="Shape" fill="url(#linearGradient-4)" fill-rule="nonzero"></path>
            <path d="M225.326622,199.435513 C212.602991,199.435513 202.098598,208.608363 199.731411,220.592247 L183.900847,220.592247 C181.237762,220.592247 179.018524,222.811485 179.018524,225.474571 C179.018524,228.137656 181.237762,230.356894 183.900847,230.356894 L199.731411,230.356894 C202.098598,242.340779 212.602991,251.513629 225.326622,251.513629 C239.677693,251.513629 251.36568,239.825643 251.36568,225.474571 C251.36568,211.123499 239.677693,199.435513 225.326622,199.435513 Z M225.326622,241.748982 C216.44967,241.748982 209.20016,234.499472 209.20016,225.62252 C209.20016,216.745568 216.44967,209.496058 225.326622,209.496058 C234.203573,209.496058 241.453084,216.745568 241.453084,225.62252 C241.453084,234.499472 234.203573,241.748982 225.326622,241.748982 Z M165.998995,205.945277 C171.473115,210.679652 175.023896,217.633264 174.875947,225.62252 C174.875947,239.973592 163.18796,251.661578 148.836889,251.661578 C134.485817,251.661578 122.797831,240.121541 122.797831,225.62252 C122.797831,211.123499 134.485817,199.435513 148.836889,199.435513 C151.943822,199.435513 154.754856,200.02731 157.417942,200.915005 L162.152316,192.777799 L165.407198,187.15573 C166.88669,184.788543 169.845674,184.048797 172.212861,185.380339 C174.580048,186.859831 175.319794,189.818815 173.988252,192.186002 L170.733369,197.808072 L165.998995,205.945277 Z M148.836889,241.748982 C157.861789,241.748982 165.1113,234.499472 164.963351,225.62252 C164.963351,216.745568 157.71384,209.496058 148.836889,209.496058 C139.959937,209.496058 132.710427,216.745568 132.710427,225.62252 C132.710427,234.499472 139.959937,241.748982 148.836889,241.748982 Z" id="Shape" fill="url(#linearGradient-5)" fill-rule="nonzero"></path>
            <g id="Group" transform="translate(63.659169, 289.582960)" fill="#3E396B">
                <path d="M0.675057966,2.1445355 L6.42732261,2.1445355 L6.42732261,27 L0.675057966,27 L0.675057966,2.1445355 Z M23.5420853,7.61273769 C25.9092842,7.61273769 27.8207687,8.32288671 29.276596,9.74320607 C30.7324234,11.1635254 31.4603261,13.2703009 31.4603261,16.0635956 L31.4603261,27 L25.9211083,27 L25.9211083,16.915783 C25.9211083,15.4007757 25.5897055,14.2704551 24.9268898,13.5247875 C24.2640741,12.7791198 23.3053729,12.4062916 22.0507574,12.4062916 C20.6541101,12.4062916 19.5415433,12.8382989 18.7130236,13.7023265 C17.884504,14.5663541 17.4702504,15.8505403 17.4702504,17.5549235 L17.4702504,27 L11.9310326,27 L11.9310326,7.89680014 L17.2216958,7.89680014 L17.2216958,10.1337919 C17.9555274,9.32894431 18.8668854,8.70756391 19.9557969,8.26963211 C21.0447084,7.8317003 22.2401259,7.61273769 23.5420853,7.61273769 Z M42.8938398,27.2840625 C41.3078165,27.2840625 39.7573245,27.0887715 38.2423172,26.6981836 C36.7273099,26.3075958 35.5200565,25.8164094 34.6205209,25.2246097 L36.4669269,21.2477354 C37.3191185,21.7921911 38.3488346,22.2360343 39.556106,22.5792781 C40.7633775,22.9225219 41.9469592,23.0941413 43.1068867,23.0941413 C45.4504136,23.0941413 46.6221595,22.5141863 46.6221595,21.3542588 C46.6221595,20.809803 46.3025924,20.4192211 45.6634487,20.1825012 C45.024305,19.9457813 44.0419322,19.7445724 42.7163008,19.5788685 C41.1539495,19.3421486 39.8638454,19.0699248 38.8459499,18.7621889 C37.8280543,18.454453 36.946286,17.9100055 36.2006183,17.1288298 C35.4549506,16.3476542 35.0821224,15.2350874 35.0821224,13.791096 C35.0821224,12.5838246 35.431279,11.5126831 36.1296027,10.5776395 C36.8279264,9.64259595 37.8458066,8.91469319 39.183274,8.39390943 C40.5207414,7.87312566 42.100823,7.61273769 43.9235662,7.61273769 C45.2728696,7.61273769 46.6162348,7.7606854 47.9537022,8.05658527 C49.2911696,8.35248513 50.3978185,8.76082082 51.2736821,9.28160459 L49.4272762,13.2229711 C47.746565,12.2760915 45.9120133,11.8026588 43.9235662,11.8026588 C42.7399667,11.8026588 41.8522805,11.9683603 41.2604807,12.2997681 C40.668681,12.631176 40.3727856,13.0572654 40.3727856,13.5780492 C40.3727856,14.1698489 40.6923526,14.5841025 41.3314963,14.8208224 C41.97064,15.0575423 42.9885203,15.2824228 44.3851677,15.4954707 C45.947519,15.7558626 47.2257872,16.0340043 48.2200108,16.3299042 C49.2142343,16.625804 50.078249,17.1643337 50.8120807,17.9455094 C51.5459123,18.726685 51.9128226,19.8155802 51.9128226,21.2122276 C51.9128226,22.395827 51.5577481,23.4492147 50.8475885,24.3724223 C50.1374288,25.2956299 49.1017948,26.0116968 47.7406554,26.5206446 C46.379516,27.0295924 44.763927,27.2840625 42.8938398,27.2840625 Z M67.6427809,26.076797 C67.0983251,26.4792209 66.4296015,26.7810342 65.6365898,26.9822461 C64.8435782,27.183458 64.0091531,27.2840625 63.1332895,27.2840625 C60.8607785,27.2840625 59.1031597,26.7041074 57.8603802,25.5441799 C56.6176008,24.3842525 55.9962204,22.6798948 55.9962204,20.4310558 L55.9962204,12.5838306 L53.0490725,12.5838306 L53.0490725,8.32289382 L55.9962204,8.32289382 L55.9962204,3.67137117 L61.5354382,3.67137117 L61.5354382,8.32289382 L66.2934843,8.32289382 L66.2934843,12.5838306 L61.5354382,12.5838306 L61.5354382,20.3600402 C61.5354382,21.1648878 61.742565,21.7862682 62.1568248,22.2242 C62.5710846,22.6621318 63.1569576,22.8810945 63.9144612,22.8810945 C64.7903248,22.8810945 65.5359813,22.6443781 66.151453,22.1709383 L67.6427809,26.076797 Z M78.4726619,7.61273769 C81.4316605,7.61273769 83.7041374,8.31696881 85.2901607,9.72545217 C86.876184,11.1339355 87.6691837,13.2584647 87.6691837,16.0991034 L87.6691837,27 L82.485044,27 L82.485044,24.620977 C81.4434765,26.3963762 79.5024025,27.2840625 76.6617637,27.2840625 C75.1941004,27.2840625 73.9217501,27.0355103 72.8446745,26.5383985 C71.767599,26.0412867 70.9450097,25.3548093 70.376882,24.4789457 C69.8087543,23.6030821 69.5246946,22.6088735 69.5246946,21.49629 C69.5246946,19.7208908 70.1934183,18.3242644 71.5308857,17.3063688 C72.8683531,16.2884733 74.9337032,15.7795332 77.7269979,15.7795332 L82.1299659,15.7795332 C82.1299659,14.5722617 81.7630556,13.6431501 81.0292239,12.9921704 C80.2953923,12.3411907 79.1946613,12.0157057 77.7269979,12.0157057 C76.7091024,12.0157057 75.7089758,12.1754892 74.7265883,12.4950611 C73.7442007,12.8146329 72.9097756,13.2466403 72.2232879,13.791096 L70.2348508,9.92074511 C71.2764183,9.18691344 72.525097,8.61879421 73.9809243,8.2163704 C75.4367517,7.81394658 76.9339826,7.61273769 78.4726619,7.61273769 Z M78.0465682,23.5557428 C78.9934478,23.5557428 79.8337908,23.3367802 80.5676224,22.8988484 C81.3014541,22.4609166 81.8222301,21.8158645 82.1299659,20.9636729 L82.1299659,19.0107436 L78.3306306,19.0107436 C76.0581197,19.0107436 74.9218812,19.7564 74.9218812,21.2477354 C74.9218812,21.957895 75.2000229,22.5200964 75.7563147,22.9343562 C76.3126064,23.348616 77.0760166,23.5557428 78.0465682,23.5557428 Z M104.286837,7.61273769 C106.654036,7.61273769 108.565521,8.32288671 110.021348,9.74320607 C111.477175,11.1635254 112.205078,13.2703009 112.205078,16.0635956 L112.205078,27 L106.66586,27 L106.66586,16.915783 C106.66586,15.4007757 106.334457,14.2704551 105.671642,13.5247875 C105.008826,12.7791198 104.050125,12.4062916 102.795509,12.4062916 C101.398862,12.4062916 100.286295,12.8382989 99.4577755,13.7023265 C98.6292558,14.5663541 98.2150022,15.8505403 98.2150022,17.5549235 L98.2150022,27 L92.6757844,27 L92.6757844,7.89680014 L97.9664476,7.89680014 L97.9664476,10.1337919 C98.7002793,9.32894431 99.6116372,8.70756391 100.700549,8.26963211 C101.78946,7.8317003 102.984878,7.61273769 104.286837,7.61273769 Z M129.532888,26.076797 C128.988432,26.4792209 128.319708,26.7810342 127.526696,26.9822461 C126.733685,27.183458 125.89926,27.2840625 125.023396,27.2840625 C122.750885,27.2840625 120.993266,26.7041074 119.750487,25.5441799 C118.507707,24.3842525 117.886327,22.6798948 117.886327,20.4310558 L117.886327,12.5838306 L114.939179,12.5838306 L114.939179,8.32289382 L117.886327,8.32289382 L117.886327,3.67137117 L123.425545,3.67137117 L123.425545,8.32289382 L128.183591,8.32289382 L128.183591,12.5838306 L123.425545,12.5838306 L123.425545,20.3600402 C123.425545,21.1648878 123.632672,21.7862682 124.046931,22.2242 C124.461191,22.6621318 125.047064,22.8810945 125.804568,22.8810945 C126.680431,22.8810945 127.426088,22.6443781 128.04156,22.1709383 L129.532888,26.076797 Z M141.214956,27.4260937 C139.250181,27.4260937 137.350532,27.1597878 135.515953,26.627168 C133.681374,26.0945483 132.207814,25.402153 131.095231,24.5499614 L133.04816,20.218009 C134.1134,20.9991846 135.379832,21.6264829 136.847496,22.0999227 C138.315159,22.5733625 139.7828,22.8100788 141.250464,22.8100788 C142.883831,22.8100788 144.091084,22.5674446 144.87226,22.0821688 C145.653436,21.596893 146.044018,20.951841 146.044018,20.1469934 C146.044018,19.5551936 145.813219,19.0640072 145.351615,18.6734194 C144.890011,18.2828316 144.298221,17.9691824 143.576225,17.7324625 C142.854229,17.4957426 141.877774,17.2353547 140.646831,16.9512908 C138.753072,16.501523 137.20258,16.0517619 135.995308,15.6019941 C134.788037,15.1522263 133.752403,14.4302415 132.888375,13.4360179 C132.024348,12.4417944 131.59234,11.1161829 131.59234,9.45914362 C131.59234,8.01515227 131.982922,6.70729448 132.764098,5.53553101 C133.545274,4.36376754 134.722937,3.4346559 136.297125,2.74816821 C137.871312,2.06168052 139.794632,1.71844182 142.067143,1.71844182 C143.653166,1.71844182 145.203659,1.90781489 146.718666,2.28656672 C148.233673,2.66531855 149.559285,3.20976614 150.69554,3.91992582 L148.92015,8.28738601 C146.623967,6.9854266 144.327818,6.33445666 142.031635,6.33445666 C140.42194,6.33445666 139.23244,6.59484463 138.463101,7.1156284 C137.693761,7.63641216 137.309097,8.32288955 137.309097,9.17508117 C137.309097,10.0272728 137.75294,10.660489 138.64064,11.0747488 C139.528339,11.4890086 140.883541,11.8973443 142.706284,12.2997681 C144.600043,12.7495359 146.150535,13.199297 147.357806,13.6490648 C148.565078,14.0988326 149.600712,14.8089816 150.464739,15.7795332 C151.328767,16.7500847 151.760774,18.0638604 151.760774,19.7208997 C151.760774,21.141219 151.364274,22.437241 150.571263,23.6090045 C149.778251,24.780768 148.588752,25.7098796 147.002728,26.3963673 C145.416705,27.082855 143.487467,27.4260937 141.214956,27.4260937 Z M174.024169,17.5194157 C174.024169,17.5904317 173.988662,18.087536 173.917646,19.0107436 L159.465968,19.0107436 C159.72636,20.194343 160.341823,21.1293726 161.312374,21.8158603 C162.282926,22.502348 163.490179,22.8455866 164.934171,22.8455866 C165.928394,22.8455866 166.810162,22.6976389 167.579502,22.4017391 C168.348842,22.1058392 169.064909,21.6383244 169.727724,20.9991807 L172.674872,24.1948833 C170.875801,26.2543464 168.24825,27.2840625 164.792139,27.2840625 C162.637988,27.2840625 160.732422,26.8638909 159.075382,26.0235353 C157.418343,25.1831797 156.140075,24.0173517 155.240539,22.5260164 C154.341004,21.0346811 153.891243,19.3421592 153.891243,17.4484001 C153.891243,15.5783129 154.335086,13.891709 155.222785,12.3885377 C156.110485,10.8853663 157.329574,9.71362044 158.88009,8.87326482 C160.430605,8.03290919 162.164552,7.61273769 164.081983,7.61273769 C165.95207,7.61273769 167.644592,8.01515547 169.159599,8.82000311 C170.674607,9.62485074 171.864106,10.7788429 172.728134,12.2820142 C173.592162,13.7851856 174.024169,15.5309686 174.024169,17.5194157 Z M164.117491,11.8026588 C162.862876,11.8026588 161.809488,12.1577334 160.957296,12.867893 C160.105105,13.5780527 159.584329,14.5485897 159.394953,15.7795332 L168.804521,15.7795332 C168.615146,14.5722617 168.09437,13.6076426 167.242178,12.8856469 C166.389986,12.1636513 165.348434,11.8026588 164.117491,11.8026588 Z M184.889558,7.61273769 C187.848556,7.61273769 190.121033,8.31696881 191.707057,9.72545217 C193.29308,11.1339355 194.08608,13.2584647 194.08608,16.0991034 L194.08608,27 L188.90194,27 L188.90194,24.620977 C187.860372,26.3963762 185.919298,27.2840625 183.07866,27.2840625 C181.610996,27.2840625 180.338646,27.0355103 179.26157,26.5383985 C178.184495,26.0412867 177.361906,25.3548093 176.793778,24.4789457 C176.22565,23.6030821 175.941591,22.6088735 175.941591,21.49629 C175.941591,19.7208908 176.610314,18.3242644 177.947782,17.3063688 C179.285249,16.2884733 181.350599,15.7795332 184.143894,15.7795332 L188.546862,15.7795332 C188.546862,14.5722617 188.179951,13.6431501 187.44612,12.9921704 C186.712288,12.3411907 185.611557,12.0157057 184.143894,12.0157057 C183.125998,12.0157057 182.125872,12.1754892 181.143484,12.4950611 C180.161097,12.8146329 179.326672,13.2466403 178.640184,13.791096 L176.651747,9.92074511 C177.693314,9.18691344 178.941993,8.61879421 180.39782,8.2163704 C181.853648,7.81394658 183.350878,7.61273769 184.889558,7.61273769 Z M184.463464,23.5557428 C185.410344,23.5557428 186.250687,23.3367802 186.984518,22.8988484 C187.71835,22.4609166 188.239126,21.8158645 188.546862,20.9636729 L188.546862,19.0107436 L184.747527,19.0107436 C182.475016,19.0107436 181.338777,19.7564 181.338777,21.2477354 C181.338777,21.957895 181.616919,22.5200964 182.173211,22.9343562 C182.729502,23.348616 183.492913,23.5557428 184.463464,23.5557428 Z M204.383343,10.4178544 C205.046159,9.49464681 205.939763,8.7963336 207.064183,8.32289382 C208.188602,7.84945403 209.484624,7.61273769 210.952288,7.61273769 L210.952288,12.7258618 C210.336816,12.6785178 209.922562,12.6548462 209.709514,12.6548462 C208.123491,12.6548462 206.88073,13.0986893 205.981195,13.9863889 C205.081659,14.8740885 204.631898,16.205618 204.631898,17.9810172 L204.631898,27 L199.09268,27 L199.09268,7.89680014 L204.383343,7.89680014 L204.383343,10.4178544 Z M223.309004,27.2840625 C221.273213,27.2840625 219.444579,26.8638909 217.823048,26.0235353 C216.201517,25.1831797 214.935085,24.0173517 214.023713,22.5260164 C213.112341,21.0346811 212.656662,19.3421592 212.656662,17.4484001 C212.656662,15.5546409 213.112341,13.8621191 214.023713,12.3707837 C214.935085,10.8794484 216.201517,9.71362044 217.823048,8.87326482 C219.444579,8.03290919 221.273213,7.61273769 223.309004,7.61273769 C225.321123,7.61273769 227.078742,8.03290919 228.581914,8.87326482 C230.085085,9.71362044 231.179898,10.9149559 231.866386,12.4773072 L227.569941,14.7853146 C226.575718,13.0335874 225.143584,12.1577369 223.273496,12.1577369 C221.829505,12.1577369 220.634088,12.6311696 219.687208,13.5780492 C218.740328,14.5249287 218.266896,15.8150328 218.266896,17.4484001 C218.266896,19.0817673 218.740328,20.3718714 219.687208,21.318751 C220.634088,22.2656305 221.829505,22.7390632 223.273496,22.7390632 C225.167256,22.7390632 226.59939,21.8632128 227.569941,20.1114856 L231.866386,22.4550008 C231.179898,23.9700081 230.085085,25.1535898 228.581914,26.0057814 C227.078742,26.857973 225.321123,27.2840625 223.309004,27.2840625 Z M246.53111,7.61273769 C248.898309,7.61273769 250.809793,8.32288671 252.26562,9.74320607 C253.721448,11.1635254 254.449351,13.2703009 254.449351,16.0635956 L254.449351,27 L248.910133,27 L248.910133,16.915783 C248.910133,15.4007757 248.57873,14.2704551 247.915914,13.5247875 C247.253098,12.7791198 246.294397,12.4062916 245.039782,12.4062916 C243.643134,12.4062916 242.530568,12.8382989 241.702048,13.7023265 C240.873528,14.5663541 240.459275,15.8505403 240.459275,17.5549235 L240.459275,27 L234.920057,27 L234.920057,0.653207626 L240.459275,0.653207626 L240.459275,9.8852373 C241.193106,9.15140563 242.080793,8.58920432 243.12236,8.19861649 C244.163928,7.80802867 245.300166,7.61273769 246.53111,7.61273769 Z" id="InstantSearch"></path>
            </g>
            <g id="Group" transform="translate(120.895627, 334.926701)" fill="#8994C6">
                <path d="M7.09817957,2.16351833 C5.74098552,2.16351833 5.06239867,2.89733899 5.06239867,4.36500233 L5.06239867,5.45390839 L8.7078668,5.45390839 L8.7078668,7.3239862 L5.10974241,7.3239862 L5.10974241,18 L2.8372428,18 L2.8372428,7.3239862 L0.706774415,7.3239862 L0.706774415,5.45390839 L2.8372428,5.45390839 L2.8372428,4.34133046 C2.8372428,3.09460569 3.20020786,2.10828759 3.92614886,1.38234659 C4.65208987,0.656405583 5.66997014,0.293440525 6.97982022,0.293440525 C7.48482266,0.293440525 7.95825534,0.356564883 8.40013248,0.482815493 C8.84200961,0.609066102 9.22075576,0.790548632 9.53638228,1.02726852 L8.84989802,2.7553151 C8.32911426,2.36078195 7.74521395,2.16351833 7.09817957,2.16351833 Z M16.0461468,18.1420312 C14.799422,18.1420312 13.6789647,17.8658622 12.6847411,17.3135157 C11.6905176,16.7611693 10.9132989,15.9997318 10.3530618,15.0291802 C9.79282475,14.0586286 9.51271041,12.9578976 9.51271041,11.7269542 C9.51271041,10.4960108 9.79282475,9.39527976 10.3530618,8.4247282 C10.9132989,7.45417664 11.6905176,6.69668434 12.6847411,6.15222859 C13.6789647,5.60777283 14.799422,5.33554904 16.0461468,5.33554904 C17.2928716,5.33554904 18.4093836,5.60777283 19.3957165,6.15222859 C20.3820494,6.69668434 21.1553228,7.45417664 21.7155599,8.4247282 C22.275797,9.39527976 22.5559113,10.4960108 22.5559113,11.7269542 C22.5559113,12.9578976 22.275797,14.0586286 21.7155599,15.0291802 C21.1553228,15.9997318 20.3820494,16.7611693 19.3957165,17.3135157 C18.4093836,17.8658622 17.2928716,18.1420312 16.0461468,18.1420312 Z M16.0461468,16.1535941 C16.8509944,16.1535941 17.5729793,15.9681663 18.212123,15.5973051 C18.8512667,15.2264439 19.3523163,14.705668 19.7152868,14.0349616 C20.0782573,13.3642553 20.2597398,12.5949271 20.2597398,11.7269542 C20.2597398,10.8589813 20.0782573,10.0896531 19.7152868,9.41894678 C19.3523163,8.74824041 18.8512667,8.23140973 18.212123,7.86843923 C17.5729793,7.50546873 16.8509944,7.3239862 16.0461468,7.3239862 C15.2412992,7.3239862 14.5193143,7.50546873 13.8801706,7.86843923 C13.2410269,8.23140973 12.736032,8.74824041 12.3651709,9.41894678 C11.9943097,10.0896531 11.8088819,10.8589813 11.8088819,11.7269542 C11.8088819,12.5949271 11.9943097,13.3642553 12.3651709,14.0349616 C12.736032,14.705668 13.2410269,15.2264439 13.8801706,15.5973051 C14.5193143,15.9681663 15.2412992,16.1535941 16.0461468,16.1535941 Z M27.8820823,7.56070491 C28.2766154,6.8347639 28.8605157,6.28242577 29.6338007,5.90367394 C30.4070857,5.52492211 31.3460605,5.33554904 32.4507534,5.33554904 L32.4507534,7.53703304 C32.3245028,7.52125171 32.1509108,7.51336117 31.9299722,7.51336117 C30.6990288,7.51336117 29.732437,7.8802715 29.030168,8.61410317 C28.327899,9.34793483 27.9767698,10.393432 27.9767698,11.7506261 L27.9767698,18 L25.7042701,18 L25.7042701,5.45390839 L27.8820823,5.45390839 L27.8820823,7.56070491 Z M52.6665312,13.8574226 L43.8605952,13.8574226 L42.0378611,18 L39.5996584,18 L47.1036415,1.42969033 L49.4471567,1.42969033 L56.9748117,18 L54.4892652,18 L52.6665312,13.8574226 Z M51.8380157,11.9636729 L48.2635632,3.84422117 L44.6891107,11.9636729 L51.8380157,11.9636729 Z M65.8044195,5.33554904 C67.3983335,5.33554904 68.6647659,5.79714591 69.6037548,6.72035349 C70.5427437,7.64356107 71.0122312,8.9967895 71.0122312,10.7800794 L71.0122312,18 L68.7397315,18 L68.7397315,11.0404699 C68.7397315,9.82530782 68.4477814,8.91000463 67.8638723,8.29453291 C67.2799632,7.67906119 66.4435655,7.37132994 65.354654,7.37132994 C64.1237106,7.37132994 63.1531735,7.73034973 62.4430139,8.44840007 C61.7328542,9.16645041 61.3777797,10.1961665 61.3777797,11.5375792 L61.3777797,18 L59.1052801,18 L59.1052801,5.45390839 L61.2830922,5.45390839 L61.2830922,7.34765807 C61.7407507,6.7006237 62.3601584,6.20351938 63.1413341,5.8563302 C63.9225097,5.50914102 64.810196,5.33554904 65.8044195,5.33554904 Z M87.2984784,5.45390839 L87.2984784,16.2956253 C87.2984784,18.4892296 86.7540308,20.1107366 85.6651193,21.1601948 C84.5762078,22.209653 82.9507555,22.7343742 80.7887139,22.7343742 C79.6051144,22.7343742 78.4767665,22.572618 77.4036363,22.2491008 C76.3305061,21.9255836 75.4625462,21.4639868 74.7997305,20.8642964 L75.8886366,19.1125779 C76.4725456,19.6175804 77.1945305,20.0160529 78.0546128,20.3080074 C78.914695,20.599962 79.8023813,20.745937 80.7176982,20.745937 C82.1853616,20.745937 83.2703115,20.3987531 83.9725805,19.7043747 C84.6748495,19.0099964 85.0259788,17.9526634 85.0259788,16.532344 L85.0259788,15.5381254 C84.4894137,16.1851598 83.8305532,16.6704283 83.0493775,16.9939455 C82.2682019,17.3174627 81.4199683,17.4792188 80.5046514,17.4792188 C79.3052706,17.4792188 78.2203207,17.2227761 77.2497692,16.709883 C76.2792176,16.1969899 75.51778,15.4789504 74.9654336,14.5557428 C74.4130872,13.6325352 74.1369181,12.5791475 74.1369181,11.395548 C74.1369181,10.2119485 74.4130872,9.15856081 74.9654336,8.23535323 C75.51778,7.31214565 76.2792176,6.59805135 77.2497692,6.09304891 C78.2203207,5.58804647 79.3052706,5.33554904 80.5046514,5.33554904 C81.451531,5.33554904 82.3313267,5.50914102 83.144065,5.8563302 C83.9568033,6.20351938 84.6235543,6.71640478 85.1443381,7.39500181 L85.1443381,5.45390839 L87.2984784,5.45390839 Z M80.765042,15.4907817 C81.585671,15.4907817 82.3234369,15.3171897 82.9783619,14.9700005 C83.633287,14.6228113 84.1461724,14.1375428 84.5170335,13.5141805 C84.8878947,12.8908181 85.0733225,12.1846143 85.0733225,11.395548 C85.0733225,10.1803859 84.6709047,9.19801306 83.8660571,8.44840007 C83.0612094,7.69878707 82.0275481,7.3239862 80.765042,7.3239862 C79.4867546,7.3239862 78.4452027,7.69878707 77.640355,8.44840007 C76.8355074,9.19801306 76.4330896,10.1803859 76.4330896,11.395548 C76.4330896,12.1846143 76.6185174,12.8908181 76.9893786,13.5141805 C77.3602397,14.1375428 77.8731251,14.6228113 78.5280502,14.9700005 C79.1829752,15.3171897 79.9286317,15.4907817 80.765042,15.4907817 Z M103.324335,5.45390839 L103.324335,18 L101.170195,18 L101.170195,16.1062503 C100.712536,16.7532847 100.10891,17.2543343 99.3592966,17.6094141 C98.6096836,17.964494 97.7930122,18.1420312 96.909258,18.1420312 C95.2364374,18.1420312 93.9187164,17.6804344 92.9560555,16.7572268 C91.9933946,15.8340192 91.5120714,14.4729002 91.5120714,12.673829 L91.5120714,5.45390839 L93.784571,5.45390839 L93.784571,12.4134385 C93.784571,13.6286006 94.0765212,14.547849 94.6604302,15.1712114 C95.2443393,15.7945738 96.0807371,16.1062503 97.1696486,16.1062503 C98.3690294,16.1062503 99.3158947,15.7432853 100.010273,15.0173443 C100.704651,14.2914033 101.051835,13.2656324 101.051835,11.940001 L101.051835,5.45390839 L103.324335,5.45390839 Z M107.656287,0.435471751 L109.928787,0.435471751 L109.928787,18 L107.656287,18 L107.656287,0.435471751 Z M118.82941,5.33554904 C120.565356,5.33554904 121.894913,5.76163845 122.818121,6.61383007 C123.741328,7.46602169 124.202925,8.73639939 124.202925,10.4250013 L124.202925,18 L122.048785,18 L122.048785,16.342969 C121.670033,16.9268781 121.129531,17.3726939 120.427262,17.6804297 C119.724993,17.9881656 118.89254,18.1420312 117.929879,18.1420312 C116.525341,18.1420312 115.400939,17.8027378 114.556638,17.1241408 C113.712337,16.4455437 113.290193,15.5539122 113.290193,14.4492194 C113.290193,13.3445265 113.69261,12.4568402 114.497458,11.7861339 C115.302306,11.1154275 116.580574,10.7800794 118.332301,10.7800794 L121.930426,10.7800794 L121.930426,10.3303138 C121.930426,9.35187159 121.646366,8.60226983 121.078238,8.08148607 C120.51011,7.5607023 119.673713,7.30031433 118.56902,7.30031433 C117.827298,7.30031433 117.101367,7.42261777 116.391208,7.66722833 C115.681048,7.91183888 115.081367,8.23929649 114.592146,8.64961097 L113.645271,6.94523626 C114.292305,6.4244525 115.065579,6.02597999 115.965114,5.74980678 C116.86465,5.47363357 117.819406,5.33554904 118.82941,5.33554904 Z M118.308629,16.3903128 C119.176602,16.3903128 119.926204,16.1969944 120.557457,15.8103519 C121.18871,15.4237094 121.646362,14.8753166 121.930426,14.1651569 L121.930426,12.4134385 L118.426989,12.4134385 C116.501667,12.4134385 115.53902,13.0604631 115.53902,14.3545319 C115.53902,14.9857849 115.783627,15.4828892 116.272848,15.8458597 C116.76207,16.2088302 117.440656,16.3903128 118.308629,16.3903128 Z M130.59433,7.56070491 C130.988864,6.8347639 131.572764,6.28242577 132.346049,5.90367394 C133.119334,5.52492211 134.058309,5.33554904 135.163001,5.33554904 L135.163001,7.53703304 C135.036751,7.52125171 134.863159,7.51336117 134.64222,7.51336117 C133.411277,7.51336117 132.444685,7.8802715 131.742416,8.61410317 C131.040147,9.34793483 130.689018,10.393432 130.689018,11.7506261 L130.689018,18 L128.416518,18 L128.416518,5.45390839 L130.59433,5.45390839 L130.59433,7.56070491 Z" id="for-Angular"></path>
            </g>
            <path d="M376.530697,25.1513629 L406.860282,35.957572 L402.233911,76.0251726 L376.530697,90.249008 L350.827484,76.0251726 L346.201113,35.957572 L376.530697,25.1513629 Z M376.530697,32.3446527 L357.571008,74.8208661 L364.640021,74.8208661 L368.451192,65.3166099 L384.545105,65.3166099 L388.356276,74.8208661 L395.425289,74.8208661 L376.530697,32.3446527 Z M382.068436,59.4578219 L370.992959,59.4578219 L376.530697,46.1453534 L382.068436,59.4578219 Z" id="Shape" fill="#FFFFFF" fill-rule="nonzero"></path>
        </g>
    </g>
</svg>