<?xml version="1.0" encoding="UTF-8"?>
<svg  viewBox="0 0 165 39" version="1.1" xmlns="http://www.w3.org/2000/svg" xmlns:xlink="http://www.w3.org/1999/xlink">

    <g id="Color" stroke="none" stroke-width="1" fill="none" fill-rule="evenodd" transform="translate(-774.000000, -136.000000)">
        <g id="brands/logo-vestiaire-collective" transform="translate(774.000000, 136.000000)" fill="#000000">
            <path d="M132.956866,18.3785501 L129.883865,18.3785501 L129.883865,0.306350917 C131.205058,0.306350917 132.51686,0.301889805 133.828661,0.307524894 C135.431844,0.31433396 137.03761,0.27230559 138.63727,0.353075195 C141.927223,0.518840722 144.008919,2.22580302 144.490954,5.05931347 C144.990129,7.99378592 143.690536,10.1501465 140.632796,11.4673485 C140.566584,11.4957588 140.516573,11.5615015 140.355268,11.6972132 C141.891534,13.8664876 143.435549,16.0463277 145.132649,18.4426492 C143.833292,18.4426492 141.697124,18.4088387 141.697124,18.4088387 L137.073747,12.1896523 C137.073747,12.1896523 134.057822,12.1191405 132.956866,12.1191405 L132.956866,18.3785501 Z M151.745802,18.3712949 L151.745802,0.375873825 L164.999765,0.375873825 L164.999765,3.11922285 L154.991613,3.11922285 L154.991613,7.84447955 L163.84105,7.84447955 L163.84105,10.6993564 L154.991378,10.6993564 L154.991378,15.5546897 L165,15.5546897 L165,18.3712949 L151.745802,18.3712949 Z M36.9644211,3.14129362 L26.8762035,3.14129362 L26.8762035,7.87288979 L35.8209677,7.87288979 L35.8209677,10.6793988 L26.8783167,10.6793988 L26.8783167,15.5906134 L36.9493942,15.5906134 L36.9493942,18.3635466 L23.7426246,18.3635466 L23.7426246,0.405927631 L36.9644211,0.405927631 L36.9644211,3.14129362 Z M55.0092196,4.59357338 C53.8796191,4.08359785 52.865538,3.42429247 51.760591,3.18433161 C50.7004899,2.95446695 49.8102737,2.73503829 48.7264583,2.92005704 C47.8638201,3.06774332 47.1665801,4.12330362 47.1243217,5.03545826 C47.0578746,6.46973187 47.726337,6.51560823 48.2914895,6.85512233 C49.1710329,7.38388148 50.2590746,7.5656131 51.2585985,7.89550058 C52.2583571,8.22538807 53.2907524,8.4820194 54.2508306,8.90300749 C56.1395245,9.73113074 57.1869466,11.1680784 57.1472662,13.3035422 C57.107351,15.4643639 56.1554906,17.0623812 54.1975321,17.9818398 C52.1566908,18.9400397 50.0198182,18.8836888 47.8850587,18.3516425 C46.1147017,17.910462 44.5411031,17.08093 43.1656719,15.7749982 C43.7960974,15.0245922 44.8331886,13.7893338 44.8331886,13.7893338 C44.8331886,13.7893338 46.9116093,15.1397341 48.7264583,15.6625314 C49.6695422,15.9342024 51.4534786,16.0358558 52.3752852,15.6625312 C52.9784745,15.4181092 53.8824362,14.655698 53.8824367,13.587175 C53.8824372,12.518652 53.3226845,12.126513 52.7589409,11.7769027 C51.9214258,11.2573006 50.869073,11.0804997 49.9042988,10.770335 C48.9388203,10.4601703 47.9484535,10.2169223 47.0045761,9.85275473 C44.9780573,9.07041658 43.8632489,7.62149439 43.8782758,5.38037265 C43.8928331,3.20828074 45.021964,1.49098745 47.0578746,0.616374716 C49.9219085,-0.614422581 54.0465586,0.129174336 56.5753047,2.38555778 C56.0183701,3.17094827 55.5015855,3.89928349 55.0092196,4.59357338 Z M102.860421,0.165614576 C105.916048,6.35575955 108.85639,12.3127527 111.89159,18.4613389 C110.76645,18.4613389 108.694851,18.4329287 108.694851,18.4329287 L106.354176,14.0871013 L99.6446635,14.0441337 L97.3922716,18.4770702 C97.3922716,18.4770702 94.9851495,18.4625129 94.0487856,18.4625129 C94.0487856,18.4625129 99.8785197,6.35716832 102.860421,0.165614576 Z M0.0341627254,0.315132264 L3.35651712,0.353873499 C3.35651712,0.353873499 8.76972423,11.2589442 9.01297223,11.7379267 C10.6304775,8.30850563 14.4756844,0.306444834 14.4756844,0.306444834 C14.4756844,0.306444834 17.1197518,0.306444836 17.8537221,0.306444836 C14.8927177,6.456205 12.0218748,12.4181289 9.05194826,18.5862031 C6.00242608,12.4073283 0.0341627254,0.315132264 0.0341627254,0.315132264 Z M62.3528203,3.25979484 L62.3528203,0.384960405 L76.9253946,0.384960405 L76.9253946,3.20649629 L71.2947669,3.20649629 L71.2947669,18.3594847 L68.0780705,18.3594847 L68.0780705,3.25979484 L62.3528203,3.25979484 Z M84.3664353,18.3880123 L84.3664353,0.381790668 L87.4582207,0.381790668 L87.4582207,18.3880123 L84.3664353,18.3880123 Z M118.42139,18.4105527 L118.42139,0.400104706 L121.455181,0.400104706 L121.455181,18.4105527 L118.42139,18.4105527 Z M32.2335763,35.6874999 C28.9436236,35.6940742 26.5012823,33.2726296 26.503865,30.0061565 C26.506213,26.768798 28.9804865,24.3151865 32.2460204,24.3118993 C35.5204766,24.3086122 38.0008548,26.7612846 37.9954545,29.9969995 C37.9898194,33.2144004 35.4925359,35.6806909 32.2335763,35.6874999 Z M81.8990647,24.5758328 L81.8990647,26.2224527 L75.8451011,26.2224527 L75.8451011,29.0310748 L81.1911567,29.0310748 L81.1911567,30.7894573 L75.8690502,30.7894573 L75.8690502,33.7187643 L81.9479022,33.7187643 L81.9479022,35.4419275 L73.9291709,35.4419275 L73.9291709,24.5758328 L81.8990647,24.5758328 Z M146.297845,24.5852481 L154.38678,24.5852481 L154.38678,26.180213 L148.330703,26.180213 L148.330703,29.0505863 L153.685916,29.0505863 L153.685916,30.8378486 L148.292432,30.8378486 L148.292432,33.7542419 L154.449236,33.7542419 L154.449236,35.4433597 L146.356309,35.4433597 C146.334708,35.0427988 146.300662,34.7016412 146.300193,34.3604835 C146.296201,31.1271165 146.297845,27.8939844 146.297845,24.5852481 Z M19.3584551,32.5700984 C19.5472306,32.7391511 19.7533809,32.9086733 19.9409824,33.0965096 C20.1290535,33.2845807 20.2985757,33.4912006 20.4685676,33.6811501 C18.6451468,36.0781759 14.8398183,36.3998456 12.4982042,34.3998587 C10.0525757,32.3108843 9.86262621,28.3388511 12.0964693,26.0021677 C14.288284,23.7096258 18.2039663,23.7159652 20.446262,26.0892768 C20.0802161,26.5107344 19.7071262,26.9401752 19.3420194,27.3604589 C16.5939745,25.7291007 14.7752496,25.7565717 13.4411424,27.4137574 C12.2209108,28.9295963 12.3145942,31.3977651 13.6458839,32.8081809 C15.0917538,34.3399859 16.8877035,34.2740084 19.3584551,32.5700984 Z M98.4699823,26.0614066 C98.0790481,26.5169096 97.7273246,26.9266275 97.2882573,27.4382466 C96.1438647,26.4410707 94.842394,25.7613381 93.3472171,26.2414946 C92.6134816,26.4772291 91.8565013,26.9820392 91.3697705,27.5772454 C90.1215984,29.1034153 90.3751774,31.5898982 91.7717402,32.9333973 C93.2399156,34.3456914 95.0703803,34.2388595 97.3598699,32.5403498 C97.7277942,32.934806 98.1083975,33.3428804 98.4878268,33.749546 C96.390165,36.1287274 92.6839202,36.3658707 90.3869171,34.2966191 C88.0629126,32.2031837 87.9072433,28.368271 90.0523338,26.0602326 C92.2077552,23.7411588 96.0194231,23.6899734 98.4699823,26.0614066 Z M134.357961,35.6261949 C132.491807,31.848807 128.934423,24.6471636 128.934423,24.6471636 L130.863364,24.6444038 L134.320863,31.7079298 L137.761516,24.6220287 L139.635691,24.6558511 C139.635691,24.6558511 136.18326,31.8321366 134.357961,35.6261949 Z M104.588773,24.5708552 L113.348988,24.5708552 L113.348988,26.208318 L109.991414,26.208318 L109.991414,35.457377 L108.009976,35.457377 L108.009976,26.3029406 L104.588773,26.3029406 L104.588773,24.5708552 Z M67.0726767,33.7284848 L67.0726767,35.4347427 L59.4678897,35.4347427 L59.4678897,24.5853185 L61.3237122,24.5853185 L61.3237122,33.7284848 L67.0726767,33.7284848 Z M45.0924496,24.5534333 L46.9008435,24.5534333 L46.9008435,33.684625 L52.6286764,33.684625 L52.6286764,35.4545125 L45.0924496,35.4545125 L45.0924496,24.5534333 Z M120.351877,35.4745405 L120.351877,24.5779225 L122.154871,24.5779225 L122.154871,35.4745405 L120.351877,35.4745405 Z M164.889161,30.1119394 C164.879466,30.1199718 164.844923,30.149173 164.809708,30.1775037 C164.263312,30.6168281 163.951437,31.1513136 163.962872,31.8880316 C163.988433,33.5295131 163.967897,35.1717069 163.972803,36.8135445 C163.974149,37.2613364 163.799297,37.6065679 163.419761,37.8373289 C163.235215,37.9495044 163.04058,38.056813 162.836408,38.1223377 C162.500713,38.2300816 162.153582,38.3020559 161.811239,38.3891452 C161.807085,38.3717353 161.80293,38.3543649 161.798775,38.3369945 C161.937422,38.240211 162.082439,38.1513015 162.213488,38.0451404 C162.605291,37.7276066 162.833955,37.3430049 162.828732,36.808005 C162.811837,35.0871499 162.822639,33.3660178 162.822045,31.6450045 C162.821966,31.3750711 162.855085,31.0988068 163.049245,30.9090383 C163.257334,30.7056188 163.498422,30.5182244 163.757711,30.3895886 C164.053245,30.2429493 164.384826,30.168957 164.665087,30.0752994 C164.372441,29.9771706 164.038803,29.893405 163.729302,29.7554311 C163.143852,29.4944005 162.803923,29.0775508 162.813894,28.3805988 C162.838229,26.679686 162.817218,24.9782193 162.823905,23.2769899 C162.825448,22.8814279 162.690798,22.5534481 162.407767,22.2909535 C162.214161,22.111354 161.997328,21.9568011 161.774006,21.7775182 C162.262553,21.8410249 162.719049,21.9484523 163.150539,22.1522278 C163.701723,22.4125066 163.987839,22.8142017 163.979451,23.4554815 C163.957609,25.1300815 163.963228,26.8051959 163.980955,28.4798751 C163.983685,28.7377402 164.057875,29.0244505 164.188924,29.2442116 C164.373628,29.55399 164.642256,29.8137149 164.889161,30.1119394 Z M0,30.1119394 C0.246904781,29.8137149 0.515532435,29.55399 0.700236204,29.2442116 C0.831285664,29.0244505 0.905475803,28.7377402 0.908206,28.4798751 C0.925932497,26.8051959 0.931551163,25.1300815 0.909709587,23.4554815 C0.901321155,22.8142017 1.1874379,22.4125066 1.73862117,22.1522278 C2.17011101,21.9484523 2.62660788,21.8410249 3.11515489,21.7775182 C2.89183268,21.9568011 2.67499963,22.111354 2.48139305,22.2909535 C2.19836262,22.5534481 2.06371246,22.8814279 2.06525562,23.2769899 C2.07194262,24.9782193 2.05093197,26.679686 2.07526634,28.3805988 C2.08523749,29.0775508 1.74530817,29.4944005 1.15985895,29.7554311 C0.850357476,29.893405 0.516719477,29.9771706 0.224074002,30.0752994 C0.50433467,30.168957 0.835915129,30.2429493 1.13144907,30.3895886 C1.39073866,30.5182244 1.63182694,30.7056188 1.83991544,30.9090383 C2.03407597,31.0988068 2.06719445,31.3750711 2.06711532,31.6450045 C2.06652179,33.3660178 2.07732388,35.0871499 2.06042831,36.808005 C2.05520533,37.3430049 2.28386922,37.7276066 2.67567229,38.0451404 C2.80672175,38.1513015 2.95173874,38.240211 3.09038527,38.3369945 C3.08623063,38.3543649 3.08207598,38.3717353 3.07792133,38.3891452 C2.73557836,38.3020559 2.38844764,38.2300816 2.0527521,38.1223377 C1.84858084,38.056813 1.65394549,37.9495044 1.46939999,37.8373289 C1.08986303,37.6065679 0.915011709,37.2613364 0.916357023,36.8135445 C0.921263464,35.1717069 0.900727634,33.5295131 0.92628861,31.8880316 C0.937723783,31.1513136 0.625848225,30.6168281 0.0794526924,30.1775037 C0.0442371066,30.149173 0.0096941781,30.1199718 0,30.1119394 Z M28.5515154,30.0456021 C28.5766385,32.2458695 30.1866303,33.9281783 32.2622213,33.9230128 C34.3904065,33.9178473 35.9832582,32.1754309 35.9355948,29.9047249 C35.8895749,27.713145 34.2542252,26.0653511 32.1603201,26.1005704 C30.0558493,26.1360245 28.5259227,27.8084719 28.5515154,30.0456021 Z M102.920059,6.96810585 C102.208394,8.47877923 101.606379,9.756066 100.972197,11.1021478 L104.8698,11.1021478 C104.22059,9.72554261 103.630315,8.47384852 102.920059,6.96810585 Z M133.062759,9.27976013 C134.805645,9.27976013 136.444986,9.3471464 138.07611,9.26262007 C140.118594,9.15696215 141.357844,7.90879 141.328495,6.15345986 C141.299615,4.41620896 140.105446,3.30680087 138.054743,3.23143156 C136.421507,3.17155874 134.784513,3.219457 133.062759,3.219457 L133.062759,9.27976013 Z" id="Combined-Shape"></path>
        </g>
    </g>
</svg>