<?xml version="1.0" encoding="UTF-8"?>
<svg width="779px" height="520px" viewBox="0 0 779 520" version="1.1" xmlns="http://www.w3.org/2000/svg" xmlns:xlink="http://www.w3.org/1999/xlink">
    <!-- Generator: Sketch 47 (45396) - http://www.bohemiancoding.com/sketch -->
    <title>Angular</title>
    <desc>Created with Sketch.</desc>
    <defs>
        <linearGradient x1="49.9975535%" y1="100.027007%" x2="49.9975535%" y2="0.0253041363%" id="linearGradient-1">
            <stop stop-color="#3D386B" offset="0%"></stop>
            <stop stop-color="#211E39" offset="100%"></stop>
        </linearGradient>
        <linearGradient x1="49.9976424%" y1="100%" x2="49.9976424%" y2="0.024375%" id="linearGradient-2">
            <stop stop-color="#3D386B" offset="0%"></stop>
            <stop stop-color="#211E39" offset="100%"></stop>
        </linearGradient>
        <linearGradient x1="-0.0196228639%" y1="49.9669304%" x2="100.012198%" y2="49.9669304%" id="linearGradient-3">
            <stop stop-color="#3D386B" offset="0%"></stop>
            <stop stop-color="#211E39" offset="100%"></stop>
        </linearGradient>
        <linearGradient x1="49.9976424%" y1="100%" x2="49.9976424%" y2="0.024375%" id="linearGradient-4">
            <stop stop-color="#FCFCFE" offset="0%"></stop>
            <stop stop-color="#C6C6EF" offset="96.99%"></stop>
        </linearGradient>
        <linearGradient x1="-0.0196228639%" y1="49.9667722%" x2="100.012198%" y2="49.9667722%" id="linearGradient-5">
            <stop stop-color="#FCFCFE" offset="0%"></stop>
            <stop stop-color="#C6C6EF" offset="96.99%"></stop>
        </linearGradient>
        <linearGradient x1="50%" y1="0%" x2="50%" y2="100%" id="linearGradient-6">
            <stop stop-color="#F89BA3" offset="0%"></stop>
            <stop stop-color="#E42642" offset="100%"></stop>
        </linearGradient>
        <linearGradient x1="49.9971028%" y1="-0.870235335%" x2="49.9971028%" y2="232.445261%" id="linearGradient-7">
            <stop stop-color="#DD0031" offset="0%"></stop>
            <stop stop-color="#C3002F" offset="100%"></stop>
        </linearGradient>
        <linearGradient x1="-2.22044605e-14%" y1="100%" x2="77.6648773%" y2="100%" id="linearGradient-8">
            <stop stop-color="#EE1C35" offset="0%"></stop>
            <stop stop-color="#E61B20" offset="100%"></stop>
        </linearGradient>
        <linearGradient x1="123.843614%" y1="-52.2599007%" x2="-12.3996956%" y2="80.1836372%" id="linearGradient-9">
            <stop stop-color="#DD0031" offset="0%"></stop>
            <stop stop-color="#C3002F" offset="100%"></stop>
        </linearGradient>
    </defs>
    <g id="Work-space" stroke="none" stroke-width="1" fill="none" fill-rule="evenodd">
        <g id="Angular">
            <g id="inifite-components" transform="translate(131.000000, 91.000000)">
                <polygon id="Shape" fill="url(#linearGradient-1)" fill-rule="nonzero" opacity="0.1" points="171.1 215 7.6 266.4 236.4 338.3 400 287"></polygon>
                <g id="Group" transform="translate(0.000000, 174.000000)" fill-rule="nonzero">
                    <polygon id="Shape" fill="url(#linearGradient-2)" points="169.9 0 0.2 53.3 238 129 407.4 74.7"></polygon>
                    <polygon id="Shape" fill="url(#linearGradient-3)" points="237.7 137.9 407.4 84.6 407.4 74.7 237.7 128"></polygon>
                    <polygon id="Shape" fill="#201C38" points="237.7 137.9 0.2 63.2 0.2 53.3 237.7 128"></polygon>
                </g>
                <g id="Group" transform="translate(29.000000, 191.000000)" fill-rule="nonzero" fill="#726AC9">
                    <g id="Shape">
                        <path d="M46.6,24.3 L22.1,32 C21.6,32.1 20.8,32.1 20.2,32 L20.2,32 C19.6,31.8 19.5,31.6 20,31.4 L44.5,23.7 C45,23.6 45.8,23.6 46.4,23.7 L46.4,23.7 C47,23.9 47.1,24.1 46.6,24.3 Z"></path>
                        <path d="M42.3,28.8 L37.5,30.3 C37,30.4 36.2,30.4 35.6,30.3 L35.6,30.3 C35,30.1 34.9,29.9 35.4,29.7 L40.2,28.2 C40.7,28.1 41.5,28.1 42.1,28.2 L42.1,28.2 C42.7,28.4 42.8,28.7 42.3,28.8 Z"></path>
                        <path d="M122.9,3.5 L104.6,9.2 C104.1,9.3 103.3,9.3 102.7,9.2 L102.7,9.2 C102.1,9 102,8.8 102.5,8.6 L120.8,2.9 C121.3,2.8 122.1,2.8 122.7,2.9 L122.7,2.9 C123.3,3.1 123.4,3.3 122.9,3.5 Z"></path>
                        <path d="M99.5,14 L87.4,17.8 C86.9,17.9 86.1,17.9 85.5,17.8 L85.5,17.8 C84.9,17.6 84.8,17.4 85.3,17.2 L97.4,13.4 C97.9,13.3 98.7,13.3 99.3,13.4 L99.3,13.4 C99.9,13.6 100,13.9 99.5,14 Z"></path>
                        <path d="M85.3,24.9 L75.5,28 C75,28.1 74.2,28.1 73.6,28 L73.6,28 C73,27.8 72.9,27.6 73.4,27.4 L83.2,24.3 C83.7,24.2 84.5,24.2 85.1,24.3 L85.1,24.3 C85.7,24.5 85.8,24.8 85.3,24.9 Z"></path>
                        <path d="M160.9,1.2 L142.6,6.9 C142.1,7 141.3,7 140.7,6.9 L140.7,6.9 C140.1,6.7 140,6.5 140.5,6.3 L158.8,0.6 C159.3,0.5 160.1,0.5 160.7,0.6 L160.7,0.6 C161.3,0.8 161.4,1 160.9,1.2 Z"></path>
                        <path d="M129.2,14.3 L103.1,22.5 C102.6,22.6 101.8,22.6 101.2,22.5 L101.2,22.5 C100.6,22.3 100.5,22.1 101,21.9 L127.1,13.7 C127.6,13.6 128.4,13.6 129,13.7 L129,13.7 C129.6,13.9 129.7,14.2 129.2,14.3 Z"></path>
                        <path d="M70.2,36.1 L63.4,38.2 C62.9,38.3 62.1,38.3 61.5,38.2 L61.5,38.2 C60.9,38 60.8,37.8 61.3,37.6 L68.1,35.5 C68.6,35.4 69.4,35.4 70,35.5 L70,35.5 C70.6,35.7 70.7,35.9 70.2,36.1 Z"></path>
                        <path d="M171.3,4.3 L164.2,6.5 C163.7,6.6 162.9,6.6 162.3,6.5 L162.3,6.5 C161.7,6.3 161.6,6.1 162.1,5.9 L169.2,3.7 C169.7,3.6 170.5,3.6 171.1,3.7 L171.1,3.7 C171.7,3.9 171.8,4.2 171.3,4.3 Z"></path>
                        <path d="M78.5,36.7 L59,42.8 C58.5,42.9 57.7,42.9 57.1,42.8 L57.1,42.8 C56.5,42.6 56.4,42.4 56.9,42.2 L76.4,36.1 C76.9,36 77.7,36 78.3,36.1 L78.3,36.1 C78.8,36.3 78.9,36.6 78.5,36.7 Z"></path>
                        <path d="M65,47.5 L56.9,50.1 C56.4,50.2 55.6,50.2 55,50.1 L55,50.1 C54.4,49.9 54.3,49.7 54.8,49.5 L62.9,46.9 C63.4,46.8 64.2,46.8 64.8,46.9 L64.8,46.9 C65.4,47.1 65.5,47.3 65,47.5 Z"></path>
                        <path d="M112.1,32.7 L97.8,37.2 C97.3,37.3 96.5,37.3 95.9,37.2 L95.9,37.2 C95.3,37 95.2,36.8 95.7,36.6 L110,32.1 C110.5,32 111.3,32 111.9,32.1 L111.9,32.1 C112.5,32.3 112.6,32.5 112.1,32.7 Z"></path>
                        <path d="M169.9,17.7 L151.6,23.4 C151.1,23.5 150.3,23.5 149.7,23.4 L149.7,23.4 C149.1,23.2 149,23 149.5,22.8 L167.8,17.1 C168.3,17 169.1,17 169.7,17.1 L169.7,17.1 C170.3,17.3 170.4,17.6 169.9,17.7 Z"></path>
                        <path d="M99.9,42.9 L89.6,46.1 C89.1,46.2 88.3,46.2 87.7,46.1 L87.7,46.1 C87.1,45.9 87,45.7 87.5,45.5 L97.8,42.3 C98.3,42.2 99.1,42.2 99.7,42.3 L99.7,42.3 C100.3,42.5 100.4,42.8 99.9,42.9 Z"></path>
                        <path d="M157.2,24.9 L150.7,27 C150.2,27.1 149.4,27.1 148.8,27 L148.8,27 C148.2,26.8 148.1,26.6 148.6,26.4 L155.1,24.3 C155.6,24.2 156.4,24.2 157,24.3 L157,24.3 C157.6,24.5 157.7,24.8 157.2,24.9 Z"></path>
                        <path d="M132.3,39.2 L122.5,42.3 C122,42.4 121.2,42.4 120.6,42.3 L120.6,42.3 C120,42.1 119.9,41.9 120.4,41.7 L130.2,38.6 C130.7,38.5 131.5,38.5 132.1,38.6 L132.1,38.6 C132.7,38.7 132.8,39 132.3,39.2 Z"></path>
                        <path d="M207.9,15.4 L189.6,21.1 C189.1,21.2 188.3,21.2 187.7,21.1 L187.7,21.1 C187.1,20.9 187,20.7 187.5,20.5 L205.8,14.8 C206.3,14.7 207.1,14.7 207.7,14.8 L207.7,14.8 C208.3,15 208.4,15.2 207.9,15.4 Z"></path>
                        <path d="M145.9,38.1 L127.6,43.8 C127.1,43.9 126.3,43.9 125.7,43.8 L125.7,43.8 C125.1,43.6 125,43.4 125.5,43.2 L143.8,37.5 C144.3,37.4 145.1,37.4 145.7,37.5 L145.7,37.5 C146.3,37.7 146.4,37.9 145.9,38.1 Z"></path>
                        <path d="M190.7,24 L180.3,27.3 C179.8,27.4 179,27.4 178.4,27.3 L178.4,27.3 C177.8,27.1 177.7,26.9 178.2,26.7 L188.6,23.4 C189.1,23.3 189.9,23.3 190.5,23.4 L190.5,23.4 C191.1,23.6 191.2,23.9 190.7,24 Z"></path>
                        <path d="M218.3,18.5 L211.2,20.7 C210.7,20.8 209.9,20.8 209.3,20.7 L209.3,20.7 C208.7,20.5 208.6,20.3 209.1,20.1 L216.2,17.9 C216.7,17.8 217.5,17.8 218.1,17.9 L218.1,17.9 C218.7,18.1 218.7,18.4 218.3,18.5 Z"></path>
                        <path d="M156.3,41.2 L129.6,49.6 C129.1,49.7 128.3,49.7 127.7,49.6 L127.7,49.6 C127.1,49.4 127,49.2 127.5,49 L154.2,40.6 C154.7,40.5 155.5,40.5 156.1,40.6 L156.1,40.6 C156.7,40.8 156.8,41.1 156.3,41.2 Z"></path>
                        <g transform="translate(0.000000, 4.000000)">
                            <path d="M18,29.3 L9.9,31.9 C9.4,32 8.6,32 8,31.9 L8,31.9 C7.4,31.7 7.3,31.5 7.8,31.3 L15.9,28.7 C16.4,28.6 17.2,28.6 17.8,28.7 L17.8,28.7 C18.4,28.9 18.5,29.1 18,29.3 Z"></path>
                            <path d="M65.1,14.5 L50.8,19 C50.3,19.1 49.5,19.1 48.9,19 L48.9,19 C48.3,18.8 48.2,18.6 48.7,18.4 L63,13.9 C63.5,13.8 64.3,13.8 64.9,13.9 L64.9,13.9 C65.5,14.1 65.6,14.3 65.1,14.5 Z"></path>
                            <path d="M95.3,5 L69.2,13.2 C68.7,13.3 67.9,13.3 67.3,13.2 L67.3,13.2 C66.7,13 66.6,12.8 67.1,12.6 L93.2,4.4 C93.7,4.3 94.5,4.3 95.1,4.4 L95.1,4.4 C95.7,4.5 95.8,4.8 95.3,5 Z"></path>
                            <path d="M3.3,33.3 C4.1,33.5 4.2,33.9 3.6,34.1 C2.9,34.3 1.7,34.3 0.9,34 C0.1,33.8 5.68711744e-14,33.4 0.6,33.2 C1.3,33 2.5,33 3.3,33.3 Z"></path>
                            <path d="M74.4,14.8 L46.5,23.6 C46,23.7 45.2,23.7 44.6,23.6 L44.6,23.6 C44,23.4 43.9,23.2 44.4,23 L72.3,14.2 C72.8,14.1 73.6,14.1 74.2,14.2 L74.2,14.2 C74.8,14.3 74.8,14.6 74.4,14.8 Z"></path>
                            <path d="M100.5,6.5 L78.5,13.4 C78,13.5 77.2,13.5 76.6,13.4 L76.6,13.4 C76,13.2 75.9,13 76.4,12.8 L98.4,5.9 C98.9,5.8 99.7,5.8 100.3,5.9 L100.3,5.9 C100.9,6.1 101,6.4 100.5,6.5 Z"></path>
                            <path d="M8.5,34.8 C9.3,35 9.4,35.4 8.8,35.6 C8.1,35.8 6.9,35.8 6.1,35.5 C5.3,35.2 5.2,34.9 5.8,34.7 C6.5,34.6 7.7,34.6 8.5,34.8 Z"></path>
                            <path d="M53,24.7 L42.7,27.9 C42.2,28 41.4,28 40.8,27.9 L40.8,27.9 C40.2,27.7 40.1,27.5 40.6,27.3 L50.9,24.1 C51.4,24 52.2,24 52.8,24.1 L52.8,24.1 C53.3,24.3 53.4,24.5 53,24.7 Z"></path>
                            <path d="M83.3,15.1 L57.1,23.4 C56.6,23.5 55.8,23.5 55.2,23.4 L55.2,23.4 C54.6,23.2 54.5,23 55,22.8 L81.2,14.5 C81.7,14.4 82.5,14.4 83.1,14.5 L83.1,14.5 C83.7,14.7 83.8,15 83.3,15.1 Z"></path>
                            <path d="M128.1,1.1 L103.7,8.8 C103.2,8.9 102.4,8.9 101.8,8.8 L101.8,8.8 C101.2,8.6 101.1,8.4 101.6,8.2 L126,0.5 C126.5,0.4 127.3,0.4 127.9,0.5 L127.9,0.5 C128.5,0.7 128.6,0.9 128.1,1.1 Z"></path>
                            <path d="M13.7,36.4 C14.5,36.6 14.6,37 14,37.2 C13.3,37.4 12.1,37.4 11.3,37.1 C10.5,36.9 10.4,36.5 11,36.3 C11.6,36.1 12.9,36.2 13.7,36.4 Z"></path>
                            <path d="M88.5,16.7 L70.2,22.4 C69.7,22.5 68.9,22.5 68.3,22.4 L68.3,22.4 C67.7,22.2 67.6,22 68.1,21.8 L86.4,16.1 C86.9,16 87.7,16 88.3,16.1 L88.3,16.1 C88.9,16.3 89,16.6 88.5,16.7 Z"></path>
                            <path d="M110.9,9.7 L92.6,15.4 C92.1,15.5 91.3,15.5 90.7,15.4 L90.7,15.4 C90.1,15.2 90,15 90.5,14.8 L108.8,9.1 C109.3,9 110.1,9 110.7,9.1 L110.7,9.1 C111.3,9.3 111.4,9.5 110.9,9.7 Z"></path>
                            <path d="M18.9,38 C19.7,38.2 19.8,38.6 19.2,38.8 C18.5,39 17.3,39 16.5,38.7 C15.7,38.5 15.6,38.1 16.2,37.9 C16.9,37.7 18.1,37.7 18.9,38 Z"></path>
                            <path d="M109.9,13.2 L89.4,19.6 C88.9,19.7 88.1,19.7 87.5,19.6 L87.5,19.6 C86.9,19.4 86.8,19.2 87.3,19 L107.8,12.6 C108.3,12.5 109.1,12.5 109.7,12.6 L109.7,12.6 C110.3,12.8 110.4,13 109.9,13.2 Z"></path>
                            <path d="M138.5,4.2 L114.1,11.9 C113.6,12 112.8,12 112.2,11.9 L112.2,11.9 C111.6,11.7 111.5,11.5 112,11.3 L136.4,3.6 C136.9,3.5 137.7,3.5 138.3,3.6 L138.3,3.6 C138.9,3.8 139,4.1 138.5,4.2 Z"></path>
                            <path d="M24.1,39.5 C24.9,39.7 25,40.1 24.4,40.3 C23.7,40.5 22.5,40.5 21.7,40.2 C20.9,40 20.8,39.6 21.4,39.4 C22.1,39.3 23.3,39.3 24.1,39.5 Z"></path>
                            <path d="M98.9,19.9 L80.6,25.6 C80.1,25.7 79.3,25.7 78.7,25.6 L78.7,25.6 C78.1,25.4 78,25.2 78.5,25 L96.8,19.3 C97.3,19.2 98.1,19.2 98.7,19.3 L98.7,19.3 C99.3,19.5 99.4,19.7 98.9,19.9 Z"></path>
                            <path d="M143.7,5.8 L133.3,9.1 C132.8,9.2 132,9.2 131.4,9.1 L131.4,9.1 C130.8,8.9 130.7,8.7 131.2,8.5 L141.6,5.2 C142.1,5.1 142.9,5.1 143.5,5.2 L143.5,5.2 C144.1,5.4 144.2,5.6 143.7,5.8 Z"></path>
                            <path d="M29.3,41.1 C30.1,41.3 30.2,41.7 29.6,41.9 C29,42.1 27.7,42.1 26.9,41.8 C26.1,41.6 26,41.2 26.6,41 C27.3,40.8 28.5,40.9 29.3,41.1 Z"></path>
                            <path d="M98.2,23.3 L74.4,30.8 C73.9,30.9 73.1,30.9 72.5,30.8 L72.5,30.8 C71.9,30.6 71.8,30.4 72.3,30.2 L96.1,22.7 C96.6,22.6 97.4,22.6 98,22.7 L98,22.7 C98.6,22.9 98.6,23.2 98.2,23.3 Z"></path>
                            <path d="M126.5,14.4 L102.3,22 C101.8,22.1 101,22.1 100.4,22 L100.4,22 C99.8,21.8 99.7,21.6 100.2,21.4 L124.4,13.8 C124.9,13.7 125.7,13.7 126.3,13.8 L126.3,13.8 C126.9,14 127,14.2 126.5,14.4 Z"></path>
                            <path d="M160.1,3.8 L130.7,13.1 C130.2,13.2 129.4,13.2 128.8,13.1 L128.8,13.1 C128.2,12.9 128.1,12.7 128.6,12.5 L158,3.2 C158.5,3.1 159.3,3.1 159.9,3.2 L159.9,3.2 C160.5,3.4 160.5,3.7 160.1,3.8 Z"></path>
                            <path d="M34.5,42.7 C35.3,42.9 35.4,43.3 34.8,43.5 C34.1,43.7 32.9,43.7 32.1,43.4 C31.3,43.2 31.2,42.8 31.8,42.6 C32.5,42.4 33.7,42.4 34.5,42.7 Z"></path>
                            <path d="M54.8,40.1 L46.3,42.8 C45.8,42.9 45,42.9 44.4,42.8 L44.4,42.8 C43.8,42.6 43.7,42.4 44.2,42.2 L52.7,39.5 C53.2,39.4 54,39.4 54.6,39.5 L54.6,39.5 C55.2,39.7 55.3,40 54.8,40.1 Z"></path>
                            <path d="M109.3,23 L82.6,31.4 C82.1,31.5 81.3,31.5 80.7,31.4 L80.7,31.4 C80.1,31.2 80,31 80.5,30.8 L107.2,22.4 C107.7,22.3 108.5,22.3 109.1,22.4 L109.1,22.4 C109.7,22.6 109.8,22.9 109.3,23 Z"></path>
                            <path d="M39.7,44.3 C40.5,44.5 40.6,44.9 40,45.1 C39.3,45.3 38.1,45.3 37.3,45 C36.5,44.8 36.4,44.4 37,44.2 C37.7,44 38.9,44 39.7,44.3 Z"></path>
                            <path d="M44.9,45.8 C45.7,46 45.8,46.4 45.2,46.6 C44.6,46.8 43.3,46.8 42.5,46.5 C41.7,46.3 41.6,45.9 42.2,45.7 C42.9,45.6 44.1,45.6 44.9,45.8 Z"></path>
                            <path d="M93.6,34.5 L69.1,42.2 C68.6,42.3 67.8,42.3 67.2,42.2 L67.2,42.2 C66.6,42 66.5,41.8 67,41.6 L91.5,33.9 C92,33.8 92.8,33.8 93.4,33.9 L93.4,33.9 C94,34.1 94.1,34.3 93.6,34.5 Z"></path>
                            <path d="M142.3,19.2 L116.2,27.4 C115.7,27.5 114.9,27.5 114.3,27.4 L114.3,27.4 C113.7,27.2 113.6,27 114.1,26.8 L140.2,18.6 C140.7,18.5 141.5,18.5 142.1,18.6 L142.1,18.6 C142.7,18.8 142.8,19 142.3,19.2 Z"></path>
                            <path d="M50.3,47.5 C51.1,47.7 51.2,48.1 50.6,48.3 C49.9,48.5 48.7,48.5 47.9,48.2 C47.1,48 47,47.6 47.6,47.4 C48.2,47.2 49.5,47.2 50.3,47.5 Z"></path>
                            <path d="M89.3,39 L84.5,40.5 C84,40.6 83.2,40.6 82.6,40.5 L82.6,40.5 C82,40.3 81.9,40.1 82.4,39.9 L87.2,38.4 C87.7,38.3 88.5,38.3 89.1,38.4 L89.1,38.4 C89.7,38.6 89.8,38.9 89.3,39 Z"></path>
                            <path d="M121.4,29 L93.5,37.8 C93,37.9 92.2,37.9 91.6,37.8 L91.6,37.8 C91,37.6 90.9,37.4 91.4,37.2 L119.3,28.4 C119.8,28.3 120.6,28.3 121.2,28.4 L121.2,28.4 C121.8,28.6 121.8,28.8 121.4,29 Z"></path>
                            <path d="M147.5,20.8 L125.5,27.7 C125,27.8 124.2,27.8 123.6,27.7 L123.6,27.7 C123,27.5 122.9,27.3 123.4,27.1 L145.4,20.2 C145.9,20.1 146.7,20.1 147.3,20.2 L147.3,20.2 C147.9,20.3 148,20.6 147.5,20.8 Z"></path>
                            <path d="M55.5,49 C56.3,49.2 56.4,49.6 55.8,49.8 C55.1,50 53.9,50 53.1,49.7 C52.3,49.5 52.2,49.1 52.8,48.9 C53.5,48.8 54.7,48.8 55.5,49 Z"></path>
                            <path d="M130.3,29.4 L104.1,37.7 C103.6,37.8 102.8,37.8 102.2,37.7 L102.2,37.7 C101.6,37.5 101.5,37.3 102,37.1 L128.2,28.8 C128.7,28.7 129.5,28.7 130.1,28.8 L130.1,28.8 C130.7,29 130.8,29.2 130.3,29.4 Z"></path>
                            <path d="M146.5,24.3 L134.4,28.1 C133.9,28.2 133.1,28.2 132.5,28.1 L132.5,28.1 C131.9,27.9 131.8,27.7 132.3,27.5 L144.4,23.7 C144.9,23.6 145.7,23.6 146.3,23.7 L146.3,23.7 C146.9,23.9 147,24.1 146.5,24.3 Z"></path>
                            <path d="M60.7,50.6 C61.5,50.8 61.6,51.2 61,51.4 C60.3,51.6 59.1,51.6 58.3,51.3 C57.5,51.1 57.4,50.7 58,50.5 C58.7,50.3 59.9,50.4 60.7,50.6 Z"></path>
                            <path d="M135.5,30.9 L117.2,36.6 C116.7,36.7 115.9,36.7 115.3,36.6 L115.3,36.6 C114.7,36.4 114.6,36.2 115.1,36 L133.4,30.3 C133.9,30.2 134.7,30.2 135.3,30.3 L135.3,30.3 C135.9,30.5 136,30.8 135.5,30.9 Z"></path>
                            <path d="M157.9,23.9 L139.6,29.6 C139.1,29.7 138.3,29.7 137.7,29.6 L137.7,29.6 C137.1,29.4 137,29.2 137.5,29 L155.8,23.3 C156.3,23.2 157.1,23.2 157.7,23.3 L157.7,23.3 C158.3,23.5 158.4,23.7 157.9,23.9 Z"></path>
                            <path d="M65.9,52.2 C66.7,52.4 66.8,52.8 66.2,53 C65.6,53.2 64.3,53.2 63.5,52.9 C62.7,52.7 62.6,52.3 63.2,52.1 C63.9,51.9 65.1,51.9 65.9,52.2 Z"></path>
                            <path d="M156.9,27.4 L136.4,33.8 C135.9,33.9 135.1,33.9 134.5,33.8 L134.5,33.8 C133.9,33.6 133.8,33.4 134.3,33.2 L154.8,26.8 C155.3,26.7 156.1,26.7 156.7,26.8 L156.7,26.8 C157.3,27 157.4,27.3 156.9,27.4 Z"></path>
                            <path d="M185.5,18.4 L161.1,26.1 C160.6,26.2 159.8,26.2 159.2,26.1 L159.2,26.1 C158.6,25.9 158.5,25.7 159,25.5 L183.4,17.8 C183.9,17.7 184.7,17.7 185.3,17.8 L185.3,17.8 C185.9,18 186,18.3 185.5,18.4 Z"></path>
                            <path d="M71.1,53.8 C71.9,54 72,54.4 71.4,54.6 C70.7,54.8 69.5,54.8 68.7,54.5 C67.9,54.3 67.8,53.9 68.4,53.7 C69,53.5 70.3,53.5 71.1,53.8 Z"></path>
                            <path d="M176.2,24.6 L150.1,32.8 C149.6,32.9 148.8,32.9 148.2,32.8 L148.2,32.8 C147.6,32.6 147.5,32.4 148,32.2 L174.1,24 C174.6,23.9 175.4,23.9 176,24 L176,24 C176.6,24.2 176.7,24.4 176.2,24.6 Z"></path>
                            <path d="M76.3,55.3 C77.1,55.5 77.2,55.9 76.6,56.1 C75.9,56.3 74.7,56.3 73.9,56 C73.1,55.8 73,55.4 73.6,55.2 C74.3,55.1 75.5,55.1 76.3,55.3 Z"></path>
                            <path d="M117.2,46.3 L110.4,48.4 C109.9,48.5 109.1,48.5 108.5,48.4 L108.5,48.4 C107.9,48.2 107.8,48 108.3,47.8 L115.1,45.7 C115.6,45.6 116.4,45.6 117,45.7 L117,45.7 C117.6,45.9 117.7,46.2 117.2,46.3 Z"></path>
                            <path d="M145.2,37.5 L121.4,45 C120.9,45.1 120.1,45.1 119.5,45 L119.5,45 C118.9,44.8 118.8,44.6 119.3,44.4 L143.1,36.9 C143.6,36.8 144.4,36.8 145,36.9 L145,36.9 C145.6,37.1 145.6,37.4 145.2,37.5 Z"></path>
                            <path d="M173.5,28.6 L149.3,36.2 C148.8,36.3 148,36.3 147.4,36.2 L147.4,36.2 C146.8,36 146.7,35.8 147.2,35.6 L171.4,28 C171.9,27.9 172.7,27.9 173.3,28 L173.3,28 C173.9,28.2 174,28.5 173.5,28.6 Z"></path>
                            <path d="M207.1,18.1 L177.7,27.4 C177.2,27.5 176.4,27.5 175.8,27.4 L175.8,27.4 C175.2,27.2 175.1,27 175.6,26.8 L205,17.5 C205.5,17.4 206.3,17.4 206.9,17.5 L206.9,17.5 C207.4,17.7 207.5,17.9 207.1,18.1 Z"></path>
                            <path d="M81.5,56.9 C82.3,57.1 82.4,57.5 81.8,57.7 C81.1,57.9 79.9,57.9 79.1,57.6 C78.3,57.4 78.2,57 78.8,56.8 C79.5,56.6 80.7,56.7 81.5,56.9 Z"></path>
                            <path d="M101.8,54.4 L93.3,57.1 C92.8,57.2 92,57.2 91.4,57.1 L91.4,57.1 C90.8,56.9 90.7,56.7 91.2,56.5 L99.7,53.8 C100.2,53.7 101,53.7 101.6,53.8 L101.6,53.8 C102.2,54 102.2,54.2 101.8,54.4 Z"></path>
                            <path d="M125.4,46.9 L105.9,53 C105.4,53.1 104.6,53.1 104,53 L104,53 C103.4,52.8 103.3,52.6 103.8,52.4 L123.3,46.3 C123.8,46.2 124.6,46.2 125.2,46.3 L125.2,46.3 C125.8,46.5 125.9,46.8 125.4,46.9 Z"></path>
                            <path d="M86.7,58.5 C87.5,58.7 87.6,59.1 87,59.3 C86.3,59.5 85.1,59.5 84.3,59.2 C83.5,59 83.4,58.6 84,58.4 C84.6,58.2 85.8,58.2 86.7,58.5 Z"></path>
                            <path d="M91.9,60.1 C92.7,60.3 92.8,60.7 92.2,60.9 C91.5,61.1 90.3,61.1 89.5,60.8 C88.7,60.6 88.6,60.2 89.2,60 C89.8,59.8 91,59.8 91.9,60.1 Z"></path>
                            <g transform="translate(100.000000, 48.000000)">
                                <path d="M9.9,9.9 L3.1,12 C2.6,12.1 1.8,12.1 1.2,12 L1.2,12 C0.6,11.8 0.5,11.6 1,11.4 L7.8,9.3 C8.3,9.2 9.1,9.2 9.7,9.3 L9.7,9.3 C10.3,9.5 10.4,9.8 9.9,9.9 Z"></path>
                                <path d="M37.8,1.1 L14,8.6 C13.5,8.7 12.7,8.7 12.1,8.6 L12.1,8.6 C11.5,8.4 11.4,8.2 11.9,8 L35.7,0.5 C36.2,0.4 37,0.4 37.6,0.5 L37.6,0.5 C38.2,0.7 38.3,1 37.8,1.1 Z"></path>
                            </g>
                            <path d="M96.5,61.5 C97.3,61.7 97.4,62.1 96.8,62.3 C96.1,62.5 94.9,62.5 94.1,62.2 C93.3,62 93.2,61.6 93.8,61.4 C94.5,61.2 95.7,61.2 96.5,61.5 Z"></path>
                            <path d="M116.8,58.9 L108.3,61.6 C107.8,61.7 107,61.7 106.4,61.6 L106.4,61.6 C105.8,61.4 105.7,61.2 106.2,61 L114.7,58.3 C115.2,58.2 116,58.2 116.6,58.3 L116.6,58.3 C117.2,58.5 117.3,58.8 116.8,58.9 Z"></path>
                            <path d="M156.5,46.5 L121,57.6 C120.5,57.7 119.7,57.7 119.1,57.6 L119.1,57.6 C118.5,57.4 118.4,57.2 118.9,57 L154.5,45.8 C155,45.7 155.8,45.7 156.4,45.8 L156.4,45.8 C156.9,46 157,46.3 156.5,46.5 Z"></path>
                            <path d="M171.4,41.8 L160.7,45.2 C160.2,45.3 159.4,45.3 158.8,45.2 L158.8,45.2 C158.2,45 158.1,44.8 158.6,44.6 L169.3,41.2 C169.8,41.1 170.6,41.1 171.2,41.2 L171.2,41.2 C171.8,41.4 171.8,41.6 171.4,41.8 Z"></path>
                            <path d="M101.7,63 C102.5,63.2 102.6,63.6 102,63.8 C101.3,64 100.1,64 99.3,63.7 C98.5,63.5 98.4,63.1 99,62.9 C99.7,62.8 100.9,62.8 101.7,63 Z"></path>
                        </g>
                    </g>
                    <g transform="translate(103.000000, 31.000000)" id="Shape">
                        <path d="M47.3,24.6 L22.8,32.3 C22.3,32.4 21.5,32.4 20.9,32.3 L20.9,32.3 C20.3,32.1 20.2,31.9 20.7,31.7 L45.2,24 C45.7,23.9 46.5,23.9 47.1,24 L47.1,24 C47.7,24.2 47.8,24.5 47.3,24.6 Z"></path>
                        <path d="M43,29.2 L38.2,30.7 C37.7,30.8 36.9,30.8 36.3,30.7 L36.3,30.7 C35.7,30.5 35.6,30.3 36.1,30.1 L40.9,28.6 C41.4,28.5 42.2,28.5 42.8,28.6 L42.8,28.6 C43.4,28.8 43.4,29 43,29.2 Z"></path>
                        <path d="M123.5,3.9 L105.2,9.6 C104.7,9.7 103.9,9.7 103.3,9.6 L103.3,9.6 C102.7,9.4 102.6,9.2 103.1,9 L121.4,3.3 C121.9,3.2 122.7,3.2 123.3,3.3 L123.3,3.3 C123.9,3.4 124,3.7 123.5,3.9 Z"></path>
                        <path d="M100.2,14.4 L88.1,18.2 C87.6,18.3 86.8,18.3 86.2,18.2 L86.2,18.2 C85.6,18 85.5,17.8 86,17.6 L98.1,13.8 C98.6,13.7 99.4,13.7 100,13.8 L100,13.8 C100.6,14 100.6,14.3 100.2,14.4 Z"></path>
                        <path d="M85.9,25.3 L76.1,28.4 C75.6,28.5 74.8,28.5 74.2,28.4 L74.2,28.4 C73.6,28.2 73.5,28 74,27.8 L83.8,24.7 C84.3,24.6 85.1,24.6 85.7,24.7 L85.7,24.7 C86.3,24.9 86.4,25.1 85.9,25.3 Z"></path>
                        <path d="M161.5,1.5 L143.2,7.2 C142.7,7.3 141.9,7.3 141.3,7.2 L141.3,7.2 C140.7,7 140.6,6.8 141.1,6.6 L159.4,0.9 C159.9,0.8 160.7,0.8 161.3,0.9 L161.3,0.9 C161.9,1.1 162,1.4 161.5,1.5 Z"></path>
                        <path d="M129.8,14.7 L103.7,22.9 C103.2,23 102.4,23 101.8,22.9 L101.8,22.9 C101.2,22.7 101.1,22.5 101.6,22.3 L127.7,14.1 C128.2,14 129,14 129.6,14.1 L129.6,14.1 C130.2,14.3 130.3,14.6 129.8,14.7 Z"></path>
                        <path d="M70.8,36.5 L64,38.6 C63.5,38.7 62.7,38.7 62.1,38.6 L62.1,38.6 C61.5,38.4 61.4,38.2 61.9,38 L68.7,35.9 C69.2,35.8 70,35.8 70.6,35.9 L70.6,35.9 C71.2,36 71.3,36.3 70.8,36.5 Z"></path>
                        <path d="M171.9,4.7 L164.8,6.9 C164.3,7 163.5,7 162.9,6.9 L162.9,6.9 C162.3,6.7 162.2,6.5 162.7,6.3 L169.8,4.1 C170.3,4 171.1,4 171.7,4.1 L171.7,4.1 C172.3,4.3 172.4,4.5 171.9,4.7 Z"></path>
                        <path d="M79.1,37.1 L59.6,43.2 C59.1,43.3 58.3,43.3 57.7,43.2 L57.7,43.2 C57.1,43 57,42.8 57.5,42.6 L77,36.5 C77.5,36.4 78.3,36.4 78.9,36.5 L78.9,36.5 C79.5,36.7 79.6,36.9 79.1,37.1 Z"></path>
                        <path d="M65.7,47.8 L57.6,50.4 C57.1,50.5 56.3,50.5 55.7,50.4 L55.7,50.4 C55.1,50.2 55,50 55.5,49.8 L63.6,47.2 C64.1,47.1 64.9,47.1 65.5,47.2 L65.5,47.2 C66,47.4 66.1,47.7 65.7,47.8 Z"></path>
                        <path d="M112.7,33 L98.4,37.5 C97.9,37.6 97.1,37.6 96.5,37.5 L96.5,37.5 C95.9,37.3 95.8,37.1 96.3,36.9 L110.6,32.4 C111.1,32.3 111.9,32.3 112.5,32.4 L112.5,32.4 C113.1,32.6 113.2,32.9 112.7,33 Z"></path>
                        <path d="M170.5,18.1 L152.2,23.8 C151.7,23.9 150.9,23.9 150.3,23.8 L150.3,23.8 C149.7,23.6 149.6,23.4 150.1,23.2 L168.4,17.5 C168.9,17.4 169.7,17.4 170.3,17.5 L170.3,17.5 C170.9,17.7 171,17.9 170.5,18.1 Z"></path>
                        <path d="M100.6,43.3 L90.3,46.5 C89.8,46.6 89,46.6 88.4,46.5 L88.4,46.5 C87.8,46.3 87.7,46.1 88.2,45.9 L98.5,42.7 C99,42.6 99.8,42.6 100.4,42.7 L100.4,42.7 C101,42.9 101,43.1 100.6,43.3 Z"></path>
                        <path d="M157.8,25.3 L151.3,27.4 C150.8,27.5 150,27.5 149.4,27.4 L149.4,27.4 C148.8,27.2 148.7,27 149.2,26.8 L155.7,24.7 C156.2,24.6 157,24.6 157.6,24.7 L157.6,24.7 C158.2,24.9 158.3,25.1 157.8,25.3 Z"></path>
                        <path d="M132.9,39.5 L123.1,42.6 C122.6,42.7 121.8,42.7 121.2,42.6 L121.2,42.6 C120.6,42.4 120.5,42.2 121,42 L130.8,38.9 C131.3,38.8 132.1,38.8 132.7,38.9 L132.7,38.9 C133.3,39.1 133.4,39.4 132.9,39.5 Z"></path>
                        <path d="M208.5,15.8 L190.2,21.5 C189.7,21.6 188.9,21.6 188.3,21.5 L188.3,21.5 C187.7,21.3 187.6,21.1 188.1,20.9 L206.4,15.2 C206.9,15.1 207.7,15.1 208.3,15.2 L208.3,15.2 C208.9,15.3 209,15.6 208.5,15.8 Z"></path>
                        <path d="M146.5,38.4 L128.2,44.1 C127.7,44.2 126.9,44.2 126.3,44.1 L126.3,44.1 C125.7,43.9 125.6,43.7 126.1,43.5 L144.4,37.8 C144.9,37.7 145.7,37.7 146.3,37.8 L146.3,37.8 C146.9,38 147,38.3 146.5,38.4 Z"></path>
                        <path d="M191.3,24.4 L180.9,27.7 C180.4,27.8 179.6,27.8 179,27.7 L179,27.7 C178.4,27.5 178.3,27.3 178.8,27.1 L189.2,23.8 C189.7,23.7 190.5,23.7 191.1,23.8 L191.1,23.8 C191.7,24 191.8,24.2 191.3,24.4 Z"></path>
                        <path d="M218.9,18.9 L211.8,21.1 C211.3,21.2 210.5,21.2 209.9,21.1 L209.9,21.1 C209.3,20.9 209.2,20.7 209.7,20.5 L216.8,18.3 C217.3,18.2 218.1,18.2 218.7,18.3 L218.7,18.3 C219.3,18.5 219.4,18.7 218.9,18.9 Z"></path>
                        <path d="M156.9,41.6 L130.2,50 C129.7,50.1 128.9,50.1 128.3,50 L128.3,50 C127.7,49.8 127.6,49.6 128.1,49.4 L154.8,41 C155.3,40.9 156.1,40.9 156.7,41 L156.7,41 C157.3,41.2 157.4,41.4 156.9,41.6 Z"></path>
                        <g transform="translate(0.000000, 4.000000)">
                            <path d="M18.7,29.6 L10.6,32.2 C10.1,32.3 9.3,32.3 8.7,32.2 L8.7,32.2 C8.1,32 8,31.8 8.5,31.6 L16.6,29 C17.1,28.9 17.9,28.9 18.5,29 L18.5,29 C19.1,29.2 19.1,29.5 18.7,29.6 Z"></path>
                            <path d="M65.7,14.8 L51.4,19.3 C50.9,19.4 50.1,19.4 49.5,19.3 L49.5,19.3 C48.9,19.1 48.8,18.9 49.3,18.7 L63.6,14.2 C64.1,14.1 64.9,14.1 65.5,14.2 L65.5,14.2 C66.1,14.4 66.2,14.7 65.7,14.8 Z"></path>
                            <path d="M96,5.3 L69.9,13.5 C69.4,13.6 68.6,13.6 68,13.5 L68,13.5 C67.4,13.3 67.3,13.1 67.8,12.9 L93.9,4.7 C94.4,4.6 95.2,4.6 95.8,4.7 L95.8,4.7 C96.4,4.9 96.4,5.2 96,5.3 Z"></path>
                            <path d="M3.9,33.6 C4.7,33.8 4.8,34.2 4.2,34.4 C3.6,34.6 2.3,34.6 1.5,34.3 C0.7,34.1 0.6,33.7 1.2,33.5 C1.9,33.3 3.1,33.4 3.9,33.6 Z"></path>
                            <path d="M75,15.1 L47.1,23.9 C46.6,24 45.8,24 45.2,23.9 L45.2,23.9 C44.6,23.7 44.5,23.5 45,23.3 L72.9,14.5 C73.4,14.4 74.2,14.4 74.8,14.5 L74.8,14.5 C75.4,14.7 75.5,15 75,15.1 Z"></path>
                            <path d="M101.2,6.9 L79.2,13.8 C78.7,13.9 77.9,13.9 77.3,13.8 L77.3,13.8 C76.7,13.6 76.6,13.4 77.1,13.2 L99.1,6.3 C99.6,6.2 100.4,6.2 101,6.3 L101,6.3 C101.5,6.5 101.6,6.7 101.2,6.9 Z"></path>
                            <path d="M9.1,35.2 C9.9,35.4 10,35.8 9.4,36 C8.7,36.2 7.5,36.2 6.7,35.9 C5.9,35.7 5.8,35.3 6.4,35.1 C7,34.9 8.3,34.9 9.1,35.2 Z"></path>
                            <path d="M53.6,25.1 L43.3,28.3 C42.8,28.4 42,28.4 41.4,28.3 L41.4,28.3 C40.8,28.1 40.7,27.9 41.2,27.7 L51.5,24.5 C52,24.4 52.8,24.4 53.4,24.5 L53.4,24.5 C54,24.6 54.1,24.9 53.6,25.1 Z"></path>
                            <path d="M84,15.5 L57.8,23.8 C57.3,23.9 56.5,23.9 55.9,23.8 L55.9,23.8 C55.3,23.6 55.2,23.4 55.7,23.2 L81.9,14.9 C82.4,14.8 83.2,14.8 83.8,14.9 L83.8,14.9 C84.4,15.1 84.4,15.4 84,15.5 Z"></path>
                            <path d="M128.7,1.4 L104.3,9.1 C103.8,9.2 103,9.2 102.4,9.1 L102.4,9.1 C101.8,8.9 101.7,8.7 102.2,8.5 L126.6,0.8 C127.1,0.7 127.9,0.7 128.5,0.8 L128.5,0.8 C129.1,1 129.2,1.3 128.7,1.4 Z"></path>
                            <path d="M14.3,36.8 C15.1,37 15.2,37.4 14.6,37.6 C13.9,37.8 12.7,37.8 11.9,37.5 C11.1,37.3 11,36.9 11.6,36.7 C12.2,36.5 13.5,36.5 14.3,36.8 Z"></path>
                            <path d="M89.2,17.1 L70.9,22.8 C70.4,22.9 69.6,22.9 69,22.8 L69,22.8 C68.4,22.6 68.3,22.4 68.8,22.2 L87.1,16.5 C87.6,16.4 88.4,16.4 89,16.5 L89,16.5 C89.5,16.7 89.6,16.9 89.2,17.1 Z"></path>
                            <path d="M111.5,10 L93.2,15.7 C92.7,15.8 91.9,15.8 91.3,15.7 L91.3,15.7 C90.7,15.5 90.6,15.3 91.1,15.1 L109.4,9.4 C109.9,9.3 110.7,9.3 111.3,9.4 L111.3,9.4 C111.9,9.6 112,9.9 111.5,10 Z"></path>
                            <path d="M19.5,38.3 C20.3,38.5 20.4,38.9 19.8,39.1 C19.1,39.3 17.9,39.3 17.1,39 C16.3,38.8 16.2,38.4 16.8,38.2 C17.5,38.1 18.7,38.1 19.5,38.3 Z"></path>
                            <path d="M110.6,13.6 L90.1,20 C89.6,20.1 88.8,20.1 88.2,20 L88.2,20 C87.6,19.8 87.5,19.6 88,19.4 L108.5,13 C109,12.9 109.8,12.9 110.4,13 L110.4,13 C111,13.1 111,13.4 110.6,13.6 Z"></path>
                            <path d="M139.1,4.6 L114.7,12.3 C114.2,12.4 113.4,12.4 112.8,12.3 L112.8,12.3 C112.2,12.1 112.1,11.9 112.6,11.7 L137,4 C137.5,3.9 138.3,3.9 138.9,4 L138.9,4 C139.5,4.2 139.6,4.4 139.1,4.6 Z"></path>
                            <path d="M24.7,39.9 C25.5,40.1 25.6,40.5 25,40.7 C24.4,40.9 23.1,40.9 22.3,40.6 C21.5,40.4 21.4,40 22,39.8 C22.7,39.6 23.9,39.7 24.7,39.9 Z"></path>
                            <path d="M99.5,20.2 L81.2,25.9 C80.7,26 79.9,26 79.3,25.9 L79.3,25.9 C78.7,25.7 78.6,25.5 79.1,25.3 L97.4,19.6 C97.9,19.5 98.7,19.5 99.3,19.6 L99.3,19.6 C99.9,19.8 100,20.1 99.5,20.2 Z"></path>
                            <path d="M144.3,6.1 L133.9,9.4 C133.4,9.5 132.6,9.5 132,9.4 L132,9.4 C131.4,9.2 131.3,9 131.8,8.8 L142.2,5.5 C142.7,5.4 143.5,5.4 144.1,5.5 L144.1,5.5 C144.7,5.7 144.8,6 144.3,6.1 Z"></path>
                            <path d="M29.9,41.5 C30.7,41.7 30.8,42.1 30.2,42.3 C29.5,42.5 28.3,42.5 27.5,42.2 C26.7,42 26.6,41.6 27.2,41.4 C27.9,41.2 29.1,41.2 29.9,41.5 Z"></path>
                            <path d="M98.8,23.7 L75,31.2 C74.5,31.3 73.7,31.3 73.1,31.2 L73.1,31.2 C72.5,31 72.4,30.8 72.9,30.6 L96.7,23.1 C97.2,23 98,23 98.6,23.1 L98.6,23.1 C99.2,23.3 99.3,23.5 98.8,23.7 Z"></path>
                            <path d="M127.1,14.8 L102.9,22.4 C102.4,22.5 101.6,22.5 101,22.4 L101,22.4 C100.4,22.2 100.3,22 100.8,21.8 L125,14.2 C125.5,14.1 126.3,14.1 126.9,14.2 L126.9,14.2 C127.5,14.3 127.6,14.6 127.1,14.8 Z"></path>
                            <path d="M160.7,4.2 L131.3,13.5 C130.8,13.6 130,13.6 129.4,13.5 L129.4,13.5 C128.8,13.3 128.7,13.1 129.2,12.9 L158.6,3.6 C159.1,3.5 159.9,3.5 160.5,3.6 L160.5,3.6 C161.1,3.8 161.2,4.1 160.7,4.2 Z"></path>
                            <path d="M35.1,43 C35.9,43.2 36,43.6 35.4,43.8 C34.7,44 33.5,44 32.7,43.7 C31.9,43.5 31.8,43.1 32.4,42.9 C33.1,42.8 34.3,42.8 35.1,43 Z"></path>
                            <path d="M55.4,40.5 L46.9,43.2 C46.4,43.3 45.6,43.3 45,43.2 L45,43.2 C44.4,43 44.3,42.8 44.8,42.6 L53.3,39.9 C53.8,39.8 54.6,39.8 55.2,39.9 L55.2,39.9 C55.8,40.1 55.9,40.4 55.4,40.5 Z"></path>
                            <path d="M109.9,23.4 L83.2,31.8 C82.7,31.9 81.9,31.9 81.3,31.8 L81.3,31.8 C80.7,31.6 80.6,31.4 81.1,31.2 L107.8,22.8 C108.3,22.7 109.1,22.7 109.7,22.8 L109.7,22.8 C110.3,23 110.4,23.2 109.9,23.4 Z"></path>
                            <path d="M40.3,44.6 C41.1,44.8 41.2,45.2 40.6,45.4 C40,45.6 38.7,45.6 37.9,45.3 C37.1,45.1 37,44.7 37.6,44.5 C38.3,44.3 39.5,44.4 40.3,44.6 Z"></path>
                            <path d="M45.5,46.2 C46.3,46.4 46.4,46.8 45.8,47 C45.1,47.2 43.9,47.2 43.1,46.9 C42.3,46.7 42.2,46.3 42.8,46.1 C43.5,45.9 44.7,45.9 45.5,46.2 Z"></path>
                            <path d="M94.3,34.8 L69.8,42.5 C69.3,42.6 68.5,42.6 67.9,42.5 L67.9,42.5 C67.3,42.3 67.2,42.1 67.7,41.9 L92.2,34.2 C92.7,34.1 93.5,34.1 94.1,34.2 L94.1,34.2 C94.7,34.4 94.7,34.7 94.3,34.8 Z"></path>
                            <path d="M143,19.5 L116.9,27.7 C116.4,27.8 115.6,27.8 115,27.7 L115,27.7 C114.4,27.5 114.3,27.3 114.8,27.1 L140.9,18.9 C141.4,18.8 142.2,18.8 142.8,18.9 L142.8,18.9 C143.3,19.1 143.4,19.4 143,19.5 Z"></path>
                            <path d="M50.9,47.8 C51.7,48 51.8,48.4 51.2,48.6 C50.5,48.8 49.3,48.8 48.5,48.5 C47.7,48.3 47.6,47.9 48.2,47.7 C48.9,47.6 50.1,47.6 50.9,47.8 Z"></path>
                            <path d="M90,39.4 L85.2,40.9 C84.7,41 83.9,41 83.3,40.9 L83.3,40.9 C82.7,40.7 82.6,40.5 83.1,40.3 L87.9,38.8 C88.4,38.7 89.2,38.7 89.8,38.8 L89.8,38.8 C90.4,39 90.4,39.3 90,39.4 Z"></path>
                            <path d="M122,29.3 L94.1,38.1 C93.6,38.2 92.8,38.2 92.2,38.1 L92.2,38.1 C91.6,37.9 91.5,37.7 92,37.5 L119.9,28.7 C120.4,28.6 121.2,28.6 121.8,28.7 L121.8,28.7 C122.4,28.9 122.5,29.2 122,29.3 Z"></path>
                            <path d="M148.1,21.1 L126.1,28 C125.6,28.1 124.8,28.1 124.2,28 L124.2,28 C123.6,27.8 123.5,27.6 124,27.4 L146,20.5 C146.5,20.4 147.3,20.4 147.9,20.5 L147.9,20.5 C148.5,20.7 148.6,21 148.1,21.1 Z"></path>
                            <path d="M56.1,49.4 C56.9,49.6 57,50 56.4,50.2 C55.7,50.4 54.5,50.4 53.7,50.1 C52.9,49.9 52.8,49.5 53.4,49.3 C54.1,49.1 55.3,49.2 56.1,49.4 Z"></path>
                            <path d="M131,29.7 L104.8,38 C104.3,38.1 103.5,38.1 102.9,38 L102.9,38 C102.3,37.8 102.2,37.6 102.7,37.4 L128.9,29.1 C129.4,29 130.2,29 130.8,29.1 L130.8,29.1 C131.3,29.3 131.4,29.6 131,29.7 Z"></path>
                            <path d="M147.2,24.6 L135.1,28.4 C134.6,28.5 133.8,28.5 133.2,28.4 L133.2,28.4 C132.6,28.2 132.5,28 133,27.8 L145.1,24 C145.6,23.9 146.4,23.9 147,24 L147,24 C147.6,24.2 147.6,24.5 147.2,24.6 Z"></path>
                            <path d="M61.3,51 C62.1,51.2 62.2,51.6 61.6,51.8 C61,52 59.7,52 58.9,51.7 C58.1,51.5 58,51.1 58.6,50.9 C59.3,50.7 60.5,50.7 61.3,51 Z"></path>
                            <path d="M136.1,31.3 L117.8,37 C117.3,37.1 116.5,37.1 115.9,37 L115.9,37 C115.3,36.8 115.2,36.6 115.7,36.4 L134,30.7 C134.5,30.6 135.3,30.6 135.9,30.7 L135.9,30.7 C136.5,30.9 136.6,31.1 136.1,31.3 Z"></path>
                            <path d="M158.5,24.3 L140.2,30 C139.7,30.1 138.9,30.1 138.3,30 L138.3,30 C137.7,29.8 137.6,29.6 138.1,29.4 L156.4,23.7 C156.9,23.6 157.7,23.6 158.3,23.7 L158.3,23.7 C158.9,23.8 159,24.1 158.5,24.3 Z"></path>
                            <path d="M66.5,52.6 C67.3,52.8 67.4,53.2 66.8,53.4 C66.1,53.6 64.9,53.6 64.1,53.3 C63.3,53 63.2,52.7 63.8,52.5 C64.4,52.3 65.7,52.3 66.5,52.6 Z"></path>
                            <path d="M157.6,27.8 L137.1,34.2 C136.6,34.3 135.8,34.3 135.2,34.2 L135.2,34.2 C134.6,34 134.5,33.8 135,33.6 L155.5,27.2 C156,27.1 156.8,27.1 157.4,27.2 L157.4,27.2 C157.9,27.4 158,27.6 157.6,27.8 Z"></path>
                            <path d="M186.1,18.8 L161.7,26.5 C161.2,26.6 160.4,26.6 159.8,26.5 L159.8,26.5 C159.2,26.3 159.1,26.1 159.6,25.9 L184,18.2 C184.5,18.1 185.3,18.1 185.9,18.2 L185.9,18.2 C186.5,18.4 186.6,18.6 186.1,18.8 Z"></path>
                            <path d="M71.7,54.1 C72.5,54.3 72.6,54.7 72,54.9 C71.3,55.1 70.1,55.1 69.3,54.8 C68.5,54.6 68.4,54.2 69,54 C69.7,53.8 70.9,53.9 71.7,54.1 Z"></path>
                            <path d="M176.8,24.9 L150.7,33.1 C150.2,33.2 149.4,33.2 148.8,33.1 L148.8,33.1 C148.2,32.9 148.1,32.7 148.6,32.5 L174.7,24.3 C175.2,24.2 176,24.2 176.6,24.3 L176.6,24.3 C177.2,24.5 177.3,24.8 176.8,24.9 Z"></path>
                            <path d="M76.9,55.7 C77.7,55.9 77.8,56.3 77.2,56.5 C76.5,56.7 75.3,56.7 74.5,56.4 C73.7,56.2 73.6,55.8 74.2,55.6 C74.9,55.4 76.1,55.5 76.9,55.7 Z"></path>
                            <path d="M117.8,46.7 L111,48.8 C110.5,48.9 109.7,48.9 109.1,48.8 L109.1,48.8 C108.5,48.6 108.4,48.4 108.9,48.2 L115.7,46.1 C116.2,46 117,46 117.6,46.1 L117.6,46.1 C118.2,46.3 118.3,46.5 117.8,46.7 Z"></path>
                            <path d="M145.8,37.9 L122,45.4 C121.5,45.5 120.7,45.5 120.1,45.4 L120.1,45.4 C119.5,45.2 119.4,45 119.9,44.8 L143.7,37.3 C144.2,37.2 145,37.2 145.6,37.3 L145.6,37.3 C146.2,37.5 146.3,37.7 145.8,37.9 Z"></path>
                            <path d="M174.1,29 L149.9,36.6 C149.4,36.7 148.6,36.7 148,36.6 L148,36.6 C147.4,36.4 147.3,36.2 147.8,36 L172,28.4 C172.5,28.3 173.3,28.3 173.9,28.4 L173.9,28.4 C174.5,28.6 174.6,28.8 174.1,29 Z"></path>
                            <path d="M207.7,18.4 L178.3,27.7 C177.8,27.8 177,27.8 176.4,27.7 L176.4,27.7 C175.8,27.5 175.7,27.3 176.2,27.1 L205.6,17.8 C206.1,17.7 206.9,17.7 207.5,17.8 L207.5,17.8 C208.1,18 208.2,18.3 207.7,18.4 Z"></path>
                            <path d="M82.1,57.3 C82.9,57.5 83,57.9 82.4,58.1 C81.7,58.3 80.5,58.3 79.7,58 C78.9,57.8 78.8,57.4 79.4,57.2 C80,57 81.3,57 82.1,57.3 Z"></path>
                            <path d="M102.4,54.7 L93.9,57.4 C93.4,57.5 92.6,57.5 92,57.4 L92,57.4 C91.4,57.2 91.3,57 91.8,56.8 L100.3,54.1 C100.8,54 101.6,54 102.2,54.1 L102.2,54.1 C102.8,54.3 102.9,54.6 102.4,54.7 Z"></path>
                            <path d="M126.1,47.3 L106.6,53.4 C106.1,53.5 105.3,53.5 104.7,53.4 L104.7,53.4 C104.1,53.2 104,53 104.5,52.8 L124,46.7 C124.5,46.6 125.3,46.6 125.9,46.7 L125.9,46.7 C126.5,46.9 126.6,47.1 126.1,47.3 Z"></path>
                            <path d="M87.3,58.8 C88.1,59 88.2,59.4 87.6,59.6 C86.9,59.8 85.7,59.8 84.9,59.5 C84.1,59.3 84,58.9 84.6,58.7 C85.3,58.6 86.5,58.6 87.3,58.8 Z"></path>
                            <path d="M92.5,60.4 C93.3,60.6 93.4,61 92.8,61.2 C92.1,61.4 90.9,61.4 90.1,61.1 C89.3,60.9 89.2,60.5 89.8,60.3 C90.5,60.1 91.7,60.2 92.5,60.4 Z"></path>
                            <g transform="translate(101.000000, 48.000000)">
                                <path d="M9.5,10.3 L2.7,12.4 C2.2,12.5 1.4,12.5 0.8,12.4 L0.8,12.4 C0.2,12.2 0.1,12 0.6,11.8 L7.4,9.7 C7.9,9.6 8.7,9.6 9.3,9.7 L9.3,9.7 C9.9,9.9 10,10.1 9.5,10.3 Z"></path>
                                <path d="M37.5,1.5 L13.7,9 C13.2,9.1 12.4,9.1 11.8,9 L11.8,9 C11.2,8.8 11.1,8.6 11.6,8.4 L35.4,0.9 C35.9,0.8 36.7,0.8 37.3,0.9 L37.3,0.9 C37.9,1.1 38,1.3 37.5,1.5 Z"></path>
                            </g>
                            <path d="M97.2,61.8 C98,62 98.1,62.4 97.5,62.6 C96.8,62.8 95.6,62.8 94.8,62.5 C94,62.3 93.9,61.9 94.5,61.7 C95.2,61.6 96.4,61.6 97.2,61.8 Z"></path>
                            <path d="M117.5,59.3 L109,62 C108.5,62.1 107.7,62.1 107.1,62 L107.1,62 C106.5,61.8 106.4,61.6 106.9,61.4 L115.4,58.7 C115.9,58.6 116.7,58.6 117.3,58.7 L117.3,58.7 C117.9,58.9 118,59.1 117.5,59.3 Z"></path>
                            <path d="M157.2,46.8 L121.6,58 C121.1,58.1 120.3,58.1 119.7,58 L119.7,58 C119.1,57.8 119,57.6 119.5,57.4 L155.1,46.2 C155.6,46.1 156.4,46.1 157,46.2 L157,46.2 C157.6,46.4 157.6,46.7 157.2,46.8 Z"></path>
                            <path d="M172,42.2 L161.3,45.6 C160.8,45.7 160,45.7 159.4,45.6 L159.4,45.6 C158.8,45.4 158.7,45.2 159.2,45 L169.9,41.6 C170.4,41.5 171.2,41.5 171.8,41.6 L171.8,41.6 C172.4,41.7 172.5,42 172,42.2 Z"></path>
                            <path d="M102.4,63.4 C103.2,63.6 103.3,64 102.7,64.2 C102,64.4 100.8,64.4 100,64.1 C99.2,63.9 99.1,63.5 99.7,63.3 C100.3,63.1 101.6,63.2 102.4,63.4 Z"></path>
                            <path d="M107.6,65 C108.4,65.2 108.5,65.6 107.9,65.8 C107.2,66 106,66 105.2,65.7 C104.4,65.5 104.3,65.1 104.9,64.9 C105.6,64.7 106.8,64.7 107.6,65 Z"></path>
                        </g>
                    </g>
                </g>
                <polygon id="Shape" fill="#17142D" fill-rule="nonzero" opacity="0.5" points="170 175 88.5 200.5 240.8 248.5 322.2 223"></polygon>
                <g id="Group" transform="translate(0.000000, 85.000000)" fill-rule="nonzero">
                    <polygon id="Shape" fill="url(#linearGradient-4)" points="169.9 0 0.2 53.3 237.5 129 407.4 74.7"></polygon>
                    <polygon id="Shape" fill="url(#linearGradient-5)" points="237.5 138 407.4 84.6 407.4 74.7 237.5 128"></polygon>
                    <polygon id="Shape" fill="#D7D7F4" points="237.7 137.9 0.2 63.2 0.2 53.3 237.7 128"></polygon>
                </g>
                <g id="Group" transform="translate(71.000000, 110.000000)" fill-rule="nonzero" fill="#908FAB">
                    <g transform="translate(127.000000, 21.000000)" id="Shape">
                        <g opacity="0.3" transform="translate(12.000000, 6.000000)">
                            <path d="M21.4,1.6 L3.7,6.9 C3.1,7.1 2,7 1.3,6.8 L1.3,6.8 C0.5,6.6 0.3,6.2 0.9,6 L18.6,0.7 C19.2,0.5 20.3,0.6 21,0.8 L21,0.8 C21.8,1.1 22,1.4 21.4,1.6 Z"></path>
                            <path d="M18.2,5.7 L8.9,8.5 C8.3,8.7 7.2,8.6 6.5,8.4 L6.5,8.4 C5.7,8.2 5.5,7.8 6.1,7.6 L15.4,4.8 C16,4.6 17.1,4.7 17.8,4.9 L17.8,4.9 C18.6,5.2 18.8,5.5 18.2,5.7 Z"></path>
                        </g>
                        <g>
                            <path d="M0.5,2.6 L3.7,3.6 C12.6,1 29.6,2 41.8,5.8 L44.1,5.1 C30.1,0.7 10.6,-0.4 0.5,2.6 Z"></path>
                            <path d="M41.8,5.8 C54,9.7 56.7,14.9 47.8,17.5 C39.3,20 23.3,19.2 11.2,15.8 C10.3,15.5 9.2,15.5 8.6,15.7 L8.6,15.7 C7.9,15.9 8.2,16.3 9.1,16.6 C22.9,20.6 41.2,21.5 51,18.6 C61.1,15.6 58,9.6 44.1,5.2 L41.8,5.8 Z" opacity="0.3"></path>
                        </g>
                    </g>
                    <g transform="translate(140.000000, 62.000000)" id="Shape">
                        <g opacity="0.3" transform="translate(12.000000, 6.000000)">
                            <path d="M21.4,1.1 L3.7,6.4 C3.1,6.6 2,6.5 1.3,6.3 L1.3,6.3 C0.5,6.1 0.3,5.7 0.9,5.5 L18.6,0.2 C19.2,6.9388939e-17 20.3,0.1 21,0.3 L21,0.3 C21.8,0.6 22,1 21.4,1.1 Z"></path>
                            <path d="M18.2,5.3 L8.9,8.1 C8.3,8.3 7.2,8.2 6.5,8 L6.5,8 C5.7,7.8 5.5,7.4 6.1,7.2 L15.4,4.4 C16,4.2 17.1,4.3 17.8,4.5 L17.8,4.5 C18.6,4.7 18.8,5.1 18.2,5.3 Z"></path>
                        </g>
                        <g>
                            <path d="M0.5,2.2 L3.7,3.2 C12.6,0.6 29.6,1.6 41.8,5.4 L44.1,4.7 C30.1,0.3 10.6,-0.8 0.5,2.2 Z"></path>
                            <path d="M41.8,5.4 C54,9.3 56.7,14.5 47.8,17.1 C39.3,19.6 23.3,18.8 11.2,15.4 C10.3,15.1 9.2,15.1 8.6,15.3 L8.6,15.3 C7.9,15.5 8.2,15.9 9.1,16.2 C22.9,20.2 41.2,21.1 51,18.2 C61.1,15.2 58,9.2 44.1,4.8 L41.8,5.4 Z" opacity="0.3"></path>
                        </g>
                    </g>
                    <g transform="translate(52.000000, 0.000000)" id="Shape">
                        <g opacity="0.3" transform="translate(18.000000, 5.000000)">
                            <path d="M21,1.7 L3.3,7 C2.7,7.2 1.6,7.1 0.9,6.9 L0.9,6.9 C0.1,6.7 -0.1,6.3 0.5,6.1 L18.2,0.8 C18.8,0.6 19.9,0.7 20.6,0.9 L20.6,0.9 C21.4,1.1 21.6,1.5 21,1.7 Z"></path>
                            <path d="M17.8,5.8 L8.5,8.6 C7.9,8.8 6.8,8.7 6.1,8.5 L6.1,8.5 C5.3,8.3 5.1,7.9 5.7,7.7 L15,4.9 C15.6,4.7 16.7,4.8 17.4,5 L17.4,5 C18.2,5.3 18.4,5.6 17.8,5.8 Z"></path>
                        </g>
                        <g>
                            <path d="M15.3,14.4 C9.7,12.6 6.2,10.6 4.7,8.6 C4.5,8.3 3.5,8 2.5,7.9 L2.5,7.9 C1.4,7.8 0.7,8.1 0.9,8.4 C2.5,10.6 6.6,13 13,15 C26.9,19.4 46.4,20.5 56.6,17.5 L53.4,16.5 C44.6,19.3 27.5,18.3 15.3,14.4 Z" opacity="0.3"></path>
                            <path d="M6.1,1.7 L9.3,2.7 C18.2,0.1 35.2,1.1 47.4,4.9 C53.5,6.8 57.2,9.1 58.3,11.2 C59.4,13.3 57.9,15.3 53.4,16.6 L56.6,17.6 C61.7,16.1 63.4,13.8 62.2,11.4 C61,9 56.7,6.4 49.7,4.2 C35.7,-0.2 16.2,-1.3 6.1,1.7 Z"></path>
                        </g>
                    </g>
                    <g transform="translate(192.000000, 44.000000)" id="Shape">
                        <g opacity="0.3" transform="translate(17.000000, 5.000000)">
                            <path d="M21.3,1.6 L3.6,6.9 C3,7.1 1.9,7 1.2,6.8 L1.2,6.8 C0.4,6.6 0.2,6.2 0.8,6 L18.5,0.7 C19.1,0.5 20.2,0.6 20.9,0.8 L20.9,0.8 C21.7,1.1 21.8,1.5 21.3,1.6 Z"></path>
                            <path d="M18.1,5.8 L8.8,8.6 C8.2,8.8 7.1,8.7 6.4,8.5 L6.4,8.5 C5.6,8.3 5.4,7.9 6,7.7 L15.3,4.9 C15.9,4.7 17,4.8 17.7,5 L17.7,5 C18.5,5.3 18.6,5.6 18.1,5.8 Z"></path>
                        </g>
                        <g>
                            <path d="M14.5,14.4 C8.9,12.6 5.4,10.6 3.9,8.6 C3.7,8.3 2.7,8 1.7,7.9 L1.7,7.9 C0.6,7.8 -0.1,8.1 0.1,8.4 C1.7,10.6 5.8,13 12.2,15 C26.1,19.4 45.6,20.5 55.8,17.5 L52.6,16.5 C43.8,19.2 26.7,18.3 14.5,14.4 Z" opacity="0.3"></path>
                            <path d="M5.3,1.7 L8.5,2.7 C17.4,0.1 34.4,1.1 46.6,4.9 C52.7,6.8 56.4,9.1 57.5,11.2 C58.6,13.3 57.1,15.3 52.6,16.6 L55.8,17.6 C60.9,16.1 62.6,13.8 61.4,11.4 C60.2,9 55.9,6.4 48.9,4.2 C35,-0.2 15.5,-1.3 5.3,1.7 Z"></path>
                        </g>
                    </g>
                    <g transform="translate(70.000000, 40.000000)" id="Shape">
                        <g opacity="0.3" transform="translate(12.000000, 5.000000)">
                            <path d="M21.8,2 L4.1,7.3 C3.5,7.5 2.4,7.4 1.7,7.2 L1.7,7.2 C0.9,7 0.7,6.6 1.3,6.4 L19,1.1 C19.6,0.9 20.7,1 21.4,1.2 L21.4,1.2 C22.2,1.5 22.3,1.9 21.8,2 Z"></path>
                            <path d="M18.6,6.2 L9.3,9 C8.7,9.2 7.6,9.1 6.9,8.9 L6.9,8.9 C6.1,8.7 5.9,8.3 6.5,8.1 L15.8,5.3 C16.4,5.1 17.5,5.2 18.2,5.4 L18.2,5.4 C19,5.7 19.1,6 18.6,6.2 Z"></path>
                        </g>
                        <g>
                            <path d="M42.1,5.3 C48.2,7.2 51.9,9.5 53,11.6 L56.9,11.8 C55.7,9.4 51.4,6.8 44.4,4.6 C30.5,0.2 11,-0.9 0.8,2.1 L4,3.1 C12.9,0.4 29.9,1.4 42.1,5.3 Z"></path>
                            <path d="M53,11.6 C54,13.5 52.8,15.4 49.2,16.7 C48.6,16.9 48.9,17.3 49.7,17.5 L49.7,17.5 C50.6,17.8 51.9,17.9 52.5,17.6 C56.7,16.1 58.1,14 56.9,11.8 L53,11.6 Z" opacity="0.3"></path>
                        </g>
                    </g>
                    <g transform="translate(0.000000, 22.000000)" id="Shape">
                        <path d="M21.6,1.9 L18.9,2.4 C18.2,2.3 17.6,2.1 16.9,2 L15.8,0.8 C15.6,0.6 15,0.4 14.3,0.4 L12.1,0.3 C11.4,0.3 11,0.4 11,0.6 L11,1.7 C10.4,1.7 9.8,1.8 9.2,1.8 L5.8,0.9 C5.2,0.7 4.5,0.7 4.1,0.8 L2.8,1.2 C2.4,1.3 2.5,1.5 2.9,1.7 L5.6,2.8 C5.4,3 5.2,3.2 5.1,3.3 L1.4,3.3 C0.8,3.3 0.4,3.4 0.5,3.6 L0.9,4.3 C1,4.5 1.6,4.7 2.2,4.8 L6,5.2 C6.3,5.4 6.7,5.6 7.1,5.8 L5.3,6.6 C5,6.7 5.2,7 5.7,7.1 L7.5,7.7 C8,7.9 8.8,7.9 9.2,7.8 L11.9,7.3 C12.6,7.4 13.2,7.6 13.9,7.7 L15,8.9 C15.2,9.1 15.8,9.3 16.5,9.3 L18.7,9.4 C19.4,9.4 19.8,9.3 19.8,9.1 L19.8,8 C20.4,8 21,7.9 21.6,7.9 L25,8.8 C25.6,9 26.3,9 26.7,8.9 L28,8.5 C28.4,8.4 28.3,8.2 27.9,8 L25.2,6.9 C25.4,6.7 25.6,6.5 25.7,6.4 L29.4,6.4 C30,6.4 30.4,6.3 30.3,6.1 L29.9,5.4 C29.8,5.2 29.2,5 28.6,4.9 L24.8,4.5 C24.5,4.3 24.1,4.1 23.7,3.9 L25.5,3.1 C25.8,3 25.6,2.7 25.1,2.6 L23.3,2 C22.8,1.9 22.1,1.9 21.6,1.9 Z M20.4,6.5 C18.4,7.1 14.6,6.9 11.9,6 C9.2,5.1 8.6,4 10.6,3.4 C12.6,2.8 16.4,3 19.1,3.9 C21.8,4.8 22.3,6 20.4,6.5 Z"></path>
                        <path d="M54.1,4.8 L50.6,4.9 C50.1,4.7 49.5,4.5 48.9,4.4 L49.2,3.3 C49.3,3.1 48.8,2.9 48.2,2.8 L46,2.4 C45.4,2.3 44.7,2.3 44.5,2.5 L43.1,3.4 C42.4,3.3 41.7,3.3 41,3.3 L38.5,2.2 C38.1,2 37.3,1.9 36.8,1.9 L34.9,2.1 C34.3,2.1 34.1,2.3 34.4,2.5 L35.9,3.7 C35.4,3.8 35,3.9 34.7,4.1 L30.9,3.6 C30.2,3.5 29.6,3.6 29.5,3.8 L29,4.4 C28.9,4.6 29.2,4.8 29.8,4.9 L33.4,5.7 C33.4,5.9 33.6,6.1 33.8,6.3 L30.9,6.7 C30.4,6.8 30.3,7 30.6,7.2 L31.8,7.9 C32.2,8.1 32.9,8.2 33.5,8.2 L37,8.1 C37.5,8.3 38.1,8.5 38.7,8.6 L38.4,9.7 C38.3,9.9 38.8,10.1 39.4,10.2 L41.6,10.6 C42.2,10.7 42.9,10.7 43.1,10.5 L44.5,9.6 C45.2,9.7 45.9,9.7 46.6,9.7 L49.1,10.8 C49.5,11 50.3,11.1 50.8,11.1 L52.7,10.9 C53.3,10.9 53.5,10.7 53.2,10.5 L51.7,9.3 C52.2,9.2 52.6,9.1 52.9,8.9 L56.7,9.4 C57.4,9.5 58,9.4 58.1,9.2 L58.6,8.6 C58.7,8.4 58.4,8.2 57.8,8.1 L54.2,7.3 C54.2,7.1 54,6.9 53.8,6.7 L56.7,6.3 C57.2,6.2 57.3,6 57,5.8 L55.8,5.1 C55.4,4.9 54.7,4.8 54.1,4.8 Z M47,8.3 C44.2,8.5 40.4,7.9 38.6,6.9 C36.8,5.9 37.6,4.9 40.5,4.6 C43.4,4.3 47.1,5 48.9,6 C50.7,7.1 49.8,8.1 47,8.3 Z"></path>
                    </g>
                </g>
                <polygon id="Shape" fill="#4744A5" fill-rule="nonzero" opacity="0.2" points="170 86 88.5 111.5 240.8 159.5 322.2 134"></polygon>
                <g id="Group" fill-rule="nonzero">
                    <polygon id="Shape" fill="url(#linearGradient-6)" points="169.9 0 0.2 53.3 237.5 128.5 407.4 74.7"></polygon>
                    <polygon id="Shape" fill="url(#linearGradient-6)" points="237.7 137.9 407.4 84.6 407.4 74.7 237.7 128"></polygon>
                    <polygon id="Shape" fill="url(#linearGradient-7)" points="237.7 137.9 0.2 63.2 0.2 53.3 237.7 128"></polygon>
                </g>
                <g id="Group" opacity="0.75" transform="translate(0.000000, 64.000000)" stroke-linecap="round" stroke="#201C38" stroke-dasharray="0,3.9578">
                    <g opacity="0.5" transform="translate(407.000000, 21.000000)" id="Shape">
                        <g>
                            <path d="M0.4,166.6 L0.4,2.4"></path>
                        </g>
                    </g>
                    <g opacity="0.5" transform="translate(237.000000, 74.000000)" id="Shape">
                        <g>
                            <path d="M0.7,4.6 L0.7,168.9"></path>
                        </g>
                    </g>
                    <g id="Shape">
                        <g>
                            <path d="M0.2,166.2 L0.2,2"></path>
                        </g>
                    </g>
                </g>
                <g id="Group" transform="translate(56.000000, 18.000000)" fill-rule="nonzero">
                    <g transform="translate(131.000000, 40.000000)" id="Shape" fill="url(#linearGradient-7)">
                        <path d="M40.3,33.6 L10.5,42.7 C9.1,43.1 7.3,43.2 6.4,42.9 L1.5,41.4 C0.6,41.1 0.9,40.6 2.2,40.1 L32,31 C33.4,30.6 35.2,30.5 36.1,30.8 L41,32.3 C42,32.6 41.7,33.2 40.3,33.6 Z"></path>
                        <path d="M97.8,16 L58.2,28.1 C56.8,28.5 55,28.6 54.1,28.3 L49.2,26.8 C48.3,26.5 48.6,26 49.9,25.5 L89.5,13.4 C90.9,13 92.7,12.9 93.6,13.2 L98.5,14.7 C99.5,15 99.2,15.6 97.8,16 Z"></path>
                        <path d="M138.8,3.5 L113.7,11.2 C112.3,11.6 110.5,11.7 109.6,11.4 L104.7,9.9 C103.8,9.6 104.1,9.1 105.4,8.6 L130.5,0.9 C131.9,0.5 133.7,0.4 134.6,0.7 L139.5,2.2 C140.5,2.5 140.2,3.1 138.8,3.5 Z"></path>
                    </g>
                    <g transform="translate(146.000000, 52.000000)" id="Shape" fill="url(#linearGradient-7)">
                        <path d="M33.3,28 L10.2,35.1 C8.8,35.5 7,35.6 6.1,35.3 L1.2,33.8 C0.3,33.5 0.6,33 1.9,32.5 L25,25.4 C26.4,25 28.2,24.9 29.1,25.2 L34,26.7 C35,27 34.7,27.6 33.3,28 Z"></path>
                        <path d="M67,17.7 L48.7,23.3 C47.3,23.7 45.5,23.8 44.6,23.5 L39.7,22 C38.8,21.7 39.1,21.2 40.4,20.7 L58.7,15.1 C60.1,14.7 61.9,14.6 62.8,14.9 L67.7,16.4 C68.6,16.7 68.3,17.3 67,17.7 Z"></path>
                        <path d="M113,3.6 L82.4,13 C81,13.4 79.2,13.5 78.3,13.2 L73.4,11.7 C72.5,11.4 72.8,10.9 74.1,10.4 L104.7,1 C106.1,0.6 107.9,0.5 108.8,0.8 L113.7,2.3 C114.6,2.6 114.3,3.2 113,3.6 Z"></path>
                    </g>
                    <g transform="translate(161.000000, 53.000000)" id="Shape" fill="url(#linearGradient-7)">
                        <path d="M57.6,23.8 L9.8,38.4 C8.4,38.8 6.6,38.9 5.7,38.6 L0.8,37.1 C-0.1,36.8 0.2,36.3 1.5,35.8 L49.3,21.2 C50.7,20.8 52.5,20.7 53.4,21 L58.3,22.5 C59.2,22.8 58.9,23.3 57.6,23.8 Z"></path>
                        <path d="M122.6,3.9 L74,18.7 C72.6,19.1 70.8,19.2 69.9,18.9 L65,17.4 C64.1,17.1 64.4,16.6 65.7,16.1 L114.4,1.2 C115.8,0.8 117.6,0.7 118.5,1 L123.4,2.5 C124.3,2.9 124,3.4 122.6,3.9 Z"></path>
                    </g>
                    <g transform="translate(36.000000, 13.000000)" id="Shape">
                        <path d="M6.8,35.3 L11.9,35.5 C12.3,35.5 12.7,35.5 13,35.4 L18.2,34.1 C19.1,33.9 20.1,34 19.9,34.3 L18.8,36 C18.7,36.1 18.8,36.2 19.1,36.3 L23.2,37 C23.9,37.1 23.5,37.5 22.5,37.7 L16.7,38.5 C16.3,38.6 16,38.7 15.8,38.8 L13.1,40.6 C12.6,40.9 11.3,41 10.9,40.8 L8.4,39.6 C8.2,39.5 7.9,39.5 7.5,39.5 L1.7,39.9 C0.7,40 0.3,39.7 1.1,39.4 L5.4,37.8 C5.7,37.7 5.8,37.6 5.8,37.5 L4.9,36 C4.8,35.5 5.9,35.2 6.8,35.3 Z" fill="url(#linearGradient-7)"></path>
                        <path d="M34.2,26.9 L39.3,27.1 C39.7,27.1 40.1,27.1 40.4,27 L45.6,25.7 C46.5,25.5 47.5,25.6 47.3,25.9 L46.2,27.6 C46.1,27.7 46.2,27.8 46.5,27.9 L50.6,28.6 C51.3,28.7 50.9,29.1 49.9,29.3 L44.1,30.1 C43.7,30.2 43.4,30.3 43.2,30.4 L40.5,32.2 C40,32.5 38.7,32.6 38.3,32.4 L35.8,31.2 C35.6,31.1 35.3,31.1 34.9,31.1 L29.1,31.5 C28.1,31.6 27.7,31.3 28.5,31 L32.8,29.4 C33.1,29.3 33.2,29.2 33.2,29.1 L32.3,27.6 C32.2,27.2 33.3,26.8 34.2,26.9 Z" fill="url(#linearGradient-7)"></path>
                        <path d="M61.6,18.5 L66.7,18.7 C67.1,18.7 67.5,18.7 67.8,18.6 L73,17.3 C73.9,17.1 74.9,17.2 74.7,17.5 L73.6,19.2 C73.5,19.3 73.6,19.4 73.9,19.5 L78,20.2 C78.7,20.3 78.3,20.7 77.3,20.9 L71.5,21.7 C71.1,21.8 70.8,21.9 70.6,22 L67.9,23.8 C67.4,24.1 66.1,24.2 65.7,24 L63.2,22.8 C63,22.7 62.7,22.7 62.3,22.7 L56.5,23.1 C55.5,23.2 55.1,22.9 55.9,22.6 L60.2,21 C60.5,20.9 60.6,20.8 60.6,20.7 L59.7,19.2 C59.6,18.8 60.7,18.4 61.6,18.5 Z" fill="url(#linearGradient-7)"></path>
                        <path d="M89,10.1 L94.1,10.3 C94.5,10.3 94.9,10.3 95.2,10.2 L100.4,8.9 C101.3,8.7 102.3,8.8 102.1,9.1 L101,10.8 C100.9,10.9 101,11 101.3,11.1 L105.4,11.8 C106.1,11.9 105.7,12.3 104.7,12.5 L98.9,13.3 C98.5,13.4 98.2,13.5 98,13.6 L95.3,15.4 C94.8,15.7 93.5,15.8 93.1,15.6 L90.6,14.4 C90.4,14.3 90.1,14.3 89.7,14.3 L83.9,14.7 C82.9,14.8 82.5,14.5 83.3,14.2 L87.6,12.6 C87.9,12.5 88,12.4 88,12.3 L87.1,10.8 C87,10.4 88.1,10.1 89,10.1 Z" fill="url(#linearGradient-8)" opacity="0.3"></path>
                        <path d="M116.3,1.7 L121.4,1.9 C121.8,1.9 122.2,1.9 122.5,1.8 L127.7,0.5 C128.6,0.3 129.6,0.4 129.4,0.7 L128.3,2.4 C128.2,2.5 128.3,2.6 128.6,2.7 L132.7,3.4 C133.4,3.5 133,3.9 132,4.1 L126.2,4.9 C125.8,5 125.5,5.1 125.3,5.2 L122.6,7 C122.1,7.3 120.8,7.4 120.4,7.2 L117.9,6 C117.7,5.9 117.4,5.9 117,5.9 L111.2,6.3 C110.2,6.4 109.8,6.1 110.6,5.8 L114.9,4.2 C115.2,4.1 115.3,4 115.3,3.9 L114.4,2.4 C114.4,2 115.5,1.7 116.3,1.7 Z" fill="url(#linearGradient-8)" opacity="0.3"></path>
                    </g>
                    <g transform="translate(81.000000, 42.000000)" id="Shape">
                        <path d="M20.9,23.1 L12.9,25.5 C11,26.1 8.4,26.2 7.1,25.8 L1.6,24.2 C0.3,23.8 0.8,23 2.6,22.4 L10.6,20 C12.5,19.4 15.1,19.3 16.4,19.7 L21.9,21.3 C23.3,21.7 22.8,22.5 20.9,23.1 Z" fill="url(#linearGradient-7)"></path>
                        <path d="M83.6,1.8 L28.4,18.7 C27.2,19.1 25.4,19.2 24.6,18.9 L24.6,18.9 C23.7,18.6 24,18.1 25.3,17.7 L80.5,0.8 C81.7,0.4 83.5,0.3 84.3,0.6 L84.3,0.6 C85.1,0.9 84.8,1.4 83.6,1.8 Z" fill="url(#linearGradient-9)" opacity="0.3"></path>
                    </g>
                    <g transform="translate(99.000000, 43.000000)" id="Shape">
                        <path d="M20.3,27.2 L12.3,29.6 C10.4,30.2 7.8,30.3 6.5,29.9 L1,28.3 C-0.3,27.9 0.2,27.1 2,26.5 L10,24.1 C11.9,23.5 14.5,23.4 15.8,23.8 L21.3,25.4 C22.6,25.9 22.2,26.6 20.3,27.2 Z" fill="url(#linearGradient-7)"></path>
                        <path d="M97.3,1.5 L27.8,22.8 C26.6,23.2 24.8,23.3 24,23 L24,23 C23.1,22.7 23.4,22.2 24.7,21.8 L94.2,0.5 C95.4,0.1 97.2,-7.77156117e-16 98,0.3 L98,0.3 C98.8,0.6 98.5,1.1 97.3,1.5 Z" fill="url(#linearGradient-9)" opacity="0.3"></path>
                    </g>
                    <g transform="translate(64.000000, 29.000000)" id="Shape">
                        <path d="M108.1,2 L28.1,26.5 C26.9,26.9 25.1,27 24.3,26.7 L24.3,26.7 C23.4,26.4 23.7,25.9 25,25.5 L105,1 C106.2,0.6 108,0.5 108.8,0.8 L108.8,0.8 C109.7,1.1 109.4,1.6 108.1,2 Z" fill="url(#linearGradient-9)" opacity="0.3"></path>
                        <path d="M10.3,27.9 L2.3,30.3 C0.4,30.9 -0.1,31.7 1.3,32.1 L6.8,33.7 C8.1,34.1 10.7,33.9 12.6,33.4 L20.6,31 C22.5,30.4 23,29.6 21.6,29.2 L16.1,27.6 C14.8,27.2 12.2,27.3 10.3,27.9 Z M14.8,28.7 L12.9,31.8 L6.8,32.2 C6.2,32.2 5.8,32.1 5.9,31.9 C6,31.7 6.6,31.5 7.2,31.5 L11.1,31.3 L12.6,28.9 C12.7,28.7 13.3,28.5 13.9,28.5 C14.5,28.4 14.9,28.5 14.8,28.7 Z" fill="url(#linearGradient-7)"></path>
                    </g>
                    <path d="M135.3,8.2 L26.4,41.5 C18.9,43.8 8.5,44.4 3.3,42.9 C-1.9,41.4 -4.49640325e-15,38.2 7.5,35.9 L116.4,2.6 C123.9,0.3 134.3,-0.3 139.5,1.2 C144.6,2.8 142.8,5.9 135.3,8.2 Z" id="Shape" fill="url(#linearGradient-7)"></path>
                    <g transform="translate(10.000000, 36.000000)" id="Shape" fill="#FFFFFF">
                        <path d="M12,3.4 C10.5,3.9 8.6,4.2 6.6,4.3 C2.7,4.5 0.1,3.8 0.8,2.6 C1.5,1.4 5.2,0.3 9.1,0.1 L9.1,0.1 C13,-0.1 15.6,0.6 14.9,1.8 C14.6,2.4 13.5,3 12,3.4 Z M5.3,1.5 C4.4,1.8 3.7,2.1 3.5,2.5 C3.1,3.2 4.7,3.7 7.1,3.6 C9.5,3.5 11.8,2.7 12.3,2 C12.7,1.3 11.1,0.8 8.7,0.9 C7.5,1 6.3,1.2 5.3,1.5 Z"></path>
                        <path d="M19.5,1.8 C19.2,1.9 18.9,2 18.5,2 L14,2.3 C13.3,2.3 12.8,2.2 12.9,2 C13,1.8 13.7,1.6 14.5,1.5 L19,1.2 C19.7,1.2 20.2,1.3 20.1,1.5 C20,1.6 19.7,1.7 19.5,1.8 Z"></path>
                    </g>
                </g>
                <g id="Group" transform="translate(419.000000, 73.000000)" fill-rule="nonzero" fill="#DD0031">
                    <path d="M6.8,1.7 C7.5,2.1 8,2.6 8.4,3.2 C8.8,3.9 9,4.6 9,5.4 C9,6.2 8.8,6.9 8.4,7.6 C8,8.3 7.5,8.8 6.8,9.2 C6.1,9.6 5.4,9.8 4.5,9.8 C3.6,9.8 2.9,9.6 2.2,9.2 C1.5,8.8 1,8.3 0.6,7.6 C0.2,6.9 0,6.2 0,5.4 C0,4.6 0.2,3.9 0.6,3.2 C1,2.5 1.5,2 2.2,1.7 C2.9,1.3 3.6,1.1 4.5,1.1 C5.4,1.1 6.1,1.3 6.8,1.7 Z M3.1,3 C2.7,3.3 2.3,3.6 2.1,4 C1.8,4.4 1.7,4.9 1.7,5.4 C1.7,5.9 1.8,6.4 2.1,6.9 C2.4,7.3 2.7,7.7 3.1,7.9 C3.5,8.2 4,8.3 4.5,8.3 C5,8.3 5.5,8.2 5.9,7.9 C6.3,7.6 6.7,7.3 6.9,6.9 C7.2,6.5 7.3,6 7.3,5.4 C7.3,4.8 7.2,4.4 6.9,4 C6.6,3.6 6.3,3.2 5.9,3 C5.5,2.7 5,2.6 4.5,2.6 C4,2.6 3.6,2.7 3.1,3 Z" id="Shape"></path>
                    <path d="M16.3,3.2 L16.3,9.6 L14.7,9.6 L14.7,8.4 C14.3,9.2 13.5,9.6 12.5,9.6 C11.8,9.6 11.2,9.4 10.8,8.9 C10.4,8.5 10.2,7.9 10.2,7.1 L10.2,3.1 L11.8,3.1 L11.8,6.7 C11.8,7.1 11.9,7.5 12.2,7.8 C12.5,8.1 12.8,8.2 13.2,8.2 C13.7,8.2 14.1,8 14.4,7.7 C14.7,7.4 14.8,6.9 14.8,6.4 L14.8,3.2 L16.3,3.2 Z" id="Shape"></path>
                    <path d="M22,9.3 C21.5,9.6 21,9.8 20.4,9.8 C19.8,9.8 19.4,9.6 19,9.3 C18.6,9 18.5,8.5 18.5,7.9 L18.5,4.7 L17.6,4.7 L17.6,3.6 L18.5,3.6 L18.5,1.8 L20,1.8 L20,3.6 L21.8,3.6 L21.8,4.7 L20,4.7 L20,7.6 C20,7.9 20.1,8.1 20.2,8.2 C20.3,8.3 20.5,8.4 20.7,8.4 C20.9,8.4 21.2,8.3 21.6,8.1 L22,9.3 Z" id="Shape"></path>
                    <path d="M30.7,3.6 C31.2,3.9 31.6,4.3 31.9,4.7 C32.2,5.2 32.3,5.8 32.3,6.4 C32.3,7 32.2,7.6 31.9,8.1 C31.6,8.6 31.2,9 30.7,9.3 C30.2,9.6 29.6,9.7 28.9,9.7 C28.2,9.7 27.6,9.6 27.1,9.3 C26.6,9 26.2,8.6 25.9,8.1 C25.6,7.6 25.5,7 25.5,6.4 C25.5,5.8 25.6,5.2 25.9,4.7 C26.2,4.2 26.6,3.8 27.1,3.6 C27.6,3.3 28.2,3.2 28.9,3.2 C29.6,3.2 30.2,3.3 30.7,3.6 Z M27.6,5.1 C27.3,5.5 27.1,5.9 27.1,6.5 C27.1,7.1 27.3,7.5 27.6,7.9 C27.9,8.3 28.4,8.4 28.9,8.4 C29.4,8.4 29.9,8.2 30.2,7.9 C30.5,7.6 30.7,7.1 30.7,6.5 C30.7,5.9 30.5,5.5 30.2,5.1 C29.9,4.7 29.4,4.6 28.9,4.6 C28.4,4.5 28,4.7 27.6,5.1 Z" id="Shape"></path>
                    <path d="M35.7,2.2 C35.5,2.3 35.5,2.5 35.5,2.8 L35.5,3.5 L37.1,3.5 L37.1,4.6 L35.5,4.6 L35.5,9.6 L33.9,9.6 L33.9,4.6 L33.1,4.6 L33.1,3.5 L33.9,3.5 L33.9,2.9 C33.9,2.4 34,2 34.2,1.7 C34.4,1.4 34.7,1.1 35,0.9 C35.3,0.7 35.7,0.6 36.1,0.6 C36.5,0.6 36.9,0.7 37.3,0.9 L37,2.2 C36.7,2.1 36.4,2 36.2,2 C36,2 35.8,2.1 35.7,2.2 Z" id="Shape"></path>
                    <path d="M44.7,9.3 C44.2,9.6 43.7,9.8 43.1,9.8 C42.5,9.8 42.1,9.6 41.7,9.3 C41.3,9 41.2,8.5 41.2,7.9 L41.2,4.7 L40.3,4.7 L40.3,3.6 L41.2,3.6 L41.2,1.8 L42.7,1.8 L42.7,3.6 L44.5,3.6 L44.5,4.7 L42.7,4.7 L42.7,7.6 C42.7,7.9 42.8,8.1 42.9,8.2 C43,8.3 43.2,8.4 43.4,8.4 C43.6,8.4 43.9,8.3 44.3,8.1 L44.7,9.3 Z" id="Shape"></path>
                    <path d="M51.6,3.9 C52,4.3 52.2,4.9 52.2,5.7 L52.2,9.7 L50.6,9.7 L50.6,6.1 C50.6,5.7 50.5,5.3 50.2,5 C49.9,4.7 49.6,4.6 49.2,4.6 C48.7,4.6 48.3,4.8 48,5.1 C47.7,5.4 47.5,5.9 47.5,6.4 L47.5,9.6 L46,9.6 L46,0.7 L47.6,0.7 L47.6,4.4 C48,3.6 48.8,3.1 49.9,3.1 C50.6,3.2 51.2,3.4 51.6,3.9 Z" id="Shape"></path>
                    <path d="M59,4.1 C59.5,4.7 59.8,5.5 59.8,6.6 C59.8,6.8 59.8,7 59.8,7.1 L55,7.1 C55.1,7.6 55.3,7.9 55.6,8.2 C55.9,8.5 56.3,8.6 56.8,8.6 C57.1,8.6 57.4,8.5 57.7,8.4 C58,8.3 58.3,8.1 58.5,7.9 L59.3,8.8 C59,9.2 58.6,9.4 58.1,9.6 C57.6,9.8 57.1,9.9 56.6,9.9 C55.9,9.9 55.4,9.8 54.9,9.5 C54.4,9.2 54,8.8 53.7,8.4 C53.4,8 53.3,7.3 53.3,6.7 C53.3,6.1 53.4,5.5 53.7,5 C54,4.5 54.4,4.1 54.9,3.8 C55.4,3.5 56,3.4 56.6,3.4 C57.7,3.2 58.4,3.5 59,4.1 Z M58.3,6 C58.3,5.5 58.1,5.2 57.8,4.9 C57.5,4.6 57.1,4.5 56.6,4.5 C56.1,4.5 55.8,4.6 55.5,4.9 C55.2,5.2 55,5.6 54.9,6 L58.3,6 Z" id="Shape"></path>
                    <path d="M69.4,3.6 C69.9,3.9 70.2,4.3 70.5,4.8 C70.8,5.3 70.9,5.9 70.9,6.5 C70.9,7.1 70.8,7.7 70.5,8.2 C70.3,8.7 69.9,9.1 69.4,9.3 C68.9,9.6 68.4,9.7 67.8,9.7 C67.3,9.7 66.9,9.6 66.5,9.4 C66.1,9.2 65.8,8.9 65.6,8.6 L65.6,9.6 L64,9.6 L64,0.7 L65.6,0.7 L65.6,4.2 C65.8,3.8 66.1,3.6 66.5,3.4 C66.9,3.2 67.3,3.1 67.8,3.1 C68.4,3.2 68.9,3.3 69.4,3.6 Z M68.7,7.8 C69,7.4 69.2,7 69.2,6.4 C69.2,5.8 69,5.4 68.7,5 C68.4,4.6 67.9,4.5 67.4,4.5 C66.9,4.5 66.4,4.7 66.1,5 C65.8,5.3 65.6,5.8 65.6,6.4 C65.6,7 65.8,7.4 66.1,7.8 C66.4,8.2 66.9,8.3 67.4,8.3 C68,8.4 68.4,8.2 68.7,7.8 Z" id="Shape"></path>
                    <path d="M76.7,3.6 C77.2,3.9 77.6,4.3 77.9,4.7 C78.2,5.2 78.3,5.8 78.3,6.4 C78.3,7 78.2,7.6 77.9,8.1 C77.6,8.6 77.2,9 76.7,9.3 C76.2,9.6 75.6,9.7 74.9,9.7 C74.2,9.7 73.6,9.6 73.1,9.3 C72.6,9 72.2,8.6 71.9,8.1 C71.6,7.6 71.5,7 71.5,6.4 C71.5,5.8 71.6,5.2 71.9,4.7 C72.2,4.2 72.6,3.8 73.1,3.6 C73.6,3.3 74.2,3.2 74.9,3.2 C75.7,3.2 76.2,3.3 76.7,3.6 Z M73.7,5.1 C73.4,5.5 73.2,5.9 73.2,6.5 C73.2,7.1 73.4,7.5 73.7,7.9 C74,8.3 74.5,8.4 75,8.4 C75.5,8.4 76,8.2 76.3,7.9 C76.6,7.6 76.8,7.1 76.8,6.5 C76.8,5.9 76.6,5.5 76.3,5.1 C76,4.7 75.5,4.6 75,4.6 C74.4,4.5 74,4.7 73.7,5.1 Z" id="Shape"></path>
                    <polygon id="Shape" points="78.7 3.2 80.5 3.2 81.8 5.3 83.2 3.2 84.9 3.2 82.9 6.3 85.1 9.6 83.3 9.6 81.9 7.4 80.4 9.6 78.7 9.6 80.9 6.3"></polygon>
                </g>
                <g id="Group" transform="translate(418.000000, 158.000000)" fill-rule="nonzero" fill="#AAAAE0">
                    <path d="M6.1,3.2 C5.7,3 5.3,2.9 4.9,2.9 C4.4,2.9 3.9,3 3.5,3.3 C3.1,3.5 2.7,3.9 2.5,4.3 C2.3,4.7 2.1,5.2 2.1,5.7 C2.1,6.2 2.2,6.7 2.5,7.1 C2.7,7.5 3.1,7.9 3.5,8.1 C3.9,8.4 4.4,8.5 4.9,8.5 C5.3,8.5 5.7,8.4 6.1,8.2 C6.5,8 6.9,7.8 7.2,7.5 L8.1,8.6 C7.7,9 7.1,9.4 6.6,9.7 C6,10 5.4,10.1 4.8,10.1 C4,10.1 3.3,9.9 2.6,9.5 C1.9,9.1 1.4,8.6 1,7.9 C0.6,7.2 0.4,6.5 0.4,5.7 C0.4,4.9 0.6,4.2 1,3.5 C1.4,2.8 1.9,2.3 2.6,2 C3.3,1.6 4,1.4 4.8,1.4 C5.4,1.4 6,1.5 6.6,1.8 C7.2,2 7.7,2.4 8.1,2.8 L7.2,4 C6.8,3.7 6.5,3.4 6.1,3.2 Z" id="Shape"></path>
                    <path d="M15.3,3.6 L15.3,10 L13.7,10 L13.7,8.8 C13.3,9.6 12.5,10 11.5,10 C10.8,10 10.2,9.8 9.8,9.3 C9.4,8.9 9.2,8.3 9.2,7.5 L9.2,3.5 L10.8,3.5 L10.8,7.1 C10.8,7.5 10.9,7.9 11.2,8.2 C11.5,8.5 11.8,8.6 12.2,8.6 C12.7,8.6 13.1,8.4 13.4,8.1 C13.7,7.8 13.8,7.3 13.8,6.8 L13.8,3.6 L15.3,3.6 Z" id="Shape"></path>
                    <path d="M20,4.9 C19.7,4.8 19.4,4.7 19.1,4.7 C18.8,4.7 18.6,4.7 18.5,4.8 C18.3,4.9 18.3,5 18.3,5.2 C18.3,5.4 18.4,5.6 18.6,5.7 C18.8,5.8 19.1,5.9 19.5,6 C19.9,6.1 20.3,6.3 20.6,6.4 C20.9,6.5 21.1,6.7 21.4,7 C21.6,7.3 21.7,7.6 21.7,8 C21.7,8.6 21.5,9.1 21,9.4 C20.5,9.7 19.9,9.9 19.2,9.9 C18.7,9.9 18.2,9.8 17.7,9.7 C17.2,9.5 16.8,9.3 16.5,9 L17,7.9 C17.3,8.1 17.6,8.3 18,8.5 C18.4,8.6 18.8,8.7 19.1,8.7 C19.4,8.7 19.6,8.7 19.8,8.5 C20,8.4 20.1,8.3 20.1,8 C20.1,7.8 20,7.6 19.8,7.5 C19.6,7.4 19.3,7.3 18.8,7.1 C18.4,7 18,6.8 17.7,6.7 C17.4,6.6 17.2,6.4 17,6.1 C16.8,5.8 16.7,5.5 16.7,5.1 C16.7,4.5 16.9,4 17.4,3.7 C17.9,3.4 18.4,3.2 19.1,3.2 C19.5,3.2 19.9,3.3 20.4,3.4 C20.8,3.5 21.2,3.7 21.5,3.9 L20.9,5 C20.7,5.1 20.4,5 20,4.9 Z" id="Shape"></path>
                    <path d="M26.7,9.6 C26.2,9.9 25.7,10.1 25.1,10.1 C24.5,10.1 24.1,9.9 23.7,9.6 C23.3,9.3 23.2,8.8 23.2,8.2 L23.2,5 L22.3,5 L22.3,3.9 L23.2,3.9 L23.2,2.1 L24.7,2.1 L24.7,3.9 L26.5,3.9 L26.5,5 L24.7,5 L24.7,7.9 C24.7,8.2 24.8,8.4 24.9,8.5 C25,8.6 25.2,8.7 25.4,8.7 C25.6,8.7 25.9,8.6 26.3,8.4 L26.7,9.6 Z" id="Shape"></path>
                    <path d="M32.5,3.9 C33,4.2 33.4,4.6 33.7,5 C34,5.5 34.1,6.1 34.1,6.7 C34.1,7.3 34,7.9 33.7,8.4 C33.4,8.9 33,9.3 32.5,9.6 C32,9.9 31.4,10 30.7,10 C30,10 29.4,9.9 28.9,9.6 C28.4,9.3 28,8.9 27.7,8.4 C27.4,7.9 27.3,7.3 27.3,6.7 C27.3,6.1 27.4,5.5 27.7,5 C28,4.5 28.4,4.1 28.9,3.9 C29.4,3.6 30,3.5 30.7,3.5 C31.4,3.5 32,3.7 32.5,3.9 Z M29.4,5.4 C29.1,5.8 28.9,6.2 28.9,6.8 C28.9,7.4 29.1,7.8 29.4,8.2 C29.7,8.6 30.2,8.7 30.7,8.7 C31.2,8.7 31.7,8.5 32,8.2 C32.3,7.9 32.5,7.4 32.5,6.8 C32.5,6.2 32.3,5.8 32,5.4 C31.7,5 31.2,4.9 30.7,4.9 C30.2,4.9 29.7,5 29.4,5.4 Z" id="Shape"></path>
                    <path d="M45.6,4.2 C46,4.6 46.2,5.2 46.2,6 L46.2,10 L44.6,10 L44.6,6.4 C44.6,5.9 44.5,5.6 44.2,5.3 C43.9,5 43.6,4.9 43.2,4.9 C42.7,4.9 42.3,5.1 42,5.4 C41.7,5.7 41.6,6.2 41.6,6.7 L41.6,9.9 L40,9.9 L40,6.3 C40,5.8 39.9,5.5 39.6,5.2 C39.3,4.9 39,4.8 38.6,4.8 C38.1,4.8 37.7,5 37.4,5.3 C37.1,5.6 37,6.1 37,6.6 L37,9.8 L35.4,9.8 L35.4,3.4 L37,3.4 L37,4.6 C37.4,3.8 38.2,3.4 39.3,3.4 C39.9,3.4 40.3,3.5 40.7,3.8 C41.1,4.1 41.3,4.4 41.5,4.9 C41.9,3.9 42.7,3.4 43.9,3.4 C44.6,3.5 45.1,3.7 45.6,4.2 Z" id="Shape"></path>
                    <path d="M49.3,1.1 C49.5,1.3 49.6,1.5 49.6,1.8 C49.6,2.1 49.5,2.3 49.3,2.5 C49.1,2.7 48.9,2.8 48.7,2.8 C48.5,2.8 48.2,2.7 48.1,2.5 C48,2.3 47.8,2.1 47.8,1.8 C47.8,1.5 47.9,1.3 48.1,1.1 C48.3,0.9 48.5,0.8 48.7,0.8 C48.9,0.8 49.2,0.9 49.3,1.1 Z M47.9,3.6 L49.5,3.6 L49.5,10 L47.9,10 L47.9,3.6 Z" id="Shape"></path>
                    <path d="M54.3,4.9 C54,4.8 53.7,4.7 53.4,4.7 C53.1,4.7 52.9,4.7 52.8,4.8 C52.7,4.9 52.6,5 52.6,5.2 C52.6,5.4 52.7,5.6 52.9,5.7 C53.1,5.8 53.4,5.9 53.8,6 C54.2,6.1 54.6,6.3 54.9,6.4 C55.2,6.5 55.4,6.7 55.7,7 C55.9,7.3 56,7.6 56,8 C56,8.6 55.8,9.1 55.3,9.4 C54.8,9.7 54.2,9.9 53.5,9.9 C53,9.9 52.5,9.8 52,9.7 C51.5,9.5 51.1,9.3 50.8,9 L51.3,7.9 C51.6,8.1 51.9,8.3 52.3,8.5 C52.7,8.6 53.1,8.7 53.4,8.7 C53.7,8.7 53.9,8.7 54.1,8.5 C54.3,8.4 54.4,8.3 54.4,8 C54.4,7.8 54.3,7.6 54.1,7.5 C53.9,7.4 53.6,7.3 53.1,7.1 C52.7,7 52.3,6.8 52,6.7 C51.7,6.6 51.5,6.4 51.3,6.1 C51.1,5.8 51,5.5 51,5.1 C51,4.5 51.2,4 51.7,3.7 C52.2,3.4 52.7,3.2 53.4,3.2 C53.8,3.2 54.2,3.3 54.7,3.4 C55.1,3.5 55.5,3.7 55.8,3.9 L55.2,5 C54.9,5.1 54.6,5 54.3,4.9 Z" id="Shape"></path>
                    <path d="M61,10 L61,9.2 C60.8,9.5 60.5,9.7 60.1,9.8 C59.7,9.9 59.3,10 58.9,10 C58.5,10 58.1,9.9 57.7,9.7 C57.4,9.5 57.1,9.3 56.9,9 C56.7,8.7 56.6,8.4 56.6,8 C56.6,7.4 56.8,6.9 57.2,6.6 C57.6,6.3 58.2,6.1 59,6.1 L60.9,6.1 L60.9,6 C60.9,5.6 60.8,5.3 60.5,5.1 C60.3,4.9 59.9,4.8 59.4,4.8 C58.8,4.8 58.2,5 57.5,5.4 L56.9,4.3 C57.4,4 57.9,3.8 58.3,3.7 C58.7,3.6 59.2,3.5 59.7,3.5 C60.5,3.5 61.2,3.7 61.6,4.1 C62.1,4.5 62.3,5.1 62.3,5.8 L62.3,10 L61,10 Z M60.4,8.6 C60.7,8.4 60.9,8.1 60.9,7.8 L60.9,7.2 L59.3,7.2 C58.9,7.2 58.6,7.3 58.4,7.4 C58.2,7.5 58.1,7.7 58.1,8 C58.1,8.3 58.2,8.5 58.4,8.6 C58.6,8.7 58.9,8.8 59.2,8.8 C59.7,8.9 60.1,8.8 60.4,8.6 Z" id="Shape"></path>
                    <path d="M68,9.6 C67.5,9.9 67,10.1 66.4,10.1 C65.8,10.1 65.4,9.9 65,9.6 C64.6,9.3 64.5,8.8 64.5,8.2 L64.5,5 L63.6,5 L63.6,3.9 L64.5,3.9 L64.5,2.1 L66,2.1 L66,3.9 L67.8,3.9 L67.8,5 L66,5 L66,7.9 C66,8.2 66.1,8.4 66.2,8.5 C66.3,8.6 66.5,8.7 66.7,8.7 C66.9,8.7 67.2,8.6 67.6,8.4 L68,9.6 Z" id="Shape"></path>
                    <path d="M70.7,1.1 C70.9,1.3 71,1.5 71,1.8 C71,2.1 70.9,2.3 70.7,2.5 C70.5,2.7 70.3,2.8 70.1,2.8 C69.9,2.8 69.6,2.7 69.5,2.5 C69.4,2.3 69.2,2.1 69.2,1.8 C69.2,1.5 69.3,1.3 69.5,1.1 C69.7,0.9 69.9,0.8 70.1,0.8 C70.3,0.8 70.5,0.9 70.7,1.1 Z M69.3,3.6 L70.9,3.6 L70.9,10 L69.3,10 L69.3,3.6 Z" id="Shape"></path>
                    <path d="M77.3,3.9 C77.8,4.2 78.2,4.6 78.5,5 C78.8,5.4 78.9,6.1 78.9,6.7 C78.9,7.3 78.8,7.9 78.5,8.4 C78.2,8.9 77.8,9.3 77.3,9.6 C76.8,9.9 76.2,10 75.5,10 C74.8,10 74.2,9.9 73.7,9.6 C73.2,9.3 72.8,8.9 72.5,8.4 C72.2,7.9 72.1,7.3 72.1,6.7 C72.1,6.1 72.2,5.5 72.5,5 C72.8,4.5 73.2,4.1 73.7,3.9 C74.2,3.6 74.8,3.5 75.5,3.5 C76.2,3.5 76.8,3.7 77.3,3.9 Z M74.2,5.4 C73.9,5.8 73.7,6.2 73.7,6.8 C73.7,7.4 73.9,7.8 74.2,8.2 C74.5,8.6 75,8.7 75.5,8.7 C76,8.7 76.5,8.5 76.8,8.2 C77.1,7.8 77.3,7.4 77.3,6.8 C77.3,6.2 77.1,5.8 76.8,5.4 C76.5,5 76,4.9 75.5,4.9 C75,4.9 74.6,5 74.2,5.4 Z" id="Shape"></path>
                    <path d="M85.9,4.2 C86.3,4.6 86.5,5.2 86.5,6 L86.5,10 L85,10 L85,6.4 C85,6 84.9,5.6 84.6,5.3 C84.3,5 84,4.9 83.6,4.9 C83.1,4.9 82.7,5.1 82.4,5.4 C82.1,5.7 81.9,6.2 81.9,6.7 L81.9,9.9 L80.3,9.9 L80.3,3.5 L81.9,3.5 L81.9,4.7 C82.3,3.9 83.1,3.5 84.2,3.4 C84.9,3.5 85.5,3.7 85.9,4.2 Z" id="Shape"></path>
                </g>
                <g id="Group" transform="translate(419.000000, 249.000000)" fill-rule="nonzero" fill="#3B3769">
                    <polygon id="Shape" points="0 1.3 5.8 1.3 5.8 2.7 1.6 2.7 1.6 5 5.4 5 5.4 6.4 1.6 6.4 1.6 9.7 0 9.7"></polygon>
                    <path d="M12.9,3.2 L12.9,9.6 L11.3,9.6 L11.3,8.4 C10.9,9.2 10.1,9.6 9.1,9.6 C8.4,9.6 7.8,9.4 7.4,8.9 C7,8.4 6.8,7.9 6.8,7.1 L6.8,3.1 L8.4,3.1 L8.4,6.7 C8.4,7.1 8.5,7.5 8.8,7.8 C9.1,8.1 9.4,8.2 9.8,8.2 C10.3,8.2 10.7,8 11,7.7 C11.3,7.4 11.4,6.9 11.4,6.4 L11.4,3.2 L12.9,3.2 Z" id="Shape"></path>
                    <polygon id="Shape" points="14.9 0.8 16.5 0.8 16.5 9.7 14.9 9.7"></polygon>
                    <polygon id="Shape" points="18.5 0.8 20.1 0.8 20.1 9.7 18.5 9.7"></polygon>
                    <path d="M27.8,4.6 C27.3,4.6 26.9,4.8 26.5,5.1 C26.2,5.5 26,5.9 26,6.5 C26,7.1 26.2,7.5 26.5,7.9 C26.8,8.3 27.2,8.4 27.8,8.4 C28.6,8.4 29.1,8.1 29.5,7.6 L30.5,8.4 C30.2,8.8 29.8,9.1 29.4,9.4 C29,9.7 28.4,9.7 27.8,9.7 C27.2,9.7 26.6,9.6 26.1,9.3 C25.6,9 25.2,8.6 25,8.2 C24.7,7.7 24.6,7.1 24.6,6.5 C24.6,5.9 24.7,5.3 25,4.8 C25.3,4.3 25.7,3.9 26.2,3.6 C26.7,3.3 27.3,3.2 27.9,3.2 C28.5,3.2 29,3.3 29.5,3.5 C30,3.7 30.3,4 30.6,4.4 L29.7,5.3 C29,4.8 28.5,4.6 27.8,4.6 Z" id="Shape"></path>
                    <path d="M37.7,3.2 L37.7,9.6 L36.1,9.6 L36.1,8.4 C35.7,9.2 34.9,9.6 33.9,9.6 C33.2,9.6 32.6,9.4 32.2,8.9 C31.8,8.4 31.6,7.9 31.6,7.1 L31.6,3.1 L33.2,3.1 L33.2,6.7 C33.2,7.1 33.3,7.5 33.6,7.8 C33.9,8.1 34.2,8.2 34.6,8.2 C35.1,8.2 35.5,8 35.8,7.7 C36.1,7.4 36.2,6.9 36.2,6.4 L36.2,3.2 L37.7,3.2 Z" id="Shape"></path>
                    <path d="M42.5,4.6 C42.2,4.5 41.9,4.4 41.6,4.4 C41.3,4.4 41.1,4.4 41,4.5 C40.9,4.6 40.8,4.7 40.8,4.9 C40.8,5.1 40.9,5.3 41.1,5.4 C41.3,5.5 41.6,5.6 42,5.7 C42.4,5.8 42.8,6 43.1,6.1 C43.4,6.2 43.6,6.4 43.9,6.7 C44.2,7 44.2,7.3 44.2,7.7 C44.2,8.3 44,8.8 43.5,9.1 C43,9.4 42.4,9.6 41.7,9.6 C41.2,9.6 40.7,9.5 40.2,9.4 C39.7,9.2 39.3,9 39,8.7 L39.5,7.6 C39.8,7.8 40.1,8 40.5,8.2 C40.9,8.3 41.3,8.4 41.6,8.4 C41.9,8.4 42.1,8.3 42.3,8.2 C42.5,8.1 42.6,8 42.6,7.7 C42.6,7.5 42.5,7.3 42.3,7.2 C42.1,7.1 41.8,7 41.3,6.8 C40.9,6.7 40.5,6.5 40.2,6.4 C39.9,6.3 39.7,6.1 39.5,5.8 C39.3,5.5 39.2,5.2 39.2,4.8 C39.2,4.2 39.4,3.7 39.9,3.4 C40.4,3.1 40.9,2.9 41.6,2.9 C42,2.9 42.4,3 42.9,3.1 C43.3,3.2 43.7,3.4 44,3.6 L43.4,4.7 C43.2,4.8 42.8,4.7 42.5,4.6 Z" id="Shape"></path>
                    <path d="M49.2,9.3 C48.7,9.6 48.2,9.8 47.6,9.8 C47,9.8 46.6,9.6 46.2,9.3 C45.8,9 45.7,8.5 45.7,7.9 L45.7,4.7 L44.8,4.7 L44.8,3.6 L45.7,3.6 L45.7,1.8 L47.2,1.8 L47.2,3.6 L49,3.6 L49,4.7 L47.2,4.7 L47.2,7.6 C47.2,7.9 47.3,8.1 47.4,8.2 C47.5,8.3 47.7,8.4 47.9,8.4 C48.1,8.4 48.4,8.3 48.8,8.1 L49.2,9.3 Z" id="Shape"></path>
                    <path d="M54.9,3.6 C55.4,3.9 55.8,4.3 56.1,4.7 C56.4,5.2 56.5,5.8 56.5,6.4 C56.5,7 56.4,7.6 56.1,8.1 C55.8,8.6 55.4,9 54.9,9.3 C54.4,9.6 53.8,9.7 53.1,9.7 C52.4,9.7 51.8,9.6 51.3,9.3 C50.8,9 50.4,8.6 50.1,8.1 C49.8,7.6 49.7,7 49.7,6.4 C49.7,5.8 49.8,5.2 50.1,4.7 C50.4,4.2 50.8,3.8 51.3,3.6 C51.8,3.3 52.4,3.2 53.1,3.2 C53.8,3.2 54.4,3.3 54.9,3.6 Z M51.9,5.1 C51.6,5.5 51.4,5.9 51.4,6.5 C51.4,7.1 51.6,7.5 51.9,7.9 C52.2,8.3 52.7,8.4 53.2,8.4 C53.7,8.4 54.2,8.2 54.5,7.9 C54.8,7.5 55,7.1 55,6.5 C55,5.9 54.8,5.5 54.5,5.1 C54.2,4.7 53.7,4.6 53.2,4.6 C52.6,4.5 52.2,4.7 51.9,5.1 Z" id="Shape"></path>
                    <path d="M68,3.9 C68.4,4.3 68.6,4.9 68.6,5.7 L68.6,9.7 L67,9.7 L67,6.1 C67,5.6 66.9,5.3 66.6,5 C66.3,4.7 66,4.6 65.6,4.6 C65.1,4.6 64.7,4.8 64.4,5.1 C64.1,5.4 64,5.9 64,6.4 L64,9.6 L62.4,9.6 L62.4,6 C62.4,5.5 62.3,5.2 62,4.9 C61.7,4.6 61.4,4.5 61,4.5 C60.5,4.5 60.1,4.7 59.8,5 C59.5,5.3 59.4,5.8 59.4,6.3 L59.4,9.5 L57.8,9.5 L57.8,3.1 L59.4,3.1 L59.4,4.3 C59.8,3.5 60.6,3.1 61.7,3.1 C62.3,3.1 62.7,3.2 63.1,3.5 C63.5,3.8 63.7,4.1 63.9,4.6 C64.3,3.6 65.1,3.1 66.3,3.1 C67,3.2 67.6,3.4 68,3.9 Z" id="Shape"></path>
                    <polygon id="Shape" points="73.4 0.8 75 0.8 75 9.7 73.4 9.7"></polygon>
                    <path d="M81.9,4.1 C82.4,4.7 82.7,5.5 82.7,6.6 C82.7,6.8 82.7,7 82.7,7.1 L78,7.1 C78.1,7.6 78.3,7.9 78.6,8.2 C78.9,8.5 79.3,8.6 79.8,8.6 C80.1,8.6 80.4,8.5 80.7,8.4 C81,8.3 81.3,8.1 81.5,7.9 L82.3,8.8 C82,9.2 81.6,9.4 81.1,9.6 C80.6,9.8 80.1,9.9 79.6,9.9 C78.9,9.9 78.4,9.8 77.9,9.5 C77.4,9.2 77,8.8 76.7,8.4 C76.4,7.9 76.3,7.3 76.3,6.7 C76.3,6.1 76.4,5.5 76.7,5 C77,4.5 77.4,4.1 77.9,3.8 C78.4,3.5 79,3.4 79.6,3.4 C80.7,3.2 81.4,3.5 81.9,4.1 Z M81.3,6 C81.3,5.5 81.1,5.2 80.8,4.9 C80.5,4.6 80.1,4.5 79.6,4.5 C79.1,4.5 78.8,4.6 78.5,4.9 C78.2,5.2 78,5.6 77.9,6 L81.3,6 Z" id="Shape"></path>
                    <polygon id="Shape" points="82.9 3.3 84.5 3.3 86.2 8.2 87.8 3.3 89.4 3.3 87 9.7 85.4 9.7"></polygon>
                    <path d="M95,4.1 C95.5,4.7 95.8,5.5 95.8,6.6 C95.8,6.8 95.8,7 95.8,7.1 L91.1,7.1 C91.2,7.6 91.4,7.9 91.7,8.2 C92,8.5 92.4,8.6 92.9,8.6 C93.2,8.6 93.5,8.5 93.8,8.4 C94.1,8.3 94.4,8.1 94.6,7.9 L95.4,8.8 C95.1,9.2 94.7,9.4 94.2,9.6 C93.7,9.8 93.2,9.9 92.7,9.9 C92,9.9 91.5,9.8 91,9.5 C90.5,9.2 90.1,8.8 89.8,8.4 C89.5,7.9 89.4,7.3 89.4,6.7 C89.4,6.1 89.5,5.5 89.8,5 C90.1,4.5 90.5,4.1 91,3.8 C91.5,3.5 92.1,3.4 92.7,3.4 C93.8,3.2 94.5,3.5 95,4.1 Z M94.4,6 C94.4,5.5 94.2,5.2 93.9,4.9 C93.6,4.6 93.2,4.5 92.7,4.5 C92.2,4.5 91.9,4.6 91.6,4.9 C91.3,5.2 91.1,5.6 91,6 L94.4,6 Z" id="Shape"></path>
                    <polygon id="Shape" points="97.2 0.8 98.8 0.8 98.8 9.7 97.2 9.7"></polygon>
                </g>
            </g>
        </g>
    </g>
</svg>